G04 HomeBrain Presence Motherboard B.Cu*
%TF.GenerationSoftware,OpenAI,HomeBrain Dedicated Motherboard Generator,1.0*%
%FSLAX46Y46*%
%MOMM*%
%LPD*%
%ADD10C,0.4000*%
%ADD11C,0.8000*%
%ADD12C,0.9000*%
%ADD13C,1.0000*%
%ADD14C,1.3000*%
%ADD15C,1.5000*%
%ADD16C,1.8000*%
%ADD17C,2.3000*%
%ADD18C,5.2000*%
%ADD19R,0.2600X0.2600*%
G36*
X0000600000Y0000600000D02*
X0063400000Y0000600000D01*
X0063400000Y0053400000D01*
X0000600000Y0053400000D01*
X0000600000Y0000600000D01*
G37*
%LPC*%
D17*
X0039540000Y0008500000D03*
D17*
X0037000000Y0008500000D03*
D17*
X0045420000Y0009500000D03*
D17*
X0047960000Y0009500000D03*
D17*
X0053040000Y0009500000D03*
D17*
X0055580000Y0009500000D03*
D17*
X0060464800Y0028971200D03*
D17*
X0060464800Y0031511200D03*
D17*
X0060464800Y0034051200D03*
D17*
X0060464800Y0039131200D03*
D17*
X0026620000Y0045540000D03*
D17*
X0011380000Y0050620000D03*
D17*
X0011380000Y0048080000D03*
D17*
X0026620000Y0043000000D03*
D17*
X0011380000Y0045540000D03*
D17*
X0011380000Y0043000000D03*
D17*
X0011380000Y0040460000D03*
D17*
X0011380000Y0037920000D03*
D17*
X0011380000Y0035380000D03*
D17*
X0026620000Y0035380000D03*
D17*
X0026620000Y0037920000D03*
D17*
X0026620000Y0040460000D03*
D17*
X0026620000Y0050620000D03*
D14*
X0026500000Y0045500000D02*
X0028500000Y0045500000D01*
D14*
X0028500000Y0036500000D02*
X0028500000Y0045500000D01*
D14*
X0029000000Y0036250000D02*
X0029000000Y0036500000D01*
D14*
X0029000000Y0036500000D02*
X0028500000Y0036500000D01*
D14*
X0029250000Y0036000000D02*
X0029250000Y0036250000D01*
D14*
X0029250000Y0036250000D02*
X0029000000Y0036250000D01*
D14*
X0029500000Y0030500000D02*
X0029500000Y0036000000D01*
D14*
X0029500000Y0036000000D02*
X0029250000Y0036000000D01*
D12*
X0008750000Y0037500000D02*
X0008750000Y0045500000D01*
D12*
X0008750000Y0045500000D02*
X0011500000Y0045500000D01*
D12*
X0009000000Y0037250000D02*
X0009000000Y0037500000D01*
D12*
X0009000000Y0037500000D02*
X0008750000Y0037500000D01*
D12*
X0010000000Y0034500000D02*
X0010000000Y0037250000D01*
D12*
X0010000000Y0037250000D02*
X0009000000Y0037250000D01*
D12*
X0010250000Y0034250000D02*
X0010250000Y0034500000D01*
D12*
X0010250000Y0034500000D02*
X0010000000Y0034500000D01*
D12*
X0010500000Y0034000000D02*
X0010500000Y0034250000D01*
D12*
X0010500000Y0034250000D02*
X0010250000Y0034250000D01*
D12*
X0011500000Y0010000000D02*
X0011500000Y0034000000D01*
D12*
X0011500000Y0034000000D02*
X0010500000Y0034000000D01*
D12*
X0035000000Y0009750000D02*
X0035000000Y0010000000D01*
D12*
X0035000000Y0010000000D02*
X0011500000Y0010000000D01*
D12*
X0035500000Y0009500000D02*
X0035500000Y0009750000D01*
D12*
X0035500000Y0009750000D02*
X0035000000Y0009750000D01*
D12*
X0035750000Y0009000000D02*
X0035750000Y0009500000D01*
D12*
X0035750000Y0009500000D02*
X0035500000Y0009500000D01*
D12*
X0036000000Y0008500000D02*
X0036000000Y0009000000D01*
D12*
X0036000000Y0009000000D02*
X0035750000Y0009000000D01*
D12*
X0037000000Y0008500000D02*
X0036000000Y0008500000D01*
D12*
X0011500000Y0043000000D02*
X0009500000Y0043000000D01*
D12*
X0026500000Y0035500000D02*
X0028500000Y0035500000D01*
D12*
X0028500000Y0029000000D02*
X0028500000Y0035500000D01*
D12*
X0060500000Y0029000000D02*
X0028500000Y0029000000D01*
D12*
X0011500000Y0036750000D02*
X0011500000Y0038000000D01*
D12*
X0011500000Y0038000000D02*
X0009500000Y0038000000D01*
D12*
X0012250000Y0036500000D02*
X0012250000Y0036750000D01*
D12*
X0012250000Y0036750000D02*
X0011500000Y0036750000D01*
D12*
X0012500000Y0036250000D02*
X0012500000Y0036500000D01*
D12*
X0012500000Y0036500000D02*
X0012250000Y0036500000D01*
D12*
X0012750000Y0011000000D02*
X0012750000Y0036250000D01*
D12*
X0012750000Y0036250000D02*
X0012500000Y0036250000D01*
D12*
X0051250000Y0010750000D02*
X0051250000Y0011000000D01*
D12*
X0051250000Y0011000000D02*
X0012750000Y0011000000D01*
D12*
X0051500000Y0010500000D02*
X0051500000Y0010750000D01*
D12*
X0051500000Y0010750000D02*
X0051250000Y0010750000D01*
D12*
X0051750000Y0010250000D02*
X0051750000Y0010500000D01*
D12*
X0051750000Y0010500000D02*
X0051500000Y0010500000D01*
D12*
X0052000000Y0009500000D02*
X0052000000Y0010250000D01*
D12*
X0052000000Y0010250000D02*
X0051750000Y0010250000D01*
D12*
X0053000000Y0009500000D02*
X0052000000Y0009500000D01*
D12*
X0011500000Y0039500000D02*
X0011500000Y0040500000D01*
D12*
X0011750000Y0039250000D02*
X0011750000Y0039500000D01*
D12*
X0011750000Y0039500000D02*
X0011500000Y0039500000D01*
D12*
X0012250000Y0039000000D02*
X0012250000Y0039250000D01*
D12*
X0012250000Y0039250000D02*
X0011750000Y0039250000D01*
D12*
X0012500000Y0038750000D02*
X0012500000Y0039000000D01*
D12*
X0012500000Y0039000000D02*
X0012250000Y0039000000D01*
D12*
X0012750000Y0037250000D02*
X0012750000Y0038750000D01*
D12*
X0012750000Y0038750000D02*
X0012500000Y0038750000D01*
D12*
X0013000000Y0037000000D02*
X0013000000Y0037250000D01*
D12*
X0013000000Y0037250000D02*
X0012750000Y0037250000D01*
D12*
X0013250000Y0036750000D02*
X0013250000Y0037000000D01*
D12*
X0013250000Y0037000000D02*
X0013000000Y0037000000D01*
D12*
X0013500000Y0035250000D02*
X0013500000Y0036750000D01*
D12*
X0013500000Y0036750000D02*
X0013250000Y0036750000D01*
D12*
X0025250000Y0011750000D02*
X0025250000Y0035250000D01*
D12*
X0025250000Y0035250000D02*
X0013500000Y0035250000D01*
D12*
X0051750000Y0011500000D02*
X0051750000Y0011750000D01*
D12*
X0051750000Y0011750000D02*
X0025250000Y0011750000D01*
D12*
X0052000000Y0011250000D02*
X0052000000Y0011500000D01*
D12*
X0052000000Y0011500000D02*
X0051750000Y0011500000D01*
D12*
X0052250000Y0011000000D02*
X0052250000Y0011250000D01*
D12*
X0052250000Y0011250000D02*
X0052000000Y0011250000D01*
D12*
X0053750000Y0010750000D02*
X0053750000Y0011000000D01*
D12*
X0053750000Y0011000000D02*
X0052250000Y0011000000D01*
D12*
X0054000000Y0010500000D02*
X0054000000Y0010750000D01*
D12*
X0054000000Y0010750000D02*
X0053750000Y0010750000D01*
D12*
X0054250000Y0010250000D02*
X0054250000Y0010500000D01*
D12*
X0054250000Y0010500000D02*
X0054000000Y0010500000D01*
D12*
X0054500000Y0009500000D02*
X0054500000Y0010250000D01*
D12*
X0054500000Y0010250000D02*
X0054250000Y0010250000D01*
D12*
X0055500000Y0009500000D02*
X0054500000Y0009500000D01*
D15*
X0029500000Y0030500000D03*
G36*
X0013000000Y0020000000D02*
X0025000000Y0020000000D01*
X0025000000Y0035000000D01*
X0013000000Y0035000000D01*
X0013000000Y0020000000D01*
G37*
D19*
X0010500000Y0036250000D03*
D19*
X0010500000Y0036500000D03*
D19*
X0010500000Y0036750000D03*
D19*
X0010500000Y0037000000D03*
D19*
X0010750000Y0036500000D03*
D19*
X0010750000Y0036750000D03*
D19*
X0011000000Y0036500000D03*
D19*
X0011000000Y0036750000D03*
D19*
X0013250000Y0011500000D03*
D19*
X0013250000Y0011750000D03*
D19*
X0013250000Y0012000000D03*
D19*
X0013250000Y0012250000D03*
D19*
X0013250000Y0012500000D03*
D19*
X0013250000Y0012750000D03*
D19*
X0013250000Y0013000000D03*
D19*
X0013250000Y0013250000D03*
D19*
X0013250000Y0013500000D03*
D19*
X0013250000Y0013750000D03*
D19*
X0013250000Y0014000000D03*
D19*
X0013250000Y0014250000D03*
D19*
X0013250000Y0014500000D03*
D19*
X0013250000Y0014750000D03*
D19*
X0013250000Y0015000000D03*
D19*
X0013250000Y0015250000D03*
D19*
X0013250000Y0015500000D03*
D19*
X0013250000Y0015750000D03*
D19*
X0013250000Y0016000000D03*
D19*
X0013250000Y0016250000D03*
D19*
X0013250000Y0016500000D03*
D19*
X0013250000Y0016750000D03*
D19*
X0013250000Y0017000000D03*
D19*
X0013250000Y0017250000D03*
D19*
X0013250000Y0017500000D03*
D19*
X0013250000Y0017750000D03*
D19*
X0013250000Y0018000000D03*
D19*
X0013250000Y0018250000D03*
D19*
X0013250000Y0018500000D03*
D19*
X0013250000Y0018750000D03*
D19*
X0013250000Y0019000000D03*
D19*
X0013250000Y0019250000D03*
D19*
X0013250000Y0019500000D03*
D19*
X0013250000Y0019750000D03*
D19*
X0013500000Y0011500000D03*
D19*
X0013500000Y0011750000D03*
D19*
X0013500000Y0012000000D03*
D19*
X0013500000Y0012250000D03*
D19*
X0013500000Y0012500000D03*
D19*
X0013500000Y0012750000D03*
D19*
X0013500000Y0013000000D03*
D19*
X0013500000Y0013250000D03*
D19*
X0013500000Y0013500000D03*
D19*
X0013500000Y0013750000D03*
D19*
X0013500000Y0014000000D03*
D19*
X0013500000Y0014250000D03*
D19*
X0013500000Y0014500000D03*
D19*
X0013500000Y0014750000D03*
D19*
X0013500000Y0015000000D03*
D19*
X0013500000Y0015250000D03*
D19*
X0013500000Y0015500000D03*
D19*
X0013500000Y0015750000D03*
D19*
X0013500000Y0016000000D03*
D19*
X0013500000Y0016250000D03*
D19*
X0013500000Y0016500000D03*
D19*
X0013500000Y0016750000D03*
D19*
X0013500000Y0017000000D03*
D19*
X0013500000Y0017250000D03*
D19*
X0013500000Y0017500000D03*
D19*
X0013500000Y0017750000D03*
D19*
X0013500000Y0018000000D03*
D19*
X0013500000Y0018250000D03*
D19*
X0013500000Y0018500000D03*
D19*
X0013500000Y0018750000D03*
D19*
X0013500000Y0019000000D03*
D19*
X0013500000Y0019250000D03*
D19*
X0013500000Y0019500000D03*
D19*
X0013500000Y0019750000D03*
D19*
X0013750000Y0011500000D03*
D19*
X0013750000Y0011750000D03*
D19*
X0013750000Y0012000000D03*
D19*
X0013750000Y0012250000D03*
D19*
X0013750000Y0012500000D03*
D19*
X0013750000Y0012750000D03*
D19*
X0013750000Y0013000000D03*
D19*
X0013750000Y0013250000D03*
D19*
X0013750000Y0013500000D03*
D19*
X0013750000Y0013750000D03*
D19*
X0013750000Y0014000000D03*
D19*
X0013750000Y0014250000D03*
D19*
X0013750000Y0014500000D03*
D19*
X0013750000Y0014750000D03*
D19*
X0013750000Y0015000000D03*
D19*
X0013750000Y0015250000D03*
D19*
X0013750000Y0015500000D03*
D19*
X0013750000Y0015750000D03*
D19*
X0013750000Y0016000000D03*
D19*
X0013750000Y0016250000D03*
D19*
X0013750000Y0016500000D03*
D19*
X0013750000Y0016750000D03*
D19*
X0013750000Y0017000000D03*
D19*
X0013750000Y0017250000D03*
D19*
X0013750000Y0017500000D03*
D19*
X0013750000Y0017750000D03*
D19*
X0013750000Y0018000000D03*
D19*
X0013750000Y0018250000D03*
D19*
X0013750000Y0018500000D03*
D19*
X0013750000Y0018750000D03*
D19*
X0013750000Y0019000000D03*
D19*
X0013750000Y0019250000D03*
D19*
X0013750000Y0019500000D03*
D19*
X0013750000Y0019750000D03*
D19*
X0014000000Y0011500000D03*
D19*
X0014000000Y0011750000D03*
D19*
X0014000000Y0012000000D03*
D19*
X0014000000Y0012250000D03*
D19*
X0014000000Y0012500000D03*
D19*
X0014000000Y0012750000D03*
D19*
X0014000000Y0013000000D03*
D19*
X0014000000Y0013250000D03*
D19*
X0014000000Y0013500000D03*
D19*
X0014000000Y0013750000D03*
D19*
X0014000000Y0014000000D03*
D19*
X0014000000Y0014250000D03*
D19*
X0014000000Y0014500000D03*
D19*
X0014000000Y0014750000D03*
D19*
X0014000000Y0015000000D03*
D19*
X0014000000Y0015250000D03*
D19*
X0014000000Y0015500000D03*
D19*
X0014000000Y0015750000D03*
D19*
X0014000000Y0016000000D03*
D19*
X0014000000Y0016250000D03*
D19*
X0014000000Y0016500000D03*
D19*
X0014000000Y0016750000D03*
D19*
X0014000000Y0017000000D03*
D19*
X0014000000Y0017250000D03*
D19*
X0014000000Y0017500000D03*
D19*
X0014000000Y0017750000D03*
D19*
X0014000000Y0018000000D03*
D19*
X0014000000Y0018250000D03*
D19*
X0014000000Y0018500000D03*
D19*
X0014000000Y0018750000D03*
D19*
X0014000000Y0019000000D03*
D19*
X0014000000Y0019250000D03*
D19*
X0014000000Y0019500000D03*
D19*
X0014000000Y0019750000D03*
D19*
X0014250000Y0011500000D03*
D19*
X0014250000Y0011750000D03*
D19*
X0014250000Y0012000000D03*
D19*
X0014250000Y0012250000D03*
D19*
X0014250000Y0012500000D03*
D19*
X0014250000Y0012750000D03*
D19*
X0014250000Y0013000000D03*
D19*
X0014250000Y0013250000D03*
D19*
X0014250000Y0013500000D03*
D19*
X0014250000Y0013750000D03*
D19*
X0014250000Y0014000000D03*
D19*
X0014250000Y0014250000D03*
D19*
X0014250000Y0014500000D03*
D19*
X0014250000Y0014750000D03*
D19*
X0014250000Y0015000000D03*
D19*
X0014250000Y0015250000D03*
D19*
X0014250000Y0015500000D03*
D19*
X0014250000Y0015750000D03*
D19*
X0014250000Y0016000000D03*
D19*
X0014250000Y0016250000D03*
D19*
X0014250000Y0016500000D03*
D19*
X0014250000Y0016750000D03*
D19*
X0014250000Y0017000000D03*
D19*
X0014250000Y0017250000D03*
D19*
X0014250000Y0017500000D03*
D19*
X0014250000Y0017750000D03*
D19*
X0014250000Y0018000000D03*
D19*
X0014250000Y0018250000D03*
D19*
X0014250000Y0018500000D03*
D19*
X0014250000Y0018750000D03*
D19*
X0014250000Y0019000000D03*
D19*
X0014250000Y0019250000D03*
D19*
X0014250000Y0019500000D03*
D19*
X0014250000Y0019750000D03*
D19*
X0014500000Y0011500000D03*
D19*
X0014500000Y0011750000D03*
D19*
X0014500000Y0012000000D03*
D19*
X0014500000Y0012250000D03*
D19*
X0014500000Y0012500000D03*
D19*
X0014500000Y0012750000D03*
D19*
X0014500000Y0013000000D03*
D19*
X0014500000Y0013250000D03*
D19*
X0014500000Y0013500000D03*
D19*
X0014500000Y0013750000D03*
D19*
X0014500000Y0014000000D03*
D19*
X0014500000Y0014250000D03*
D19*
X0014500000Y0014500000D03*
D19*
X0014500000Y0014750000D03*
D19*
X0014500000Y0015000000D03*
D19*
X0014500000Y0015250000D03*
D19*
X0014500000Y0015500000D03*
D19*
X0014500000Y0015750000D03*
D19*
X0014500000Y0016000000D03*
D19*
X0014500000Y0016250000D03*
D19*
X0014500000Y0016500000D03*
D19*
X0014500000Y0016750000D03*
D19*
X0014500000Y0017000000D03*
D19*
X0014500000Y0017250000D03*
D19*
X0014500000Y0017500000D03*
D19*
X0014500000Y0017750000D03*
D19*
X0014500000Y0018000000D03*
D19*
X0014500000Y0018250000D03*
D19*
X0014500000Y0018500000D03*
D19*
X0014500000Y0018750000D03*
D19*
X0014500000Y0019000000D03*
D19*
X0014500000Y0019250000D03*
D19*
X0014500000Y0019500000D03*
D19*
X0014500000Y0019750000D03*
D19*
X0014750000Y0011500000D03*
D19*
X0014750000Y0011750000D03*
D19*
X0014750000Y0012000000D03*
D19*
X0014750000Y0012250000D03*
D19*
X0014750000Y0012500000D03*
D19*
X0014750000Y0012750000D03*
D19*
X0014750000Y0013000000D03*
D19*
X0014750000Y0013250000D03*
D19*
X0014750000Y0013500000D03*
D19*
X0014750000Y0013750000D03*
D19*
X0014750000Y0014000000D03*
D19*
X0014750000Y0014250000D03*
D19*
X0014750000Y0014500000D03*
D19*
X0014750000Y0014750000D03*
D19*
X0014750000Y0015000000D03*
D19*
X0014750000Y0015250000D03*
D19*
X0014750000Y0015500000D03*
D19*
X0014750000Y0015750000D03*
D19*
X0014750000Y0016000000D03*
D19*
X0014750000Y0016250000D03*
D19*
X0014750000Y0016500000D03*
D19*
X0014750000Y0016750000D03*
D19*
X0014750000Y0017000000D03*
D19*
X0014750000Y0017250000D03*
D19*
X0014750000Y0017500000D03*
D19*
X0014750000Y0017750000D03*
D19*
X0014750000Y0018000000D03*
D19*
X0014750000Y0018250000D03*
D19*
X0014750000Y0018500000D03*
D19*
X0014750000Y0018750000D03*
D19*
X0014750000Y0019000000D03*
D19*
X0014750000Y0019250000D03*
D19*
X0014750000Y0019500000D03*
D19*
X0014750000Y0019750000D03*
D19*
X0015000000Y0011500000D03*
D19*
X0015000000Y0011750000D03*
D19*
X0015000000Y0012000000D03*
D19*
X0015000000Y0012250000D03*
D19*
X0015000000Y0012500000D03*
D19*
X0015000000Y0012750000D03*
D19*
X0015000000Y0013000000D03*
D19*
X0015000000Y0013250000D03*
D19*
X0015000000Y0013500000D03*
D19*
X0015000000Y0013750000D03*
D19*
X0015000000Y0014000000D03*
D19*
X0015000000Y0014250000D03*
D19*
X0015000000Y0014500000D03*
D19*
X0015000000Y0014750000D03*
D19*
X0015000000Y0015000000D03*
D19*
X0015000000Y0015250000D03*
D19*
X0015000000Y0015500000D03*
D19*
X0015000000Y0015750000D03*
D19*
X0015000000Y0016000000D03*
D19*
X0015000000Y0016250000D03*
D19*
X0015000000Y0016500000D03*
D19*
X0015000000Y0016750000D03*
D19*
X0015000000Y0017000000D03*
D19*
X0015000000Y0017250000D03*
D19*
X0015000000Y0017500000D03*
D19*
X0015000000Y0017750000D03*
D19*
X0015000000Y0018000000D03*
D19*
X0015000000Y0018250000D03*
D19*
X0015000000Y0018500000D03*
D19*
X0015000000Y0018750000D03*
D19*
X0015000000Y0019000000D03*
D19*
X0015000000Y0019250000D03*
D19*
X0015000000Y0019500000D03*
D19*
X0015000000Y0019750000D03*
D19*
X0015250000Y0011500000D03*
D19*
X0015250000Y0011750000D03*
D19*
X0015250000Y0012000000D03*
D19*
X0015250000Y0012250000D03*
D19*
X0015250000Y0012500000D03*
D19*
X0015250000Y0012750000D03*
D19*
X0015250000Y0013000000D03*
D19*
X0015250000Y0013250000D03*
D19*
X0015250000Y0013500000D03*
D19*
X0015250000Y0013750000D03*
D19*
X0015250000Y0014000000D03*
D19*
X0015250000Y0014250000D03*
D19*
X0015250000Y0014500000D03*
D19*
X0015250000Y0014750000D03*
D19*
X0015250000Y0015000000D03*
D19*
X0015250000Y0015250000D03*
D19*
X0015250000Y0015500000D03*
D19*
X0015250000Y0015750000D03*
D19*
X0015250000Y0016000000D03*
D19*
X0015250000Y0016250000D03*
D19*
X0015250000Y0016500000D03*
D19*
X0015250000Y0016750000D03*
D19*
X0015250000Y0017000000D03*
D19*
X0015250000Y0017250000D03*
D19*
X0015250000Y0017500000D03*
D19*
X0015250000Y0017750000D03*
D19*
X0015250000Y0018000000D03*
D19*
X0015250000Y0018250000D03*
D19*
X0015250000Y0018500000D03*
D19*
X0015250000Y0018750000D03*
D19*
X0015250000Y0019000000D03*
D19*
X0015250000Y0019250000D03*
D19*
X0015250000Y0019500000D03*
D19*
X0015250000Y0019750000D03*
D19*
X0015500000Y0011500000D03*
D19*
X0015500000Y0011750000D03*
D19*
X0015500000Y0012000000D03*
D19*
X0015500000Y0012250000D03*
D19*
X0015500000Y0012500000D03*
D19*
X0015500000Y0012750000D03*
D19*
X0015500000Y0013000000D03*
D19*
X0015500000Y0013250000D03*
D19*
X0015500000Y0013500000D03*
D19*
X0015500000Y0013750000D03*
D19*
X0015500000Y0014000000D03*
D19*
X0015500000Y0014250000D03*
D19*
X0015500000Y0014500000D03*
D19*
X0015500000Y0014750000D03*
D19*
X0015500000Y0015000000D03*
D19*
X0015500000Y0015250000D03*
D19*
X0015500000Y0015500000D03*
D19*
X0015500000Y0015750000D03*
D19*
X0015500000Y0016000000D03*
D19*
X0015500000Y0016250000D03*
D19*
X0015500000Y0016500000D03*
D19*
X0015500000Y0016750000D03*
D19*
X0015500000Y0017000000D03*
D19*
X0015500000Y0017250000D03*
D19*
X0015500000Y0017500000D03*
D19*
X0015500000Y0017750000D03*
D19*
X0015500000Y0018000000D03*
D19*
X0015500000Y0018250000D03*
D19*
X0015500000Y0018500000D03*
D19*
X0015500000Y0018750000D03*
D19*
X0015500000Y0019000000D03*
D19*
X0015500000Y0019250000D03*
D19*
X0015500000Y0019500000D03*
D19*
X0015500000Y0019750000D03*
D19*
X0015750000Y0011500000D03*
D19*
X0015750000Y0011750000D03*
D19*
X0015750000Y0012000000D03*
D19*
X0015750000Y0012250000D03*
D19*
X0015750000Y0012500000D03*
D19*
X0015750000Y0012750000D03*
D19*
X0015750000Y0013000000D03*
D19*
X0015750000Y0013250000D03*
D19*
X0015750000Y0013500000D03*
D19*
X0015750000Y0013750000D03*
D19*
X0015750000Y0014000000D03*
D19*
X0015750000Y0014250000D03*
D19*
X0015750000Y0014500000D03*
D19*
X0015750000Y0014750000D03*
D19*
X0015750000Y0015000000D03*
D19*
X0015750000Y0015250000D03*
D19*
X0015750000Y0015500000D03*
D19*
X0015750000Y0015750000D03*
D19*
X0015750000Y0016000000D03*
D19*
X0015750000Y0016250000D03*
D19*
X0015750000Y0016500000D03*
D19*
X0015750000Y0016750000D03*
D19*
X0015750000Y0017000000D03*
D19*
X0015750000Y0017250000D03*
D19*
X0015750000Y0017500000D03*
D19*
X0015750000Y0017750000D03*
D19*
X0015750000Y0018000000D03*
D19*
X0015750000Y0018250000D03*
D19*
X0015750000Y0018500000D03*
D19*
X0015750000Y0018750000D03*
D19*
X0015750000Y0019000000D03*
D19*
X0015750000Y0019250000D03*
D19*
X0015750000Y0019500000D03*
D19*
X0015750000Y0019750000D03*
D19*
X0016000000Y0011500000D03*
D19*
X0016000000Y0011750000D03*
D19*
X0016000000Y0012000000D03*
D19*
X0016000000Y0012250000D03*
D19*
X0016000000Y0012500000D03*
D19*
X0016000000Y0012750000D03*
D19*
X0016000000Y0013000000D03*
D19*
X0016000000Y0013250000D03*
D19*
X0016000000Y0013500000D03*
D19*
X0016000000Y0013750000D03*
D19*
X0016000000Y0014000000D03*
D19*
X0016000000Y0014250000D03*
D19*
X0016000000Y0014500000D03*
D19*
X0016000000Y0014750000D03*
D19*
X0016000000Y0015000000D03*
D19*
X0016000000Y0015250000D03*
D19*
X0016000000Y0015500000D03*
D19*
X0016000000Y0015750000D03*
D19*
X0016000000Y0016000000D03*
D19*
X0016000000Y0016250000D03*
D19*
X0016000000Y0016500000D03*
D19*
X0016000000Y0016750000D03*
D19*
X0016000000Y0017000000D03*
D19*
X0016000000Y0017250000D03*
D19*
X0016000000Y0017500000D03*
D19*
X0016000000Y0017750000D03*
D19*
X0016000000Y0018000000D03*
D19*
X0016000000Y0018250000D03*
D19*
X0016000000Y0018500000D03*
D19*
X0016000000Y0018750000D03*
D19*
X0016000000Y0019000000D03*
D19*
X0016000000Y0019250000D03*
D19*
X0016000000Y0019500000D03*
D19*
X0016000000Y0019750000D03*
D19*
X0016250000Y0011500000D03*
D19*
X0016250000Y0011750000D03*
D19*
X0016250000Y0012000000D03*
D19*
X0016250000Y0012250000D03*
D19*
X0016250000Y0012500000D03*
D19*
X0016250000Y0012750000D03*
D19*
X0016250000Y0013000000D03*
D19*
X0016250000Y0013250000D03*
D19*
X0016250000Y0013500000D03*
D19*
X0016250000Y0013750000D03*
D19*
X0016250000Y0014000000D03*
D19*
X0016250000Y0014250000D03*
D19*
X0016250000Y0014500000D03*
D19*
X0016250000Y0014750000D03*
D19*
X0016250000Y0015000000D03*
D19*
X0016250000Y0015250000D03*
D19*
X0016250000Y0015500000D03*
D19*
X0016250000Y0015750000D03*
D19*
X0016250000Y0016000000D03*
D19*
X0016250000Y0016250000D03*
D19*
X0016250000Y0016500000D03*
D19*
X0016250000Y0016750000D03*
D19*
X0016250000Y0017000000D03*
D19*
X0016250000Y0017250000D03*
D19*
X0016250000Y0017500000D03*
D19*
X0016250000Y0017750000D03*
D19*
X0016250000Y0018000000D03*
D19*
X0016250000Y0018250000D03*
D19*
X0016250000Y0018500000D03*
D19*
X0016250000Y0018750000D03*
D19*
X0016250000Y0019000000D03*
D19*
X0016250000Y0019250000D03*
D19*
X0016250000Y0019500000D03*
D19*
X0016250000Y0019750000D03*
D19*
X0016500000Y0011500000D03*
D19*
X0016500000Y0011750000D03*
D19*
X0016500000Y0012000000D03*
D19*
X0016500000Y0012250000D03*
D19*
X0016500000Y0012500000D03*
D19*
X0016500000Y0012750000D03*
D19*
X0016500000Y0013000000D03*
D19*
X0016500000Y0013250000D03*
D19*
X0016500000Y0013500000D03*
D19*
X0016500000Y0013750000D03*
D19*
X0016500000Y0014000000D03*
D19*
X0016500000Y0014250000D03*
D19*
X0016500000Y0014500000D03*
D19*
X0016500000Y0014750000D03*
D19*
X0016500000Y0015000000D03*
D19*
X0016500000Y0015250000D03*
D19*
X0016500000Y0015500000D03*
D19*
X0016500000Y0015750000D03*
D19*
X0016500000Y0016000000D03*
D19*
X0016500000Y0016250000D03*
D19*
X0016500000Y0016500000D03*
D19*
X0016500000Y0016750000D03*
D19*
X0016500000Y0017000000D03*
D19*
X0016500000Y0017250000D03*
D19*
X0016500000Y0017500000D03*
D19*
X0016500000Y0017750000D03*
D19*
X0016500000Y0018000000D03*
D19*
X0016500000Y0018250000D03*
D19*
X0016500000Y0018500000D03*
D19*
X0016500000Y0018750000D03*
D19*
X0016500000Y0019000000D03*
D19*
X0016500000Y0019250000D03*
D19*
X0016500000Y0019500000D03*
D19*
X0016500000Y0019750000D03*
D19*
X0016750000Y0011500000D03*
D19*
X0016750000Y0011750000D03*
D19*
X0016750000Y0012000000D03*
D19*
X0016750000Y0012250000D03*
D19*
X0016750000Y0012500000D03*
D19*
X0016750000Y0012750000D03*
D19*
X0016750000Y0013000000D03*
D19*
X0016750000Y0013250000D03*
D19*
X0016750000Y0013500000D03*
D19*
X0016750000Y0013750000D03*
D19*
X0016750000Y0014000000D03*
D19*
X0016750000Y0014250000D03*
D19*
X0016750000Y0014500000D03*
D19*
X0016750000Y0014750000D03*
D19*
X0016750000Y0015000000D03*
D19*
X0016750000Y0015250000D03*
D19*
X0016750000Y0015500000D03*
D19*
X0016750000Y0015750000D03*
D19*
X0016750000Y0016000000D03*
D19*
X0016750000Y0016250000D03*
D19*
X0016750000Y0016500000D03*
D19*
X0016750000Y0016750000D03*
D19*
X0016750000Y0017000000D03*
D19*
X0016750000Y0017250000D03*
D19*
X0016750000Y0017500000D03*
D19*
X0016750000Y0017750000D03*
D19*
X0016750000Y0018000000D03*
D19*
X0016750000Y0018250000D03*
D19*
X0016750000Y0018500000D03*
D19*
X0016750000Y0018750000D03*
D19*
X0016750000Y0019000000D03*
D19*
X0016750000Y0019250000D03*
D19*
X0016750000Y0019500000D03*
D19*
X0016750000Y0019750000D03*
D19*
X0017000000Y0011500000D03*
D19*
X0017000000Y0011750000D03*
D19*
X0017000000Y0012000000D03*
D19*
X0017000000Y0012250000D03*
D19*
X0017000000Y0012500000D03*
D19*
X0017000000Y0012750000D03*
D19*
X0017000000Y0013000000D03*
D19*
X0017000000Y0013250000D03*
D19*
X0017000000Y0013500000D03*
D19*
X0017000000Y0013750000D03*
D19*
X0017000000Y0014000000D03*
D19*
X0017000000Y0014250000D03*
D19*
X0017000000Y0014500000D03*
D19*
X0017000000Y0014750000D03*
D19*
X0017000000Y0015000000D03*
D19*
X0017000000Y0015250000D03*
D19*
X0017000000Y0015500000D03*
D19*
X0017000000Y0015750000D03*
D19*
X0017000000Y0016000000D03*
D19*
X0017000000Y0016250000D03*
D19*
X0017000000Y0016500000D03*
D19*
X0017000000Y0016750000D03*
D19*
X0017000000Y0017000000D03*
D19*
X0017000000Y0017250000D03*
D19*
X0017000000Y0017500000D03*
D19*
X0017000000Y0017750000D03*
D19*
X0017000000Y0018000000D03*
D19*
X0017000000Y0018250000D03*
D19*
X0017000000Y0018500000D03*
D19*
X0017000000Y0018750000D03*
D19*
X0017000000Y0019000000D03*
D19*
X0017000000Y0019250000D03*
D19*
X0017000000Y0019500000D03*
D19*
X0017000000Y0019750000D03*
D19*
X0017250000Y0011500000D03*
D19*
X0017250000Y0011750000D03*
D19*
X0017250000Y0012000000D03*
D19*
X0017250000Y0012250000D03*
D19*
X0017250000Y0012500000D03*
D19*
X0017250000Y0012750000D03*
D19*
X0017250000Y0013000000D03*
D19*
X0017250000Y0013250000D03*
D19*
X0017250000Y0013500000D03*
D19*
X0017250000Y0013750000D03*
D19*
X0017250000Y0014000000D03*
D19*
X0017250000Y0014250000D03*
D19*
X0017250000Y0014500000D03*
D19*
X0017250000Y0014750000D03*
D19*
X0017250000Y0015000000D03*
D19*
X0017250000Y0015250000D03*
D19*
X0017250000Y0015500000D03*
D19*
X0017250000Y0015750000D03*
D19*
X0017250000Y0016000000D03*
D19*
X0017250000Y0016250000D03*
D19*
X0017250000Y0016500000D03*
D19*
X0017250000Y0016750000D03*
D19*
X0017250000Y0017000000D03*
D19*
X0017250000Y0017250000D03*
D19*
X0017250000Y0017500000D03*
D19*
X0017250000Y0017750000D03*
D19*
X0017250000Y0018000000D03*
D19*
X0017250000Y0018250000D03*
D19*
X0017250000Y0018500000D03*
D19*
X0017250000Y0018750000D03*
D19*
X0017250000Y0019000000D03*
D19*
X0017250000Y0019250000D03*
D19*
X0017250000Y0019500000D03*
D19*
X0017250000Y0019750000D03*
D19*
X0017500000Y0011500000D03*
D19*
X0017500000Y0011750000D03*
D19*
X0017500000Y0012000000D03*
D19*
X0017500000Y0012250000D03*
D19*
X0017500000Y0012500000D03*
D19*
X0017500000Y0012750000D03*
D19*
X0017500000Y0013000000D03*
D19*
X0017500000Y0013250000D03*
D19*
X0017500000Y0013500000D03*
D19*
X0017500000Y0013750000D03*
D19*
X0017500000Y0014000000D03*
D19*
X0017500000Y0014250000D03*
D19*
X0017500000Y0014500000D03*
D19*
X0017500000Y0014750000D03*
D19*
X0017500000Y0015000000D03*
D19*
X0017500000Y0015250000D03*
D19*
X0017500000Y0015500000D03*
D19*
X0017500000Y0015750000D03*
D19*
X0017500000Y0016000000D03*
D19*
X0017500000Y0016250000D03*
D19*
X0017500000Y0016500000D03*
D19*
X0017500000Y0016750000D03*
D19*
X0017500000Y0017000000D03*
D19*
X0017500000Y0017250000D03*
D19*
X0017500000Y0017500000D03*
D19*
X0017500000Y0017750000D03*
D19*
X0017500000Y0018000000D03*
D19*
X0017500000Y0018250000D03*
D19*
X0017500000Y0018500000D03*
D19*
X0017500000Y0018750000D03*
D19*
X0017500000Y0019000000D03*
D19*
X0017500000Y0019250000D03*
D19*
X0017500000Y0019500000D03*
D19*
X0017500000Y0019750000D03*
D19*
X0017750000Y0011500000D03*
D19*
X0017750000Y0011750000D03*
D19*
X0017750000Y0012000000D03*
D19*
X0017750000Y0012250000D03*
D19*
X0017750000Y0012500000D03*
D19*
X0017750000Y0012750000D03*
D19*
X0017750000Y0013000000D03*
D19*
X0017750000Y0013250000D03*
D19*
X0017750000Y0013500000D03*
D19*
X0017750000Y0013750000D03*
D19*
X0017750000Y0014000000D03*
D19*
X0017750000Y0014250000D03*
D19*
X0017750000Y0014500000D03*
D19*
X0017750000Y0014750000D03*
D19*
X0017750000Y0015000000D03*
D19*
X0017750000Y0015250000D03*
D19*
X0017750000Y0015500000D03*
D19*
X0017750000Y0015750000D03*
D19*
X0017750000Y0016000000D03*
D19*
X0017750000Y0016250000D03*
D19*
X0017750000Y0016500000D03*
D19*
X0017750000Y0016750000D03*
D19*
X0017750000Y0017000000D03*
D19*
X0017750000Y0017250000D03*
D19*
X0017750000Y0017500000D03*
D19*
X0017750000Y0017750000D03*
D19*
X0017750000Y0018000000D03*
D19*
X0017750000Y0018250000D03*
D19*
X0017750000Y0018500000D03*
D19*
X0017750000Y0018750000D03*
D19*
X0017750000Y0019000000D03*
D19*
X0017750000Y0019250000D03*
D19*
X0017750000Y0019500000D03*
D19*
X0017750000Y0019750000D03*
D19*
X0018000000Y0011500000D03*
D19*
X0018000000Y0011750000D03*
D19*
X0018000000Y0012000000D03*
D19*
X0018000000Y0012250000D03*
D19*
X0018000000Y0012500000D03*
D19*
X0018000000Y0012750000D03*
D19*
X0018000000Y0013000000D03*
D19*
X0018000000Y0013250000D03*
D19*
X0018000000Y0013500000D03*
D19*
X0018000000Y0013750000D03*
D19*
X0018000000Y0014000000D03*
D19*
X0018000000Y0014250000D03*
D19*
X0018000000Y0014500000D03*
D19*
X0018000000Y0014750000D03*
D19*
X0018000000Y0015000000D03*
D19*
X0018000000Y0015250000D03*
D19*
X0018000000Y0015500000D03*
D19*
X0018000000Y0015750000D03*
D19*
X0018000000Y0016000000D03*
D19*
X0018000000Y0016250000D03*
D19*
X0018000000Y0016500000D03*
D19*
X0018000000Y0016750000D03*
D19*
X0018000000Y0017000000D03*
D19*
X0018000000Y0017250000D03*
D19*
X0018000000Y0017500000D03*
D19*
X0018000000Y0017750000D03*
D19*
X0018000000Y0018000000D03*
D19*
X0018000000Y0018250000D03*
D19*
X0018000000Y0018500000D03*
D19*
X0018000000Y0018750000D03*
D19*
X0018000000Y0019000000D03*
D19*
X0018000000Y0019250000D03*
D19*
X0018000000Y0019500000D03*
D19*
X0018000000Y0019750000D03*
D19*
X0018250000Y0011500000D03*
D19*
X0018250000Y0011750000D03*
D19*
X0018250000Y0012000000D03*
D19*
X0018250000Y0012250000D03*
D19*
X0018250000Y0012500000D03*
D19*
X0018250000Y0012750000D03*
D19*
X0018250000Y0013000000D03*
D19*
X0018250000Y0013250000D03*
D19*
X0018250000Y0013500000D03*
D19*
X0018250000Y0013750000D03*
D19*
X0018250000Y0014000000D03*
D19*
X0018250000Y0014250000D03*
D19*
X0018250000Y0014500000D03*
D19*
X0018250000Y0014750000D03*
D19*
X0018250000Y0015000000D03*
D19*
X0018250000Y0015250000D03*
D19*
X0018250000Y0015500000D03*
D19*
X0018250000Y0015750000D03*
D19*
X0018250000Y0016000000D03*
D19*
X0018250000Y0016250000D03*
D19*
X0018250000Y0016500000D03*
D19*
X0018250000Y0016750000D03*
D19*
X0018250000Y0017000000D03*
D19*
X0018250000Y0017250000D03*
D19*
X0018250000Y0017500000D03*
D19*
X0018250000Y0017750000D03*
D19*
X0018250000Y0018000000D03*
D19*
X0018250000Y0018250000D03*
D19*
X0018250000Y0018500000D03*
D19*
X0018250000Y0018750000D03*
D19*
X0018250000Y0019000000D03*
D19*
X0018250000Y0019250000D03*
D19*
X0018250000Y0019500000D03*
D19*
X0018250000Y0019750000D03*
D19*
X0018500000Y0011500000D03*
D19*
X0018500000Y0011750000D03*
D19*
X0018500000Y0012000000D03*
D19*
X0018500000Y0012250000D03*
D19*
X0018500000Y0012500000D03*
D19*
X0018500000Y0012750000D03*
D19*
X0018500000Y0013000000D03*
D19*
X0018500000Y0013250000D03*
D19*
X0018500000Y0013500000D03*
D19*
X0018500000Y0013750000D03*
D19*
X0018500000Y0014000000D03*
D19*
X0018500000Y0014250000D03*
D19*
X0018500000Y0014500000D03*
D19*
X0018500000Y0014750000D03*
D19*
X0018500000Y0015000000D03*
D19*
X0018500000Y0015250000D03*
D19*
X0018500000Y0015500000D03*
D19*
X0018500000Y0015750000D03*
D19*
X0018500000Y0016000000D03*
D19*
X0018500000Y0016250000D03*
D19*
X0018500000Y0016500000D03*
D19*
X0018500000Y0016750000D03*
D19*
X0018500000Y0017000000D03*
D19*
X0018500000Y0017250000D03*
D19*
X0018500000Y0017500000D03*
D19*
X0018500000Y0017750000D03*
D19*
X0018500000Y0018000000D03*
D19*
X0018500000Y0018250000D03*
D19*
X0018500000Y0018500000D03*
D19*
X0018500000Y0018750000D03*
D19*
X0018500000Y0019000000D03*
D19*
X0018500000Y0019250000D03*
D19*
X0018500000Y0019500000D03*
D19*
X0018500000Y0019750000D03*
D19*
X0018750000Y0011500000D03*
D19*
X0018750000Y0011750000D03*
D19*
X0018750000Y0012000000D03*
D19*
X0018750000Y0012250000D03*
D19*
X0018750000Y0012500000D03*
D19*
X0018750000Y0012750000D03*
D19*
X0018750000Y0013000000D03*
D19*
X0018750000Y0013250000D03*
D19*
X0018750000Y0013500000D03*
D19*
X0018750000Y0013750000D03*
D19*
X0018750000Y0014000000D03*
D19*
X0018750000Y0014250000D03*
D19*
X0018750000Y0014500000D03*
D19*
X0018750000Y0014750000D03*
D19*
X0018750000Y0015000000D03*
D19*
X0018750000Y0015250000D03*
D19*
X0018750000Y0015500000D03*
D19*
X0018750000Y0015750000D03*
D19*
X0018750000Y0016000000D03*
D19*
X0018750000Y0016250000D03*
D19*
X0018750000Y0016500000D03*
D19*
X0018750000Y0016750000D03*
D19*
X0018750000Y0017000000D03*
D19*
X0018750000Y0017250000D03*
D19*
X0018750000Y0017500000D03*
D19*
X0018750000Y0017750000D03*
D19*
X0018750000Y0018000000D03*
D19*
X0018750000Y0018250000D03*
D19*
X0018750000Y0018500000D03*
D19*
X0018750000Y0018750000D03*
D19*
X0018750000Y0019000000D03*
D19*
X0018750000Y0019250000D03*
D19*
X0018750000Y0019500000D03*
D19*
X0018750000Y0019750000D03*
D19*
X0019000000Y0011500000D03*
D19*
X0019000000Y0011750000D03*
D19*
X0019000000Y0012000000D03*
D19*
X0019000000Y0012250000D03*
D19*
X0019000000Y0012500000D03*
D19*
X0019000000Y0012750000D03*
D19*
X0019000000Y0013000000D03*
D19*
X0019000000Y0013250000D03*
D19*
X0019000000Y0013500000D03*
D19*
X0019000000Y0013750000D03*
D19*
X0019000000Y0014000000D03*
D19*
X0019000000Y0014250000D03*
D19*
X0019000000Y0014500000D03*
D19*
X0019000000Y0014750000D03*
D19*
X0019000000Y0015000000D03*
D19*
X0019000000Y0015250000D03*
D19*
X0019000000Y0015500000D03*
D19*
X0019000000Y0015750000D03*
D19*
X0019000000Y0016000000D03*
D19*
X0019000000Y0016250000D03*
D19*
X0019000000Y0016500000D03*
D19*
X0019000000Y0016750000D03*
D19*
X0019000000Y0017000000D03*
D19*
X0019000000Y0017250000D03*
D19*
X0019000000Y0017500000D03*
D19*
X0019000000Y0017750000D03*
D19*
X0019000000Y0018000000D03*
D19*
X0019000000Y0018250000D03*
D19*
X0019000000Y0018500000D03*
D19*
X0019000000Y0018750000D03*
D19*
X0019000000Y0019000000D03*
D19*
X0019000000Y0019250000D03*
D19*
X0019000000Y0019500000D03*
D19*
X0019000000Y0019750000D03*
D19*
X0019250000Y0011500000D03*
D19*
X0019250000Y0011750000D03*
D19*
X0019250000Y0012000000D03*
D19*
X0019250000Y0012250000D03*
D19*
X0019250000Y0012500000D03*
D19*
X0019250000Y0012750000D03*
D19*
X0019250000Y0013000000D03*
D19*
X0019250000Y0013250000D03*
D19*
X0019250000Y0013500000D03*
D19*
X0019250000Y0013750000D03*
D19*
X0019250000Y0014000000D03*
D19*
X0019250000Y0014250000D03*
D19*
X0019250000Y0014500000D03*
D19*
X0019250000Y0014750000D03*
D19*
X0019250000Y0015000000D03*
D19*
X0019250000Y0015250000D03*
D19*
X0019250000Y0015500000D03*
D19*
X0019250000Y0015750000D03*
D19*
X0019250000Y0016000000D03*
D19*
X0019250000Y0016250000D03*
D19*
X0019250000Y0016500000D03*
D19*
X0019250000Y0016750000D03*
D19*
X0019250000Y0017000000D03*
D19*
X0019250000Y0017250000D03*
D19*
X0019250000Y0017500000D03*
D19*
X0019250000Y0017750000D03*
D19*
X0019250000Y0018000000D03*
D19*
X0019250000Y0018250000D03*
D19*
X0019250000Y0018500000D03*
D19*
X0019250000Y0018750000D03*
D19*
X0019250000Y0019000000D03*
D19*
X0019250000Y0019250000D03*
D19*
X0019250000Y0019500000D03*
D19*
X0019250000Y0019750000D03*
D19*
X0019500000Y0011500000D03*
D19*
X0019500000Y0011750000D03*
D19*
X0019500000Y0012000000D03*
D19*
X0019500000Y0012250000D03*
D19*
X0019500000Y0012500000D03*
D19*
X0019500000Y0012750000D03*
D19*
X0019500000Y0013000000D03*
D19*
X0019500000Y0013250000D03*
D19*
X0019500000Y0013500000D03*
D19*
X0019500000Y0013750000D03*
D19*
X0019500000Y0014000000D03*
D19*
X0019500000Y0014250000D03*
D19*
X0019500000Y0014500000D03*
D19*
X0019500000Y0014750000D03*
D19*
X0019500000Y0015000000D03*
D19*
X0019500000Y0015250000D03*
D19*
X0019500000Y0015500000D03*
D19*
X0019500000Y0015750000D03*
D19*
X0019500000Y0016000000D03*
D19*
X0019500000Y0016250000D03*
D19*
X0019500000Y0016500000D03*
D19*
X0019500000Y0016750000D03*
D19*
X0019500000Y0017000000D03*
D19*
X0019500000Y0017250000D03*
D19*
X0019500000Y0017500000D03*
D19*
X0019500000Y0017750000D03*
D19*
X0019500000Y0018000000D03*
D19*
X0019500000Y0018250000D03*
D19*
X0019500000Y0018500000D03*
D19*
X0019500000Y0018750000D03*
D19*
X0019500000Y0019000000D03*
D19*
X0019500000Y0019250000D03*
D19*
X0019500000Y0019500000D03*
D19*
X0019500000Y0019750000D03*
D19*
X0019750000Y0011500000D03*
D19*
X0019750000Y0011750000D03*
D19*
X0019750000Y0012000000D03*
D19*
X0019750000Y0012250000D03*
D19*
X0019750000Y0012500000D03*
D19*
X0019750000Y0012750000D03*
D19*
X0019750000Y0013000000D03*
D19*
X0019750000Y0013250000D03*
D19*
X0019750000Y0013500000D03*
D19*
X0019750000Y0013750000D03*
D19*
X0019750000Y0014000000D03*
D19*
X0019750000Y0014250000D03*
D19*
X0019750000Y0014500000D03*
D19*
X0019750000Y0014750000D03*
D19*
X0019750000Y0015000000D03*
D19*
X0019750000Y0015250000D03*
D19*
X0019750000Y0015500000D03*
D19*
X0019750000Y0015750000D03*
D19*
X0019750000Y0016000000D03*
D19*
X0019750000Y0016250000D03*
D19*
X0019750000Y0016500000D03*
D19*
X0019750000Y0016750000D03*
D19*
X0019750000Y0017000000D03*
D19*
X0019750000Y0017250000D03*
D19*
X0019750000Y0017500000D03*
D19*
X0019750000Y0017750000D03*
D19*
X0019750000Y0018000000D03*
D19*
X0019750000Y0018250000D03*
D19*
X0019750000Y0018500000D03*
D19*
X0019750000Y0018750000D03*
D19*
X0019750000Y0019000000D03*
D19*
X0019750000Y0019250000D03*
D19*
X0019750000Y0019500000D03*
D19*
X0019750000Y0019750000D03*
D19*
X0020000000Y0011500000D03*
D19*
X0020000000Y0011750000D03*
D19*
X0020000000Y0012000000D03*
D19*
X0020000000Y0012250000D03*
D19*
X0020000000Y0012500000D03*
D19*
X0020000000Y0012750000D03*
D19*
X0020000000Y0013000000D03*
D19*
X0020000000Y0013250000D03*
D19*
X0020000000Y0013500000D03*
D19*
X0020000000Y0013750000D03*
D19*
X0020000000Y0014000000D03*
D19*
X0020000000Y0014250000D03*
D19*
X0020000000Y0014500000D03*
D19*
X0020000000Y0014750000D03*
D19*
X0020000000Y0015000000D03*
D19*
X0020000000Y0015250000D03*
D19*
X0020000000Y0015500000D03*
D19*
X0020000000Y0015750000D03*
D19*
X0020000000Y0016000000D03*
D19*
X0020000000Y0016250000D03*
D19*
X0020000000Y0016500000D03*
D19*
X0020000000Y0016750000D03*
D19*
X0020000000Y0017000000D03*
D19*
X0020000000Y0017250000D03*
D19*
X0020000000Y0017500000D03*
D19*
X0020000000Y0017750000D03*
D19*
X0020000000Y0018000000D03*
D19*
X0020000000Y0018250000D03*
D19*
X0020000000Y0018500000D03*
D19*
X0020000000Y0018750000D03*
D19*
X0020000000Y0019000000D03*
D19*
X0020000000Y0019250000D03*
D19*
X0020000000Y0019500000D03*
D19*
X0020000000Y0019750000D03*
D19*
X0020250000Y0011500000D03*
D19*
X0020250000Y0011750000D03*
D19*
X0020250000Y0012000000D03*
D19*
X0020250000Y0012250000D03*
D19*
X0020250000Y0012500000D03*
D19*
X0020250000Y0012750000D03*
D19*
X0020250000Y0013000000D03*
D19*
X0020250000Y0013250000D03*
D19*
X0020250000Y0013500000D03*
D19*
X0020250000Y0013750000D03*
D19*
X0020250000Y0014000000D03*
D19*
X0020250000Y0014250000D03*
D19*
X0020250000Y0014500000D03*
D19*
X0020250000Y0014750000D03*
D19*
X0020250000Y0015000000D03*
D19*
X0020250000Y0015250000D03*
D19*
X0020250000Y0015500000D03*
D19*
X0020250000Y0015750000D03*
D19*
X0020250000Y0016000000D03*
D19*
X0020250000Y0016250000D03*
D19*
X0020250000Y0016500000D03*
D19*
X0020250000Y0016750000D03*
D19*
X0020250000Y0017000000D03*
D19*
X0020250000Y0017250000D03*
D19*
X0020250000Y0017500000D03*
D19*
X0020250000Y0017750000D03*
D19*
X0020250000Y0018000000D03*
D19*
X0020250000Y0018250000D03*
D19*
X0020250000Y0018500000D03*
D19*
X0020250000Y0018750000D03*
D19*
X0020250000Y0019000000D03*
D19*
X0020250000Y0019250000D03*
D19*
X0020250000Y0019500000D03*
D19*
X0020250000Y0019750000D03*
D19*
X0020500000Y0011500000D03*
D19*
X0020500000Y0011750000D03*
D19*
X0020500000Y0012000000D03*
D19*
X0020500000Y0012250000D03*
D19*
X0020500000Y0012500000D03*
D19*
X0020500000Y0012750000D03*
D19*
X0020500000Y0013000000D03*
D19*
X0020500000Y0013250000D03*
D19*
X0020500000Y0013500000D03*
D19*
X0020500000Y0013750000D03*
D19*
X0020500000Y0014000000D03*
D19*
X0020500000Y0014250000D03*
D19*
X0020500000Y0014500000D03*
D19*
X0020500000Y0014750000D03*
D19*
X0020500000Y0015000000D03*
D19*
X0020500000Y0015250000D03*
D19*
X0020500000Y0015500000D03*
D19*
X0020500000Y0015750000D03*
D19*
X0020500000Y0016000000D03*
D19*
X0020500000Y0016250000D03*
D19*
X0020500000Y0016500000D03*
D19*
X0020500000Y0016750000D03*
D19*
X0020500000Y0017000000D03*
D19*
X0020500000Y0017250000D03*
D19*
X0020500000Y0017500000D03*
D19*
X0020500000Y0017750000D03*
D19*
X0020500000Y0018000000D03*
D19*
X0020500000Y0018250000D03*
D19*
X0020500000Y0018500000D03*
D19*
X0020500000Y0018750000D03*
D19*
X0020500000Y0019000000D03*
D19*
X0020500000Y0019250000D03*
D19*
X0020500000Y0019500000D03*
D19*
X0020500000Y0019750000D03*
D19*
X0020750000Y0011500000D03*
D19*
X0020750000Y0011750000D03*
D19*
X0020750000Y0012000000D03*
D19*
X0020750000Y0012250000D03*
D19*
X0020750000Y0012500000D03*
D19*
X0020750000Y0012750000D03*
D19*
X0020750000Y0013000000D03*
D19*
X0020750000Y0013250000D03*
D19*
X0020750000Y0013500000D03*
D19*
X0020750000Y0013750000D03*
D19*
X0020750000Y0014000000D03*
D19*
X0020750000Y0014250000D03*
D19*
X0020750000Y0014500000D03*
D19*
X0020750000Y0014750000D03*
D19*
X0020750000Y0015000000D03*
D19*
X0020750000Y0015250000D03*
D19*
X0020750000Y0015500000D03*
D19*
X0020750000Y0015750000D03*
D19*
X0020750000Y0016000000D03*
D19*
X0020750000Y0016250000D03*
D19*
X0020750000Y0016500000D03*
D19*
X0020750000Y0016750000D03*
D19*
X0020750000Y0017000000D03*
D19*
X0020750000Y0017250000D03*
D19*
X0020750000Y0017500000D03*
D19*
X0020750000Y0017750000D03*
D19*
X0020750000Y0018000000D03*
D19*
X0020750000Y0018250000D03*
D19*
X0020750000Y0018500000D03*
D19*
X0020750000Y0018750000D03*
D19*
X0020750000Y0019000000D03*
D19*
X0020750000Y0019250000D03*
D19*
X0020750000Y0019500000D03*
D19*
X0020750000Y0019750000D03*
D19*
X0021000000Y0011500000D03*
D19*
X0021000000Y0011750000D03*
D19*
X0021000000Y0012000000D03*
D19*
X0021000000Y0012250000D03*
D19*
X0021000000Y0012500000D03*
D19*
X0021000000Y0012750000D03*
D19*
X0021000000Y0013000000D03*
D19*
X0021000000Y0013250000D03*
D19*
X0021000000Y0013500000D03*
D19*
X0021000000Y0013750000D03*
D19*
X0021000000Y0014000000D03*
D19*
X0021000000Y0014250000D03*
D19*
X0021000000Y0014500000D03*
D19*
X0021000000Y0014750000D03*
D19*
X0021000000Y0015000000D03*
D19*
X0021000000Y0015250000D03*
D19*
X0021000000Y0015500000D03*
D19*
X0021000000Y0015750000D03*
D19*
X0021000000Y0016000000D03*
D19*
X0021000000Y0016250000D03*
D19*
X0021000000Y0016500000D03*
D19*
X0021000000Y0016750000D03*
D19*
X0021000000Y0017000000D03*
D19*
X0021000000Y0017250000D03*
D19*
X0021000000Y0017500000D03*
D19*
X0021000000Y0017750000D03*
D19*
X0021000000Y0018000000D03*
D19*
X0021000000Y0018250000D03*
D19*
X0021000000Y0018500000D03*
D19*
X0021000000Y0018750000D03*
D19*
X0021000000Y0019000000D03*
D19*
X0021000000Y0019250000D03*
D19*
X0021000000Y0019500000D03*
D19*
X0021000000Y0019750000D03*
D19*
X0021250000Y0011500000D03*
D19*
X0021250000Y0011750000D03*
D19*
X0021250000Y0012000000D03*
D19*
X0021250000Y0012250000D03*
D19*
X0021250000Y0012500000D03*
D19*
X0021250000Y0012750000D03*
D19*
X0021250000Y0013000000D03*
D19*
X0021250000Y0013250000D03*
D19*
X0021250000Y0013500000D03*
D19*
X0021250000Y0013750000D03*
D19*
X0021250000Y0014000000D03*
D19*
X0021250000Y0014250000D03*
D19*
X0021250000Y0014500000D03*
D19*
X0021250000Y0014750000D03*
D19*
X0021250000Y0015000000D03*
D19*
X0021250000Y0015250000D03*
D19*
X0021250000Y0015500000D03*
D19*
X0021250000Y0015750000D03*
D19*
X0021250000Y0016000000D03*
D19*
X0021250000Y0016250000D03*
D19*
X0021250000Y0016500000D03*
D19*
X0021250000Y0016750000D03*
D19*
X0021250000Y0017000000D03*
D19*
X0021250000Y0017250000D03*
D19*
X0021250000Y0017500000D03*
D19*
X0021250000Y0017750000D03*
D19*
X0021250000Y0018000000D03*
D19*
X0021250000Y0018250000D03*
D19*
X0021250000Y0018500000D03*
D19*
X0021250000Y0018750000D03*
D19*
X0021250000Y0019000000D03*
D19*
X0021250000Y0019250000D03*
D19*
X0021250000Y0019500000D03*
D19*
X0021250000Y0019750000D03*
D19*
X0021500000Y0011500000D03*
D19*
X0021500000Y0011750000D03*
D19*
X0021500000Y0012000000D03*
D19*
X0021500000Y0012250000D03*
D19*
X0021500000Y0012500000D03*
D19*
X0021500000Y0012750000D03*
D19*
X0021500000Y0013000000D03*
D19*
X0021500000Y0013250000D03*
D19*
X0021500000Y0013500000D03*
D19*
X0021500000Y0013750000D03*
D19*
X0021500000Y0014000000D03*
D19*
X0021500000Y0014250000D03*
D19*
X0021500000Y0014500000D03*
D19*
X0021500000Y0014750000D03*
D19*
X0021500000Y0015000000D03*
D19*
X0021500000Y0015250000D03*
D19*
X0021500000Y0015500000D03*
D19*
X0021500000Y0015750000D03*
D19*
X0021500000Y0016000000D03*
D19*
X0021500000Y0016250000D03*
D19*
X0021500000Y0016500000D03*
D19*
X0021500000Y0016750000D03*
D19*
X0021500000Y0017000000D03*
D19*
X0021500000Y0017250000D03*
D19*
X0021500000Y0017500000D03*
D19*
X0021500000Y0017750000D03*
D19*
X0021500000Y0018000000D03*
D19*
X0021500000Y0018250000D03*
D19*
X0021500000Y0018500000D03*
D19*
X0021500000Y0018750000D03*
D19*
X0021500000Y0019000000D03*
D19*
X0021500000Y0019250000D03*
D19*
X0021500000Y0019500000D03*
D19*
X0021500000Y0019750000D03*
D19*
X0021750000Y0011500000D03*
D19*
X0021750000Y0011750000D03*
D19*
X0021750000Y0012000000D03*
D19*
X0021750000Y0012250000D03*
D19*
X0021750000Y0012500000D03*
D19*
X0021750000Y0012750000D03*
D19*
X0021750000Y0013000000D03*
D19*
X0021750000Y0013250000D03*
D19*
X0021750000Y0013500000D03*
D19*
X0021750000Y0013750000D03*
D19*
X0021750000Y0014000000D03*
D19*
X0021750000Y0014250000D03*
D19*
X0021750000Y0014500000D03*
D19*
X0021750000Y0014750000D03*
D19*
X0021750000Y0015000000D03*
D19*
X0021750000Y0015250000D03*
D19*
X0021750000Y0015500000D03*
D19*
X0021750000Y0015750000D03*
D19*
X0021750000Y0016000000D03*
D19*
X0021750000Y0016250000D03*
D19*
X0021750000Y0016500000D03*
D19*
X0021750000Y0016750000D03*
D19*
X0021750000Y0017000000D03*
D19*
X0021750000Y0017250000D03*
D19*
X0021750000Y0017500000D03*
D19*
X0021750000Y0017750000D03*
D19*
X0021750000Y0018000000D03*
D19*
X0021750000Y0018250000D03*
D19*
X0021750000Y0018500000D03*
D19*
X0021750000Y0018750000D03*
D19*
X0021750000Y0019000000D03*
D19*
X0021750000Y0019250000D03*
D19*
X0021750000Y0019500000D03*
D19*
X0021750000Y0019750000D03*
D19*
X0022000000Y0011500000D03*
D19*
X0022000000Y0011750000D03*
D19*
X0022000000Y0012000000D03*
D19*
X0022000000Y0012250000D03*
D19*
X0022000000Y0012500000D03*
D19*
X0022000000Y0012750000D03*
D19*
X0022000000Y0013000000D03*
D19*
X0022000000Y0013250000D03*
D19*
X0022000000Y0013500000D03*
D19*
X0022000000Y0013750000D03*
D19*
X0022000000Y0014000000D03*
D19*
X0022000000Y0014250000D03*
D19*
X0022000000Y0014500000D03*
D19*
X0022000000Y0014750000D03*
D19*
X0022000000Y0015000000D03*
D19*
X0022000000Y0015250000D03*
D19*
X0022000000Y0015500000D03*
D19*
X0022000000Y0015750000D03*
D19*
X0022000000Y0016000000D03*
D19*
X0022000000Y0016250000D03*
D19*
X0022000000Y0016500000D03*
D19*
X0022000000Y0016750000D03*
D19*
X0022000000Y0017000000D03*
D19*
X0022000000Y0017250000D03*
D19*
X0022000000Y0017500000D03*
D19*
X0022000000Y0017750000D03*
D19*
X0022000000Y0018000000D03*
D19*
X0022000000Y0018250000D03*
D19*
X0022000000Y0018500000D03*
D19*
X0022000000Y0018750000D03*
D19*
X0022000000Y0019000000D03*
D19*
X0022000000Y0019250000D03*
D19*
X0022000000Y0019500000D03*
D19*
X0022000000Y0019750000D03*
D19*
X0022250000Y0011500000D03*
D19*
X0022250000Y0011750000D03*
D19*
X0022250000Y0012000000D03*
D19*
X0022250000Y0012250000D03*
D19*
X0022250000Y0012500000D03*
D19*
X0022250000Y0012750000D03*
D19*
X0022250000Y0013000000D03*
D19*
X0022250000Y0013250000D03*
D19*
X0022250000Y0013500000D03*
D19*
X0022250000Y0013750000D03*
D19*
X0022250000Y0014000000D03*
D19*
X0022250000Y0014250000D03*
D19*
X0022250000Y0014500000D03*
D19*
X0022250000Y0014750000D03*
D19*
X0022250000Y0015000000D03*
D19*
X0022250000Y0015250000D03*
D19*
X0022250000Y0015500000D03*
D19*
X0022250000Y0015750000D03*
D19*
X0022250000Y0016000000D03*
D19*
X0022250000Y0016250000D03*
D19*
X0022250000Y0016500000D03*
D19*
X0022250000Y0016750000D03*
D19*
X0022250000Y0017000000D03*
D19*
X0022250000Y0017250000D03*
D19*
X0022250000Y0017500000D03*
D19*
X0022250000Y0017750000D03*
D19*
X0022250000Y0018000000D03*
D19*
X0022250000Y0018250000D03*
D19*
X0022250000Y0018500000D03*
D19*
X0022250000Y0018750000D03*
D19*
X0022250000Y0019000000D03*
D19*
X0022250000Y0019250000D03*
D19*
X0022250000Y0019500000D03*
D19*
X0022250000Y0019750000D03*
D19*
X0022500000Y0011500000D03*
D19*
X0022500000Y0011750000D03*
D19*
X0022500000Y0012000000D03*
D19*
X0022500000Y0012250000D03*
D19*
X0022500000Y0012500000D03*
D19*
X0022500000Y0012750000D03*
D19*
X0022500000Y0013000000D03*
D19*
X0022500000Y0013250000D03*
D19*
X0022500000Y0013500000D03*
D19*
X0022500000Y0013750000D03*
D19*
X0022500000Y0014000000D03*
D19*
X0022500000Y0014250000D03*
D19*
X0022500000Y0014500000D03*
D19*
X0022500000Y0014750000D03*
D19*
X0022500000Y0015000000D03*
D19*
X0022500000Y0015250000D03*
D19*
X0022500000Y0015500000D03*
D19*
X0022500000Y0015750000D03*
D19*
X0022500000Y0016000000D03*
D19*
X0022500000Y0016250000D03*
D19*
X0022500000Y0016500000D03*
D19*
X0022500000Y0016750000D03*
D19*
X0022500000Y0017000000D03*
D19*
X0022500000Y0017250000D03*
D19*
X0022500000Y0017500000D03*
D19*
X0022500000Y0017750000D03*
D19*
X0022500000Y0018000000D03*
D19*
X0022500000Y0018250000D03*
D19*
X0022500000Y0018500000D03*
D19*
X0022500000Y0018750000D03*
D19*
X0022500000Y0019000000D03*
D19*
X0022500000Y0019250000D03*
D19*
X0022500000Y0019500000D03*
D19*
X0022500000Y0019750000D03*
D19*
X0022750000Y0011500000D03*
D19*
X0022750000Y0011750000D03*
D19*
X0022750000Y0012000000D03*
D19*
X0022750000Y0012250000D03*
D19*
X0022750000Y0012500000D03*
D19*
X0022750000Y0012750000D03*
D19*
X0022750000Y0013000000D03*
D19*
X0022750000Y0013250000D03*
D19*
X0022750000Y0013500000D03*
D19*
X0022750000Y0013750000D03*
D19*
X0022750000Y0014000000D03*
D19*
X0022750000Y0014250000D03*
D19*
X0022750000Y0014500000D03*
D19*
X0022750000Y0014750000D03*
D19*
X0022750000Y0015000000D03*
D19*
X0022750000Y0015250000D03*
D19*
X0022750000Y0015500000D03*
D19*
X0022750000Y0015750000D03*
D19*
X0022750000Y0016000000D03*
D19*
X0022750000Y0016250000D03*
D19*
X0022750000Y0016500000D03*
D19*
X0022750000Y0016750000D03*
D19*
X0022750000Y0017000000D03*
D19*
X0022750000Y0017250000D03*
D19*
X0022750000Y0017500000D03*
D19*
X0022750000Y0017750000D03*
D19*
X0022750000Y0018000000D03*
D19*
X0022750000Y0018250000D03*
D19*
X0022750000Y0018500000D03*
D19*
X0022750000Y0018750000D03*
D19*
X0022750000Y0019000000D03*
D19*
X0022750000Y0019250000D03*
D19*
X0022750000Y0019500000D03*
D19*
X0022750000Y0019750000D03*
D19*
X0023000000Y0011500000D03*
D19*
X0023000000Y0011750000D03*
D19*
X0023000000Y0012000000D03*
D19*
X0023000000Y0012250000D03*
D19*
X0023000000Y0012500000D03*
D19*
X0023000000Y0012750000D03*
D19*
X0023000000Y0013000000D03*
D19*
X0023000000Y0013250000D03*
D19*
X0023000000Y0013500000D03*
D19*
X0023000000Y0013750000D03*
D19*
X0023000000Y0014000000D03*
D19*
X0023000000Y0014250000D03*
D19*
X0023000000Y0014500000D03*
D19*
X0023000000Y0014750000D03*
D19*
X0023000000Y0015000000D03*
D19*
X0023000000Y0015250000D03*
D19*
X0023000000Y0015500000D03*
D19*
X0023000000Y0015750000D03*
D19*
X0023000000Y0016000000D03*
D19*
X0023000000Y0016250000D03*
D19*
X0023000000Y0016500000D03*
D19*
X0023000000Y0016750000D03*
D19*
X0023000000Y0017000000D03*
D19*
X0023000000Y0017250000D03*
D19*
X0023000000Y0017500000D03*
D19*
X0023000000Y0017750000D03*
D19*
X0023000000Y0018000000D03*
D19*
X0023000000Y0018250000D03*
D19*
X0023000000Y0018500000D03*
D19*
X0023000000Y0018750000D03*
D19*
X0023000000Y0019000000D03*
D19*
X0023000000Y0019250000D03*
D19*
X0023000000Y0019500000D03*
D19*
X0023000000Y0019750000D03*
D19*
X0023250000Y0011500000D03*
D19*
X0023250000Y0011750000D03*
D19*
X0023250000Y0012000000D03*
D19*
X0023250000Y0012250000D03*
D19*
X0023250000Y0012500000D03*
D19*
X0023250000Y0012750000D03*
D19*
X0023250000Y0013000000D03*
D19*
X0023250000Y0013250000D03*
D19*
X0023250000Y0013500000D03*
D19*
X0023250000Y0013750000D03*
D19*
X0023250000Y0014000000D03*
D19*
X0023250000Y0014250000D03*
D19*
X0023250000Y0014500000D03*
D19*
X0023250000Y0014750000D03*
D19*
X0023250000Y0015000000D03*
D19*
X0023250000Y0015250000D03*
D19*
X0023250000Y0015500000D03*
D19*
X0023250000Y0015750000D03*
D19*
X0023250000Y0016000000D03*
D19*
X0023250000Y0016250000D03*
D19*
X0023250000Y0016500000D03*
D19*
X0023250000Y0016750000D03*
D19*
X0023250000Y0017000000D03*
D19*
X0023250000Y0017250000D03*
D19*
X0023250000Y0017500000D03*
D19*
X0023250000Y0017750000D03*
D19*
X0023250000Y0018000000D03*
D19*
X0023250000Y0018250000D03*
D19*
X0023250000Y0018500000D03*
D19*
X0023250000Y0018750000D03*
D19*
X0023250000Y0019000000D03*
D19*
X0023250000Y0019250000D03*
D19*
X0023250000Y0019500000D03*
D19*
X0023250000Y0019750000D03*
D19*
X0023500000Y0011500000D03*
D19*
X0023500000Y0011750000D03*
D19*
X0023500000Y0012000000D03*
D19*
X0023500000Y0012250000D03*
D19*
X0023500000Y0012500000D03*
D19*
X0023500000Y0012750000D03*
D19*
X0023500000Y0013000000D03*
D19*
X0023500000Y0013250000D03*
D19*
X0023500000Y0013500000D03*
D19*
X0023500000Y0013750000D03*
D19*
X0023500000Y0014000000D03*
D19*
X0023500000Y0014250000D03*
D19*
X0023500000Y0014500000D03*
D19*
X0023500000Y0014750000D03*
D19*
X0023500000Y0015000000D03*
D19*
X0023500000Y0015250000D03*
D19*
X0023500000Y0015500000D03*
D19*
X0023500000Y0015750000D03*
D19*
X0023500000Y0016000000D03*
D19*
X0023500000Y0016250000D03*
D19*
X0023500000Y0016500000D03*
D19*
X0023500000Y0016750000D03*
D19*
X0023500000Y0017000000D03*
D19*
X0023500000Y0017250000D03*
D19*
X0023500000Y0017500000D03*
D19*
X0023500000Y0017750000D03*
D19*
X0023500000Y0018000000D03*
D19*
X0023500000Y0018250000D03*
D19*
X0023500000Y0018500000D03*
D19*
X0023500000Y0018750000D03*
D19*
X0023500000Y0019000000D03*
D19*
X0023500000Y0019250000D03*
D19*
X0023500000Y0019500000D03*
D19*
X0023500000Y0019750000D03*
D19*
X0023750000Y0011500000D03*
D19*
X0023750000Y0011750000D03*
D19*
X0023750000Y0012000000D03*
D19*
X0023750000Y0012250000D03*
D19*
X0023750000Y0012500000D03*
D19*
X0023750000Y0012750000D03*
D19*
X0023750000Y0013000000D03*
D19*
X0023750000Y0013250000D03*
D19*
X0023750000Y0013500000D03*
D19*
X0023750000Y0013750000D03*
D19*
X0023750000Y0014000000D03*
D19*
X0023750000Y0014250000D03*
D19*
X0023750000Y0014500000D03*
D19*
X0023750000Y0014750000D03*
D19*
X0023750000Y0015000000D03*
D19*
X0023750000Y0015250000D03*
D19*
X0023750000Y0015500000D03*
D19*
X0023750000Y0015750000D03*
D19*
X0023750000Y0016000000D03*
D19*
X0023750000Y0016250000D03*
D19*
X0023750000Y0016500000D03*
D19*
X0023750000Y0016750000D03*
D19*
X0023750000Y0017000000D03*
D19*
X0023750000Y0017250000D03*
D19*
X0023750000Y0017500000D03*
D19*
X0023750000Y0017750000D03*
D19*
X0023750000Y0018000000D03*
D19*
X0023750000Y0018250000D03*
D19*
X0023750000Y0018500000D03*
D19*
X0023750000Y0018750000D03*
D19*
X0023750000Y0019000000D03*
D19*
X0023750000Y0019250000D03*
D19*
X0023750000Y0019500000D03*
D19*
X0023750000Y0019750000D03*
D19*
X0024000000Y0011500000D03*
D19*
X0024000000Y0011750000D03*
D19*
X0024000000Y0012000000D03*
D19*
X0024000000Y0012250000D03*
D19*
X0024000000Y0012500000D03*
D19*
X0024000000Y0012750000D03*
D19*
X0024000000Y0013000000D03*
D19*
X0024000000Y0013250000D03*
D19*
X0024000000Y0013500000D03*
D19*
X0024000000Y0013750000D03*
D19*
X0024000000Y0014000000D03*
D19*
X0024000000Y0014250000D03*
D19*
X0024000000Y0014500000D03*
D19*
X0024000000Y0014750000D03*
D19*
X0024000000Y0015000000D03*
D19*
X0024000000Y0015250000D03*
D19*
X0024000000Y0015500000D03*
D19*
X0024000000Y0015750000D03*
D19*
X0024000000Y0016000000D03*
D19*
X0024000000Y0016250000D03*
D19*
X0024000000Y0016500000D03*
D19*
X0024000000Y0016750000D03*
D19*
X0024000000Y0017000000D03*
D19*
X0024000000Y0017250000D03*
D19*
X0024000000Y0017500000D03*
D19*
X0024000000Y0017750000D03*
D19*
X0024000000Y0018000000D03*
D19*
X0024000000Y0018250000D03*
D19*
X0024000000Y0018500000D03*
D19*
X0024000000Y0018750000D03*
D19*
X0024000000Y0019000000D03*
D19*
X0024000000Y0019250000D03*
D19*
X0024000000Y0019500000D03*
D19*
X0024000000Y0019750000D03*
D19*
X0024250000Y0011500000D03*
D19*
X0024250000Y0011750000D03*
D19*
X0024250000Y0012000000D03*
D19*
X0024250000Y0012250000D03*
D19*
X0024250000Y0012500000D03*
D19*
X0024250000Y0012750000D03*
D19*
X0024250000Y0013000000D03*
D19*
X0024250000Y0013250000D03*
D19*
X0024250000Y0013500000D03*
D19*
X0024250000Y0013750000D03*
D19*
X0024250000Y0014000000D03*
D19*
X0024250000Y0014250000D03*
D19*
X0024250000Y0014500000D03*
D19*
X0024250000Y0014750000D03*
D19*
X0024250000Y0015000000D03*
D19*
X0024250000Y0015250000D03*
D19*
X0024250000Y0015500000D03*
D19*
X0024250000Y0015750000D03*
D19*
X0024250000Y0016000000D03*
D19*
X0024250000Y0016250000D03*
D19*
X0024250000Y0016500000D03*
D19*
X0024250000Y0016750000D03*
D19*
X0024250000Y0017000000D03*
D19*
X0024250000Y0017250000D03*
D19*
X0024250000Y0017500000D03*
D19*
X0024250000Y0017750000D03*
D19*
X0024250000Y0018000000D03*
D19*
X0024250000Y0018250000D03*
D19*
X0024250000Y0018500000D03*
D19*
X0024250000Y0018750000D03*
D19*
X0024250000Y0019000000D03*
D19*
X0024250000Y0019250000D03*
D19*
X0024250000Y0019500000D03*
D19*
X0024250000Y0019750000D03*
D19*
X0024500000Y0011500000D03*
D19*
X0024500000Y0011750000D03*
D19*
X0024500000Y0012000000D03*
D19*
X0024500000Y0012250000D03*
D19*
X0024500000Y0012500000D03*
D19*
X0024500000Y0012750000D03*
D19*
X0024500000Y0013000000D03*
D19*
X0024500000Y0013250000D03*
D19*
X0024500000Y0013500000D03*
D19*
X0024500000Y0013750000D03*
D19*
X0024500000Y0014000000D03*
D19*
X0024500000Y0014250000D03*
D19*
X0024500000Y0014500000D03*
D19*
X0024500000Y0014750000D03*
D19*
X0024500000Y0015000000D03*
D19*
X0024500000Y0015250000D03*
D19*
X0024500000Y0015500000D03*
D19*
X0024500000Y0015750000D03*
D19*
X0024500000Y0016000000D03*
D19*
X0024500000Y0016250000D03*
D19*
X0024500000Y0016500000D03*
D19*
X0024500000Y0016750000D03*
D19*
X0024500000Y0017000000D03*
D19*
X0024500000Y0017250000D03*
D19*
X0024500000Y0017500000D03*
D19*
X0024500000Y0017750000D03*
D19*
X0024500000Y0018000000D03*
D19*
X0024500000Y0018250000D03*
D19*
X0024500000Y0018500000D03*
D19*
X0024500000Y0018750000D03*
D19*
X0024500000Y0019000000D03*
D19*
X0024500000Y0019250000D03*
D19*
X0024500000Y0019500000D03*
D19*
X0024500000Y0019750000D03*
D19*
X0024750000Y0011500000D03*
D19*
X0024750000Y0011750000D03*
D19*
X0024750000Y0012000000D03*
D19*
X0024750000Y0012250000D03*
D19*
X0024750000Y0012500000D03*
D19*
X0024750000Y0012750000D03*
D19*
X0024750000Y0013000000D03*
D19*
X0024750000Y0013250000D03*
D19*
X0024750000Y0013500000D03*
D19*
X0024750000Y0013750000D03*
D19*
X0024750000Y0014000000D03*
D19*
X0024750000Y0014250000D03*
D19*
X0024750000Y0014500000D03*
D19*
X0024750000Y0014750000D03*
D19*
X0024750000Y0015000000D03*
D19*
X0024750000Y0015250000D03*
D19*
X0024750000Y0015500000D03*
D19*
X0024750000Y0015750000D03*
D19*
X0024750000Y0016000000D03*
D19*
X0024750000Y0016250000D03*
D19*
X0024750000Y0016500000D03*
D19*
X0024750000Y0016750000D03*
D19*
X0024750000Y0017000000D03*
D19*
X0024750000Y0017250000D03*
D19*
X0024750000Y0017500000D03*
D19*
X0024750000Y0017750000D03*
D19*
X0024750000Y0018000000D03*
D19*
X0024750000Y0018250000D03*
D19*
X0024750000Y0018500000D03*
D19*
X0024750000Y0018750000D03*
D19*
X0024750000Y0019000000D03*
D19*
X0024750000Y0019250000D03*
D19*
X0024750000Y0019500000D03*
D19*
X0024750000Y0019750000D03*
%LPD*%
D16*
X0039540000Y0008500000D03*
D16*
X0037000000Y0008500000D03*
D16*
X0034460000Y0008500000D03*
D16*
X0045420000Y0009500000D03*
D16*
X0047960000Y0009500000D03*
D16*
X0050500000Y0009500000D03*
D16*
X0053040000Y0009500000D03*
D16*
X0055580000Y0009500000D03*
D16*
X0060464800Y0028971200D03*
D16*
X0060464800Y0031511200D03*
D16*
X0060464800Y0034051200D03*
D16*
X0060464800Y0036591200D03*
D16*
X0060464800Y0039131200D03*
D18*
X0004500000Y0004500000D03*
D18*
X0059500000Y0004500000D03*
D18*
X0004500000Y0049500000D03*
D18*
X0059500000Y0049500000D03*
D16*
X0026620000Y0045540000D03*
D16*
X0011380000Y0050620000D03*
D16*
X0011380000Y0048080000D03*
D16*
X0026620000Y0043000000D03*
D16*
X0011380000Y0045540000D03*
D16*
X0011380000Y0043000000D03*
D16*
X0011380000Y0040460000D03*
D16*
X0011380000Y0037920000D03*
D16*
X0011380000Y0035380000D03*
D16*
X0026620000Y0035380000D03*
D16*
X0026620000Y0037920000D03*
D16*
X0026620000Y0040460000D03*
D16*
X0026620000Y0048080000D03*
D16*
X0026620000Y0050620000D03*
D13*
X0029500000Y0030500000D03*
D11*
X0026500000Y0045500000D02*
X0028500000Y0045500000D01*
D11*
X0028500000Y0036500000D02*
X0028500000Y0045500000D01*
D11*
X0029000000Y0036250000D02*
X0029000000Y0036500000D01*
D11*
X0029000000Y0036500000D02*
X0028500000Y0036500000D01*
D11*
X0029250000Y0036000000D02*
X0029250000Y0036250000D01*
D11*
X0029250000Y0036250000D02*
X0029000000Y0036250000D01*
D11*
X0029500000Y0030500000D02*
X0029500000Y0036000000D01*
D11*
X0029500000Y0036000000D02*
X0029250000Y0036000000D01*
D10*
X0008750000Y0037500000D02*
X0008750000Y0045500000D01*
D10*
X0008750000Y0045500000D02*
X0011500000Y0045500000D01*
D10*
X0009000000Y0037250000D02*
X0009000000Y0037500000D01*
D10*
X0009000000Y0037500000D02*
X0008750000Y0037500000D01*
D10*
X0010000000Y0034500000D02*
X0010000000Y0037250000D01*
D10*
X0010000000Y0037250000D02*
X0009000000Y0037250000D01*
D10*
X0010250000Y0034250000D02*
X0010250000Y0034500000D01*
D10*
X0010250000Y0034500000D02*
X0010000000Y0034500000D01*
D10*
X0010500000Y0034000000D02*
X0010500000Y0034250000D01*
D10*
X0010500000Y0034250000D02*
X0010250000Y0034250000D01*
D10*
X0011500000Y0010000000D02*
X0011500000Y0034000000D01*
D10*
X0011500000Y0034000000D02*
X0010500000Y0034000000D01*
D10*
X0035000000Y0009750000D02*
X0035000000Y0010000000D01*
D10*
X0035000000Y0010000000D02*
X0011500000Y0010000000D01*
D10*
X0035500000Y0009500000D02*
X0035500000Y0009750000D01*
D10*
X0035500000Y0009750000D02*
X0035000000Y0009750000D01*
D10*
X0035750000Y0009000000D02*
X0035750000Y0009500000D01*
D10*
X0035750000Y0009500000D02*
X0035500000Y0009500000D01*
D10*
X0036000000Y0008500000D02*
X0036000000Y0009000000D01*
D10*
X0036000000Y0009000000D02*
X0035750000Y0009000000D01*
D10*
X0037000000Y0008500000D02*
X0036000000Y0008500000D01*
D10*
X0011500000Y0043000000D02*
X0009500000Y0043000000D01*
D10*
X0026500000Y0035500000D02*
X0028500000Y0035500000D01*
D10*
X0028500000Y0029000000D02*
X0028500000Y0035500000D01*
D10*
X0060500000Y0029000000D02*
X0028500000Y0029000000D01*
D10*
X0011500000Y0036750000D02*
X0011500000Y0038000000D01*
D10*
X0011500000Y0038000000D02*
X0009500000Y0038000000D01*
D10*
X0012250000Y0036500000D02*
X0012250000Y0036750000D01*
D10*
X0012250000Y0036750000D02*
X0011500000Y0036750000D01*
D10*
X0012500000Y0036250000D02*
X0012500000Y0036500000D01*
D10*
X0012500000Y0036500000D02*
X0012250000Y0036500000D01*
D10*
X0012750000Y0011000000D02*
X0012750000Y0036250000D01*
D10*
X0012750000Y0036250000D02*
X0012500000Y0036250000D01*
D10*
X0051250000Y0010750000D02*
X0051250000Y0011000000D01*
D10*
X0051250000Y0011000000D02*
X0012750000Y0011000000D01*
D10*
X0051500000Y0010500000D02*
X0051500000Y0010750000D01*
D10*
X0051500000Y0010750000D02*
X0051250000Y0010750000D01*
D10*
X0051750000Y0010250000D02*
X0051750000Y0010500000D01*
D10*
X0051750000Y0010500000D02*
X0051500000Y0010500000D01*
D10*
X0052000000Y0009500000D02*
X0052000000Y0010250000D01*
D10*
X0052000000Y0010250000D02*
X0051750000Y0010250000D01*
D10*
X0053000000Y0009500000D02*
X0052000000Y0009500000D01*
D10*
X0011500000Y0039500000D02*
X0011500000Y0040500000D01*
D10*
X0011750000Y0039250000D02*
X0011750000Y0039500000D01*
D10*
X0011750000Y0039500000D02*
X0011500000Y0039500000D01*
D10*
X0012250000Y0039000000D02*
X0012250000Y0039250000D01*
D10*
X0012250000Y0039250000D02*
X0011750000Y0039250000D01*
D10*
X0012500000Y0038750000D02*
X0012500000Y0039000000D01*
D10*
X0012500000Y0039000000D02*
X0012250000Y0039000000D01*
D10*
X0012750000Y0037250000D02*
X0012750000Y0038750000D01*
D10*
X0012750000Y0038750000D02*
X0012500000Y0038750000D01*
D10*
X0013000000Y0037000000D02*
X0013000000Y0037250000D01*
D10*
X0013000000Y0037250000D02*
X0012750000Y0037250000D01*
D10*
X0013250000Y0036750000D02*
X0013250000Y0037000000D01*
D10*
X0013250000Y0037000000D02*
X0013000000Y0037000000D01*
D10*
X0013500000Y0035250000D02*
X0013500000Y0036750000D01*
D10*
X0013500000Y0036750000D02*
X0013250000Y0036750000D01*
D10*
X0025250000Y0011750000D02*
X0025250000Y0035250000D01*
D10*
X0025250000Y0035250000D02*
X0013500000Y0035250000D01*
D10*
X0051750000Y0011500000D02*
X0051750000Y0011750000D01*
D10*
X0051750000Y0011750000D02*
X0025250000Y0011750000D01*
D10*
X0052000000Y0011250000D02*
X0052000000Y0011500000D01*
D10*
X0052000000Y0011500000D02*
X0051750000Y0011500000D01*
D10*
X0052250000Y0011000000D02*
X0052250000Y0011250000D01*
D10*
X0052250000Y0011250000D02*
X0052000000Y0011250000D01*
D10*
X0053750000Y0010750000D02*
X0053750000Y0011000000D01*
D10*
X0053750000Y0011000000D02*
X0052250000Y0011000000D01*
D10*
X0054000000Y0010500000D02*
X0054000000Y0010750000D01*
D10*
X0054000000Y0010750000D02*
X0053750000Y0010750000D01*
D10*
X0054250000Y0010250000D02*
X0054250000Y0010500000D01*
D10*
X0054250000Y0010500000D02*
X0054000000Y0010500000D01*
D10*
X0054500000Y0009500000D02*
X0054500000Y0010250000D01*
D10*
X0054500000Y0010250000D02*
X0054250000Y0010250000D01*
D10*
X0055500000Y0009500000D02*
X0054500000Y0009500000D01*
M02*
