G04 HomeBrain Presence Motherboard front silkscreen*
%TF.GenerationSoftware,OpenAI,HomeBrain Dedicated Motherboard Generator,1.0*%
%FSLAX46Y46*%
%MOMM*%
%LPD*%
%ADD10C,0.1800*%
%ADD11C,0.2500*%
%ADD12C,0.5500*%
%ADD20C,2.2600*%
%ADD21C,5.6600*%
D10*
X0001500000Y0051600000D03*
D10*
X0001820000Y0051600000D03*
D10*
X0001500000Y0051760000D03*
D10*
X0001820000Y0051760000D03*
D10*
X0001500000Y0051920000D03*
D10*
X0001660000Y0051920000D03*
D10*
X0001820000Y0051920000D03*
D10*
X0001500000Y0052080000D03*
D10*
X0001820000Y0052080000D03*
D10*
X0001500000Y0052240000D03*
D10*
X0001820000Y0052240000D03*
D10*
X0002140000Y0051600000D03*
D10*
X0002300000Y0051600000D03*
D10*
X0002140000Y0051760000D03*
D10*
X0002460000Y0051760000D03*
D10*
X0002140000Y0051920000D03*
D10*
X0002300000Y0051920000D03*
D10*
X0002140000Y0052080000D03*
D10*
X0002460000Y0052080000D03*
D10*
X0002140000Y0052240000D03*
D10*
X0002300000Y0052240000D03*
D10*
X0003420000Y0051600000D03*
D10*
X0003580000Y0051600000D03*
D10*
X0003420000Y0051760000D03*
D10*
X0003740000Y0051760000D03*
D10*
X0003420000Y0051920000D03*
D10*
X0003580000Y0051920000D03*
D10*
X0003420000Y0052080000D03*
D10*
X0003420000Y0052240000D03*
D10*
X0004060000Y0051600000D03*
D10*
X0004220000Y0051600000D03*
D10*
X0004060000Y0051760000D03*
D10*
X0004380000Y0051760000D03*
D10*
X0004060000Y0051920000D03*
D10*
X0004220000Y0051920000D03*
D10*
X0004060000Y0052080000D03*
D10*
X0004380000Y0052080000D03*
D10*
X0004060000Y0052240000D03*
D10*
X0004380000Y0052240000D03*
D10*
X0004700000Y0051600000D03*
D10*
X0004860000Y0051600000D03*
D10*
X0005020000Y0051600000D03*
D10*
X0004700000Y0051760000D03*
D10*
X0004700000Y0051920000D03*
D10*
X0004860000Y0051920000D03*
D10*
X0004700000Y0052080000D03*
D10*
X0004700000Y0052240000D03*
D10*
X0004860000Y0052240000D03*
D10*
X0005020000Y0052240000D03*
D10*
X0005500000Y0051600000D03*
D10*
X0005660000Y0051600000D03*
D10*
X0005340000Y0051760000D03*
D10*
X0005500000Y0051920000D03*
D10*
X0005660000Y0052080000D03*
D10*
X0005340000Y0052240000D03*
D10*
X0005500000Y0052240000D03*
D10*
X0005980000Y0051600000D03*
D10*
X0006140000Y0051600000D03*
D10*
X0006300000Y0051600000D03*
D10*
X0005980000Y0051760000D03*
D10*
X0005980000Y0051920000D03*
D10*
X0006140000Y0051920000D03*
D10*
X0005980000Y0052080000D03*
D10*
X0005980000Y0052240000D03*
D10*
X0006140000Y0052240000D03*
D10*
X0006300000Y0052240000D03*
D10*
X0006620000Y0051600000D03*
D10*
X0007100000Y0051600000D03*
D10*
X0006620000Y0051760000D03*
D10*
X0006780000Y0051760000D03*
D10*
X0007100000Y0051760000D03*
D10*
X0006620000Y0051920000D03*
D10*
X0006940000Y0051920000D03*
D10*
X0007100000Y0051920000D03*
D10*
X0006620000Y0052080000D03*
D10*
X0007100000Y0052080000D03*
D10*
X0006620000Y0052240000D03*
D10*
X0007100000Y0052240000D03*
D10*
X0007580000Y0051600000D03*
D10*
X0007740000Y0051600000D03*
D10*
X0007420000Y0051760000D03*
D10*
X0007420000Y0051920000D03*
D10*
X0007420000Y0052080000D03*
D10*
X0007580000Y0052240000D03*
D10*
X0007740000Y0052240000D03*
D10*
X0008060000Y0051600000D03*
D10*
X0008220000Y0051600000D03*
D10*
X0008380000Y0051600000D03*
D10*
X0008060000Y0051760000D03*
D10*
X0008060000Y0051920000D03*
D10*
X0008220000Y0051920000D03*
D10*
X0008060000Y0052080000D03*
D10*
X0008060000Y0052240000D03*
D10*
X0008220000Y0052240000D03*
D10*
X0008380000Y0052240000D03*
D10*
X0009340000Y0051600000D03*
D10*
X0009660000Y0051600000D03*
D10*
X0009340000Y0051760000D03*
D10*
X0009660000Y0051760000D03*
D10*
X0009340000Y0051920000D03*
D10*
X0009660000Y0051920000D03*
D10*
X0009340000Y0052080000D03*
D10*
X0009660000Y0052080000D03*
D10*
X0009500000Y0052240000D03*
D10*
X0010140000Y0051600000D03*
D10*
X0009980000Y0051760000D03*
D10*
X0010140000Y0051760000D03*
D10*
X0010140000Y0051920000D03*
D10*
X0010140000Y0052080000D03*
D10*
X0009980000Y0052240000D03*
D10*
X0010140000Y0052240000D03*
D10*
X0010300000Y0052240000D03*
D10*
X0011260000Y0051600000D03*
D10*
X0011420000Y0051600000D03*
D10*
X0011580000Y0051760000D03*
D10*
X0011260000Y0051920000D03*
D10*
X0011420000Y0051920000D03*
D10*
X0011580000Y0051920000D03*
D10*
X0011260000Y0052080000D03*
D10*
X0011260000Y0052240000D03*
D10*
X0011420000Y0052240000D03*
D10*
X0011580000Y0052240000D03*
D10*
X0011900000Y0051920000D03*
D10*
X0012060000Y0051920000D03*
D10*
X0012220000Y0051920000D03*
D10*
X0012540000Y0051600000D03*
D10*
X0012700000Y0051600000D03*
D10*
X0012540000Y0051760000D03*
D10*
X0012860000Y0051760000D03*
D10*
X0012540000Y0051920000D03*
D10*
X0012860000Y0051920000D03*
D10*
X0012540000Y0052080000D03*
D10*
X0012860000Y0052080000D03*
D10*
X0012540000Y0052240000D03*
D10*
X0012700000Y0052240000D03*
D10*
X0013180000Y0051600000D03*
D10*
X0013340000Y0051600000D03*
D10*
X0013180000Y0051760000D03*
D10*
X0013500000Y0051760000D03*
D10*
X0013180000Y0051920000D03*
D10*
X0013340000Y0051920000D03*
D10*
X0013180000Y0052080000D03*
D10*
X0013500000Y0052080000D03*
D10*
X0013180000Y0052240000D03*
D10*
X0013500000Y0052240000D03*
D10*
X0013980000Y0051600000D03*
D10*
X0013820000Y0051760000D03*
D10*
X0014140000Y0051760000D03*
D10*
X0013820000Y0051920000D03*
D10*
X0013980000Y0051920000D03*
D10*
X0014140000Y0051920000D03*
D10*
X0013820000Y0052080000D03*
D10*
X0014140000Y0052080000D03*
D10*
X0013820000Y0052240000D03*
D10*
X0014140000Y0052240000D03*
D10*
X0014460000Y0051600000D03*
D10*
X0014620000Y0051600000D03*
D10*
X0014780000Y0051600000D03*
D10*
X0014460000Y0051760000D03*
D10*
X0014460000Y0051920000D03*
D10*
X0014620000Y0051920000D03*
D10*
X0014460000Y0052080000D03*
D10*
X0014460000Y0052240000D03*
D10*
X0015100000Y0051600000D03*
D10*
X0015260000Y0051600000D03*
D10*
X0015420000Y0051600000D03*
D10*
X0015260000Y0051760000D03*
D10*
X0015260000Y0051920000D03*
D10*
X0015260000Y0052080000D03*
D10*
X0015260000Y0052240000D03*
D11*
X0010100000Y0032500000D02*
X0027900000Y0032500000D01*
D11*
X0027900000Y0032500000D02*
X0027900000Y0053500000D01*
D11*
X0027900000Y0053500000D02*
X0010100000Y0053500000D01*
D11*
X0010100000Y0053500000D02*
X0010100000Y0032500000D01*
D10*
X0016300000Y0052800000D03*
D10*
X0016580000Y0052800000D03*
D10*
X0016300000Y0052940000D03*
D10*
X0016580000Y0052940000D03*
D10*
X0016300000Y0053080000D03*
D10*
X0016580000Y0053080000D03*
D10*
X0016300000Y0053220000D03*
D10*
X0016580000Y0053220000D03*
D10*
X0016300000Y0053360000D03*
D10*
X0016440000Y0053360000D03*
D10*
X0016580000Y0053360000D03*
D10*
X0017000000Y0052800000D03*
D10*
X0017140000Y0052800000D03*
D10*
X0016860000Y0052940000D03*
D10*
X0017000000Y0053080000D03*
D10*
X0017140000Y0053220000D03*
D10*
X0016860000Y0053360000D03*
D10*
X0017000000Y0053360000D03*
D10*
X0017420000Y0052800000D03*
D10*
X0017560000Y0052800000D03*
D10*
X0017420000Y0052940000D03*
D10*
X0017700000Y0052940000D03*
D10*
X0017420000Y0053080000D03*
D10*
X0017560000Y0053080000D03*
D10*
X0017420000Y0053220000D03*
D10*
X0017700000Y0053220000D03*
D10*
X0017420000Y0053360000D03*
D10*
X0017560000Y0053360000D03*
D11*
X0019000000Y0051300000D02*
X0019000000Y0053700000D01*
D11*
X0019000000Y0053700000D02*
X0018300000Y0052900000D01*
D11*
X0019000000Y0053700000D02*
X0019700000Y0052900000D01*
D11*
X0027000000Y0004000000D02*
X0042000000Y0004000000D01*
D11*
X0042000000Y0004000000D02*
X0042000000Y0030000000D01*
D11*
X0042000000Y0030000000D02*
X0027000000Y0030000000D01*
D11*
X0027000000Y0030000000D02*
X0027000000Y0004000000D01*
D10*
X0041360000Y0010000000D03*
D10*
X0041360000Y0010160000D03*
D10*
X0041360000Y0010320000D03*
D10*
X0041040000Y0010480000D03*
D10*
X0041360000Y0010480000D03*
D10*
X0041200000Y0010640000D03*
D10*
X0041840000Y0010000000D03*
D10*
X0041680000Y0010160000D03*
D10*
X0041840000Y0010160000D03*
D10*
X0041840000Y0010320000D03*
D10*
X0041840000Y0010480000D03*
D10*
X0041680000Y0010640000D03*
D10*
X0041840000Y0010640000D03*
D10*
X0042000000Y0010640000D03*
D10*
X0038650000Y0006910000D03*
D10*
X0038540000Y0007020000D03*
D10*
X0038650000Y0007020000D03*
D10*
X0038760000Y0007020000D03*
D10*
X0038650000Y0007130000D03*
D10*
X0036110000Y0006800000D03*
D10*
X0036000000Y0006910000D03*
D10*
X0036220000Y0006910000D03*
D10*
X0036000000Y0007020000D03*
D10*
X0036220000Y0007020000D03*
D10*
X0036000000Y0007130000D03*
D10*
X0036220000Y0007130000D03*
D10*
X0036110000Y0007240000D03*
D10*
X0036440000Y0006800000D03*
D10*
X0036660000Y0006800000D03*
D10*
X0036440000Y0006910000D03*
D10*
X0036660000Y0006910000D03*
D10*
X0036440000Y0007020000D03*
D10*
X0036660000Y0007020000D03*
D10*
X0036440000Y0007130000D03*
D10*
X0036660000Y0007130000D03*
D10*
X0036440000Y0007240000D03*
D10*
X0036550000Y0007240000D03*
D10*
X0036660000Y0007240000D03*
D10*
X0036880000Y0006800000D03*
D10*
X0036990000Y0006800000D03*
D10*
X0037100000Y0006800000D03*
D10*
X0036990000Y0006910000D03*
D10*
X0036990000Y0007020000D03*
D10*
X0036990000Y0007130000D03*
D10*
X0036990000Y0007240000D03*
D10*
X0033460000Y0007020000D03*
D10*
X0033570000Y0007020000D03*
D10*
X0033680000Y0007020000D03*
D12*
X0041240000Y0008500000D03*
D11*
X0042000000Y0008000000D02*
X0059000000Y0008000000D01*
D11*
X0059000000Y0008000000D02*
X0059000000Y0025000000D01*
D11*
X0059000000Y0025000000D02*
X0042000000Y0025000000D01*
D11*
X0042000000Y0025000000D02*
X0042000000Y0008000000D01*
D10*
X0047240000Y0011000000D03*
D10*
X0047240000Y0011160000D03*
D10*
X0047240000Y0011320000D03*
D10*
X0046920000Y0011480000D03*
D10*
X0047240000Y0011480000D03*
D10*
X0047080000Y0011640000D03*
D10*
X0047560000Y0011000000D03*
D10*
X0047720000Y0011000000D03*
D10*
X0047880000Y0011160000D03*
D10*
X0047560000Y0011320000D03*
D10*
X0047720000Y0011320000D03*
D10*
X0047880000Y0011320000D03*
D10*
X0047560000Y0011480000D03*
D10*
X0047560000Y0011640000D03*
D10*
X0047720000Y0011640000D03*
D10*
X0047880000Y0011640000D03*
D10*
X0044420000Y0007800000D03*
D10*
X0044640000Y0007800000D03*
D10*
X0044420000Y0007910000D03*
D10*
X0044640000Y0007910000D03*
D10*
X0044420000Y0008020000D03*
D10*
X0044640000Y0008020000D03*
D10*
X0044420000Y0008130000D03*
D10*
X0044640000Y0008130000D03*
D10*
X0044530000Y0008240000D03*
D10*
X0044860000Y0007800000D03*
D10*
X0044970000Y0007800000D03*
D10*
X0045080000Y0007800000D03*
D10*
X0044970000Y0007910000D03*
D10*
X0044970000Y0008020000D03*
D10*
X0044970000Y0008130000D03*
D10*
X0044860000Y0008240000D03*
D10*
X0044970000Y0008240000D03*
D10*
X0045080000Y0008240000D03*
D10*
X0045300000Y0007800000D03*
D10*
X0045630000Y0007800000D03*
D10*
X0045300000Y0007910000D03*
D10*
X0045410000Y0007910000D03*
D10*
X0045630000Y0007910000D03*
D10*
X0045300000Y0008020000D03*
D10*
X0045520000Y0008020000D03*
D10*
X0045630000Y0008020000D03*
D10*
X0045300000Y0008130000D03*
D10*
X0045630000Y0008130000D03*
D10*
X0045300000Y0008240000D03*
D10*
X0045630000Y0008240000D03*
D10*
X0046960000Y0007800000D03*
D10*
X0047070000Y0007800000D03*
D10*
X0047180000Y0007910000D03*
D10*
X0046960000Y0008020000D03*
D10*
X0047070000Y0008020000D03*
D10*
X0047180000Y0008020000D03*
D10*
X0047180000Y0008130000D03*
D10*
X0046960000Y0008240000D03*
D10*
X0047070000Y0008240000D03*
D10*
X0047400000Y0007800000D03*
D10*
X0047620000Y0007800000D03*
D10*
X0047400000Y0007910000D03*
D10*
X0047620000Y0007910000D03*
D10*
X0047400000Y0008020000D03*
D10*
X0047620000Y0008020000D03*
D10*
X0047400000Y0008130000D03*
D10*
X0047620000Y0008130000D03*
D10*
X0047510000Y0008240000D03*
D10*
X0047950000Y0007800000D03*
D10*
X0047840000Y0007910000D03*
D10*
X0048060000Y0007910000D03*
D10*
X0047840000Y0008020000D03*
D10*
X0048060000Y0008020000D03*
D10*
X0047840000Y0008130000D03*
D10*
X0048060000Y0008130000D03*
D10*
X0047950000Y0008240000D03*
D10*
X0049610000Y0007800000D03*
D10*
X0049720000Y0007800000D03*
D10*
X0049500000Y0007910000D03*
D10*
X0049500000Y0008020000D03*
D10*
X0049720000Y0008020000D03*
D10*
X0049500000Y0008130000D03*
D10*
X0049720000Y0008130000D03*
D10*
X0049610000Y0008240000D03*
D10*
X0049720000Y0008240000D03*
D10*
X0049940000Y0007800000D03*
D10*
X0050270000Y0007800000D03*
D10*
X0049940000Y0007910000D03*
D10*
X0050050000Y0007910000D03*
D10*
X0050270000Y0007910000D03*
D10*
X0049940000Y0008020000D03*
D10*
X0050160000Y0008020000D03*
D10*
X0050270000Y0008020000D03*
D10*
X0049940000Y0008130000D03*
D10*
X0050270000Y0008130000D03*
D10*
X0049940000Y0008240000D03*
D10*
X0050270000Y0008240000D03*
D10*
X0050490000Y0007800000D03*
D10*
X0050600000Y0007800000D03*
D10*
X0050490000Y0007910000D03*
D10*
X0050710000Y0007910000D03*
D10*
X0050490000Y0008020000D03*
D10*
X0050710000Y0008020000D03*
D10*
X0050490000Y0008130000D03*
D10*
X0050710000Y0008130000D03*
D10*
X0050490000Y0008240000D03*
D10*
X0050600000Y0008240000D03*
D10*
X0052150000Y0007800000D03*
D10*
X0052260000Y0007800000D03*
D10*
X0052040000Y0007910000D03*
D10*
X0052150000Y0008020000D03*
D10*
X0052260000Y0008130000D03*
D10*
X0052040000Y0008240000D03*
D10*
X0052150000Y0008240000D03*
D10*
X0052590000Y0007800000D03*
D10*
X0052700000Y0007800000D03*
D10*
X0052480000Y0007910000D03*
D10*
X0052480000Y0008020000D03*
D10*
X0052480000Y0008130000D03*
D10*
X0052590000Y0008240000D03*
D10*
X0052700000Y0008240000D03*
D10*
X0052920000Y0007800000D03*
D10*
X0052920000Y0007910000D03*
D10*
X0052920000Y0008020000D03*
D10*
X0052920000Y0008130000D03*
D10*
X0052920000Y0008240000D03*
D10*
X0053030000Y0008240000D03*
D10*
X0053140000Y0008240000D03*
D10*
X0054690000Y0007800000D03*
D10*
X0054800000Y0007800000D03*
D10*
X0054580000Y0007910000D03*
D10*
X0054690000Y0008020000D03*
D10*
X0054800000Y0008130000D03*
D10*
X0054580000Y0008240000D03*
D10*
X0054690000Y0008240000D03*
D10*
X0055020000Y0007800000D03*
D10*
X0055130000Y0007800000D03*
D10*
X0055020000Y0007910000D03*
D10*
X0055240000Y0007910000D03*
D10*
X0055020000Y0008020000D03*
D10*
X0055240000Y0008020000D03*
D10*
X0055020000Y0008130000D03*
D10*
X0055240000Y0008130000D03*
D10*
X0055020000Y0008240000D03*
D10*
X0055130000Y0008240000D03*
D10*
X0055570000Y0007800000D03*
D10*
X0055460000Y0007910000D03*
D10*
X0055680000Y0007910000D03*
D10*
X0055460000Y0008020000D03*
D10*
X0055570000Y0008020000D03*
D10*
X0055680000Y0008020000D03*
D10*
X0055460000Y0008130000D03*
D10*
X0055680000Y0008130000D03*
D10*
X0055460000Y0008240000D03*
D10*
X0055680000Y0008240000D03*
D12*
X0043720000Y0009500000D03*
D10*
X0060320000Y0030471200D03*
D10*
X0060320000Y0030631200D03*
D10*
X0060320000Y0030791200D03*
D10*
X0060000000Y0030951200D03*
D10*
X0060320000Y0030951200D03*
D10*
X0060160000Y0031111200D03*
D10*
X0060640000Y0030471200D03*
D10*
X0060800000Y0030471200D03*
D10*
X0060960000Y0030631200D03*
D10*
X0060640000Y0030791200D03*
D10*
X0060800000Y0030791200D03*
D10*
X0060960000Y0030791200D03*
D10*
X0060960000Y0030951200D03*
D10*
X0060640000Y0031111200D03*
D10*
X0060800000Y0031111200D03*
D10*
X0061664800Y0028621200D03*
D10*
X0061774800Y0028621200D03*
D10*
X0061884800Y0028621200D03*
D10*
X0061774800Y0028731200D03*
D10*
X0061774800Y0028841200D03*
D10*
X0061774800Y0028951200D03*
D10*
X0061774800Y0029061200D03*
D10*
X0062104800Y0028621200D03*
D10*
X0062324800Y0028621200D03*
D10*
X0062104800Y0028731200D03*
D10*
X0062324800Y0028731200D03*
D10*
X0062214800Y0028841200D03*
D10*
X0062104800Y0028951200D03*
D10*
X0062324800Y0028951200D03*
D10*
X0062104800Y0029061200D03*
D10*
X0062324800Y0029061200D03*
D10*
X0061664800Y0031161200D03*
D10*
X0061774800Y0031161200D03*
D10*
X0061664800Y0031271200D03*
D10*
X0061884800Y0031271200D03*
D10*
X0061664800Y0031381200D03*
D10*
X0061774800Y0031381200D03*
D10*
X0061664800Y0031491200D03*
D10*
X0061884800Y0031491200D03*
D10*
X0061664800Y0031601200D03*
D10*
X0061884800Y0031601200D03*
D10*
X0062104800Y0031161200D03*
D10*
X0062324800Y0031161200D03*
D10*
X0062104800Y0031271200D03*
D10*
X0062324800Y0031271200D03*
D10*
X0062214800Y0031381200D03*
D10*
X0062104800Y0031491200D03*
D10*
X0062324800Y0031491200D03*
D10*
X0062104800Y0031601200D03*
D10*
X0062324800Y0031601200D03*
D10*
X0061774800Y0033701200D03*
D10*
X0061664800Y0033811200D03*
D10*
X0061884800Y0033811200D03*
D10*
X0061664800Y0033921200D03*
D10*
X0061884800Y0033921200D03*
D10*
X0061664800Y0034031200D03*
D10*
X0061884800Y0034031200D03*
D10*
X0061774800Y0034141200D03*
D10*
X0062104800Y0033701200D03*
D10*
X0062324800Y0033701200D03*
D10*
X0062104800Y0033811200D03*
D10*
X0062324800Y0033811200D03*
D10*
X0062104800Y0033921200D03*
D10*
X0062324800Y0033921200D03*
D10*
X0062104800Y0034031200D03*
D10*
X0062324800Y0034031200D03*
D10*
X0062104800Y0034141200D03*
D10*
X0062214800Y0034141200D03*
D10*
X0062324800Y0034141200D03*
D10*
X0062544800Y0033701200D03*
D10*
X0062654800Y0033701200D03*
D10*
X0062764800Y0033701200D03*
D10*
X0062654800Y0033811200D03*
D10*
X0062654800Y0033921200D03*
D10*
X0062654800Y0034031200D03*
D10*
X0062654800Y0034141200D03*
D10*
X0061774800Y0036241200D03*
D10*
X0061884800Y0036241200D03*
D10*
X0061664800Y0036351200D03*
D10*
X0061664800Y0036461200D03*
D10*
X0061884800Y0036461200D03*
D10*
X0061664800Y0036571200D03*
D10*
X0061884800Y0036571200D03*
D10*
X0061774800Y0036681200D03*
D10*
X0061884800Y0036681200D03*
D10*
X0062104800Y0036241200D03*
D10*
X0062434800Y0036241200D03*
D10*
X0062104800Y0036351200D03*
D10*
X0062214800Y0036351200D03*
D10*
X0062434800Y0036351200D03*
D10*
X0062104800Y0036461200D03*
D10*
X0062324800Y0036461200D03*
D10*
X0062434800Y0036461200D03*
D10*
X0062104800Y0036571200D03*
D10*
X0062434800Y0036571200D03*
D10*
X0062104800Y0036681200D03*
D10*
X0062434800Y0036681200D03*
D10*
X0062654800Y0036241200D03*
D10*
X0062764800Y0036241200D03*
D10*
X0062654800Y0036351200D03*
D10*
X0062874800Y0036351200D03*
D10*
X0062654800Y0036461200D03*
D10*
X0062874800Y0036461200D03*
D10*
X0062654800Y0036571200D03*
D10*
X0062874800Y0036571200D03*
D10*
X0062654800Y0036681200D03*
D10*
X0062764800Y0036681200D03*
D10*
X0061664800Y0038781200D03*
D10*
X0061884800Y0038781200D03*
D10*
X0061664800Y0038891200D03*
D10*
X0061884800Y0038891200D03*
D10*
X0061664800Y0039001200D03*
D10*
X0061884800Y0039001200D03*
D10*
X0061664800Y0039111200D03*
D10*
X0061884800Y0039111200D03*
D10*
X0061774800Y0039221200D03*
D10*
X0062214800Y0038781200D03*
D10*
X0062324800Y0038781200D03*
D10*
X0062104800Y0038891200D03*
D10*
X0062104800Y0039001200D03*
D10*
X0062104800Y0039111200D03*
D10*
X0062214800Y0039221200D03*
D10*
X0062324800Y0039221200D03*
D10*
X0062654800Y0038781200D03*
D10*
X0062764800Y0038781200D03*
D10*
X0062544800Y0038891200D03*
D10*
X0062544800Y0039001200D03*
D10*
X0062544800Y0039111200D03*
D10*
X0062654800Y0039221200D03*
D10*
X0062764800Y0039221200D03*
D12*
X0060464800Y0027271200D03*
D10*
X0027800000Y0001200000D03*
D10*
X0028080000Y0001200000D03*
D10*
X0027800000Y0001340000D03*
D10*
X0028080000Y0001340000D03*
D10*
X0027800000Y0001480000D03*
D10*
X0028080000Y0001480000D03*
D10*
X0027800000Y0001620000D03*
D10*
X0028080000Y0001620000D03*
D10*
X0027800000Y0001760000D03*
D10*
X0027940000Y0001760000D03*
D10*
X0028080000Y0001760000D03*
D10*
X0028500000Y0001200000D03*
D10*
X0028640000Y0001200000D03*
D10*
X0028360000Y0001340000D03*
D10*
X0028500000Y0001480000D03*
D10*
X0028640000Y0001620000D03*
D10*
X0028360000Y0001760000D03*
D10*
X0028500000Y0001760000D03*
D10*
X0028920000Y0001200000D03*
D10*
X0029060000Y0001200000D03*
D10*
X0028920000Y0001340000D03*
D10*
X0029200000Y0001340000D03*
D10*
X0028920000Y0001480000D03*
D10*
X0029060000Y0001480000D03*
D10*
X0028920000Y0001620000D03*
D10*
X0029200000Y0001620000D03*
D10*
X0028920000Y0001760000D03*
D10*
X0029060000Y0001760000D03*
D10*
X0030040000Y0001200000D03*
D10*
X0030320000Y0001200000D03*
D10*
X0030040000Y0001340000D03*
D10*
X0030320000Y0001340000D03*
D10*
X0030040000Y0001480000D03*
D10*
X0030320000Y0001480000D03*
D10*
X0030040000Y0001620000D03*
D10*
X0030320000Y0001620000D03*
D10*
X0030040000Y0001760000D03*
D10*
X0030180000Y0001760000D03*
D10*
X0030320000Y0001760000D03*
D10*
X0030600000Y0001200000D03*
D10*
X0030740000Y0001200000D03*
D10*
X0030600000Y0001340000D03*
D10*
X0030880000Y0001340000D03*
D10*
X0030600000Y0001480000D03*
D10*
X0030740000Y0001480000D03*
D10*
X0030600000Y0001620000D03*
D10*
X0030600000Y0001760000D03*
%LPC*%
D20*
X0011380000Y0050620000D03*
D20*
X0011380000Y0048080000D03*
D20*
X0011380000Y0045540000D03*
D20*
X0011380000Y0043000000D03*
D20*
X0011380000Y0040460000D03*
D20*
X0011380000Y0037920000D03*
D20*
X0011380000Y0035380000D03*
D20*
X0026620000Y0050620000D03*
D20*
X0026620000Y0048080000D03*
D20*
X0026620000Y0045540000D03*
D20*
X0026620000Y0043000000D03*
D20*
X0026620000Y0040460000D03*
D20*
X0026620000Y0037920000D03*
D20*
X0026620000Y0035380000D03*
D20*
X0039540000Y0008500000D03*
D20*
X0037000000Y0008500000D03*
D20*
X0034460000Y0008500000D03*
D20*
X0045420000Y0009500000D03*
D20*
X0047960000Y0009500000D03*
D20*
X0050500000Y0009500000D03*
D20*
X0053040000Y0009500000D03*
D20*
X0055580000Y0009500000D03*
D20*
X0060464800Y0028971200D03*
D20*
X0060464800Y0031511200D03*
D20*
X0060464800Y0034051200D03*
D20*
X0060464800Y0036591200D03*
D20*
X0060464800Y0039131200D03*
D21*
X0004500000Y0004500000D03*
D21*
X0059500000Y0004500000D03*
D21*
X0004500000Y0049500000D03*
D21*
X0059500000Y0049500000D03*
%LPD*%
M02*
