M48
; HomeBrain Dedicated Motherboard Generator
METRIC
T01C0.400
T02C1.000
T03C3.400
%
G90
M71
T01
X29.500Y30.500
T02
X11.380Y35.380
X11.380Y37.920
X11.380Y40.460
X11.380Y43.000
X11.380Y45.540
X11.380Y48.080
X11.380Y50.620
X26.620Y35.380
X26.620Y37.920
X26.620Y40.460
X26.620Y43.000
X26.620Y45.540
X26.620Y48.080
X26.620Y50.620
X34.460Y8.500
X37.000Y8.500
X39.540Y8.500
X45.420Y9.500
X47.960Y9.500
X50.500Y9.500
X53.040Y9.500
X55.580Y9.500
X60.465Y28.971
X60.465Y31.511
X60.465Y34.051
X60.465Y36.591
X60.465Y39.131
T03
X4.500Y4.500
X4.500Y49.500
X59.500Y4.500
X59.500Y49.500
M30
