G04 HomeBrain Atmosphere Motherboard front solder mask openings*
%TF.GenerationSoftware,OpenAI,HomeBrain Dedicated Motherboard Generator,1.0*%
%FSLAX46Y46*%
%MOMM*%
%LPD*%
%ADD10C,1.9600*%
%ADD11C,5.3600*%
D10*
X0025500000Y0052850000D03*
D10*
X0025500000Y0050310000D03*
D10*
X0025500000Y0047770000D03*
D10*
X0025500000Y0045230000D03*
D10*
X0025500000Y0042690000D03*
D10*
X0025500000Y0040150000D03*
D10*
X0016190000Y0008500000D03*
D10*
X0018730000Y0008500000D03*
D10*
X0021270000Y0008500000D03*
D10*
X0023810000Y0008500000D03*
D10*
X0051420000Y0009500000D03*
D10*
X0053960000Y0009500000D03*
D10*
X0056500000Y0009500000D03*
D10*
X0059040000Y0009500000D03*
D10*
X0061580000Y0009500000D03*
D10*
X0059000000Y0050890000D03*
D10*
X0059000000Y0048350000D03*
D10*
X0059000000Y0045810000D03*
D10*
X0059000000Y0043270000D03*
D10*
X0059000000Y0040730000D03*
D10*
X0059000000Y0038190000D03*
D10*
X0059000000Y0035650000D03*
D10*
X0059000000Y0033110000D03*
D11*
X0004500000Y0004500000D03*
D11*
X0075500000Y0004500000D03*
D11*
X0004500000Y0059500000D03*
D11*
X0075500000Y0059500000D03*
D10*
X0047620000Y0055540000D03*
D10*
X0032380000Y0060620000D03*
D10*
X0032380000Y0058080000D03*
D10*
X0047620000Y0053000000D03*
D10*
X0032380000Y0055540000D03*
D10*
X0032380000Y0053000000D03*
D10*
X0032380000Y0050460000D03*
D10*
X0032380000Y0047920000D03*
D10*
X0032380000Y0045380000D03*
D10*
X0047620000Y0045380000D03*
D10*
X0047620000Y0047920000D03*
D10*
X0047620000Y0050460000D03*
D10*
X0047620000Y0058080000D03*
D10*
X0047620000Y0060620000D03*
M02*
