M48
; HomeBrain Dedicated Motherboard Generator
METRIC
T01C1.000
T02C3.400
%
G90
M71
T01
X16.190Y8.500
X18.730Y8.500
X21.270Y8.500
X23.810Y8.500
X25.500Y40.150
X25.500Y42.690
X25.500Y45.230
X25.500Y47.770
X25.500Y50.310
X25.500Y52.850
X32.380Y45.380
X32.380Y47.920
X32.380Y50.460
X32.380Y53.000
X32.380Y55.540
X32.380Y58.080
X32.380Y60.620
X47.620Y45.380
X47.620Y47.920
X47.620Y50.460
X47.620Y53.000
X47.620Y55.540
X47.620Y58.080
X47.620Y60.620
X51.420Y9.500
X53.960Y9.500
X56.500Y9.500
X59.000Y33.110
X59.000Y35.650
X59.000Y38.190
X59.000Y40.730
X59.000Y43.270
X59.000Y45.810
X59.000Y48.350
X59.000Y50.890
X59.040Y9.500
X61.580Y9.500
T02
X4.500Y4.500
X4.500Y59.500
X75.500Y4.500
X75.500Y59.500
M30
