M48
; DRILL file generated by HomeBrain Carrier Generator
METRIC,TZ
T01C0.400
T02C0.800
T03C1.000
%
T01
X002000Y041750
X003500Y042750
X008000Y038000
X008000Y044500
T02
X005000Y042000
X008000Y016000
X015000Y042000
X018000Y016000
T03
X003380Y020380
X003380Y035620
X004250Y004500
X004250Y051500
X005500Y012000
X005920Y020380
X005920Y035620
X006750Y004500
X006750Y051500
X008000Y012000
X008460Y020380
X008460Y035620
X009250Y004500
X009250Y051500
X010500Y012000
X011000Y020380
X011000Y035620
X011750Y004500
X011750Y051500
X013540Y020380
X013540Y035620
X016080Y020380
X016080Y035620
X018620Y020380
X018620Y035620
X018750Y012000
X020250Y004500
X020250Y051500
X021250Y012000
X022750Y004500
X022750Y051500
X025250Y004500
X025250Y051500
X027250Y012000
X027750Y004500
X027750Y051500
X029750Y012000
X030200Y040000
X030200Y042600
M30
