G04 HomeBrain carrier front silkscreen*
%TF.GenerationSoftware,OpenAI,HomeBrain Carrier Generator,1.0*%
%FSLAX46Y46*%
%MOMM*%
%LPD*%
%ADD10C,0.1800*%
%ADD11C,0.2500*%
D10*
X0001660000Y0007300000D03*
D10*
X0001660000Y0007480000D03*
D10*
X0001660000Y0007660000D03*
D10*
X0001300000Y0007840000D03*
D10*
X0001660000Y0007840000D03*
D10*
X0001480000Y0008020000D03*
D10*
X0002200000Y0007300000D03*
D10*
X0002020000Y0007480000D03*
D10*
X0002200000Y0007480000D03*
D10*
X0002200000Y0007660000D03*
D10*
X0002200000Y0007840000D03*
D10*
X0002020000Y0008020000D03*
D10*
X0002200000Y0008020000D03*
D10*
X0002380000Y0008020000D03*
D10*
X0013660000Y0007300000D03*
D10*
X0013660000Y0007480000D03*
D10*
X0013660000Y0007660000D03*
D10*
X0013300000Y0007840000D03*
D10*
X0013660000Y0007840000D03*
D10*
X0013480000Y0008020000D03*
D10*
X0014020000Y0007300000D03*
D10*
X0014200000Y0007300000D03*
D10*
X0014380000Y0007480000D03*
D10*
X0014020000Y0007660000D03*
D10*
X0014200000Y0007660000D03*
D10*
X0014380000Y0007660000D03*
D10*
X0014020000Y0007840000D03*
D10*
X0014020000Y0008020000D03*
D10*
X0014200000Y0008020000D03*
D10*
X0014380000Y0008020000D03*
D10*
X0002160000Y0010200000D03*
D10*
X0002160000Y0010380000D03*
D10*
X0002160000Y0010560000D03*
D10*
X0001800000Y0010740000D03*
D10*
X0002160000Y0010740000D03*
D10*
X0001980000Y0010920000D03*
D10*
X0002520000Y0010200000D03*
D10*
X0002700000Y0010200000D03*
D10*
X0002880000Y0010200000D03*
D10*
X0002520000Y0010380000D03*
D10*
X0002520000Y0010560000D03*
D10*
X0002700000Y0010560000D03*
D10*
X0002880000Y0010740000D03*
D10*
X0002520000Y0010920000D03*
D10*
X0002700000Y0010920000D03*
D10*
X0013560000Y0010200000D03*
D10*
X0013560000Y0010380000D03*
D10*
X0013560000Y0010560000D03*
D10*
X0013200000Y0010740000D03*
D10*
X0013560000Y0010740000D03*
D10*
X0013380000Y0010920000D03*
D10*
X0014100000Y0010200000D03*
D10*
X0014280000Y0010200000D03*
D10*
X0013920000Y0010380000D03*
D10*
X0013920000Y0010560000D03*
D10*
X0014100000Y0010560000D03*
D10*
X0014280000Y0010560000D03*
D10*
X0013920000Y0010740000D03*
D10*
X0014280000Y0010740000D03*
D10*
X0013920000Y0010920000D03*
D10*
X0014100000Y0010920000D03*
D10*
X0014280000Y0010920000D03*
D10*
X0026360000Y0009200000D03*
D10*
X0026360000Y0009380000D03*
D10*
X0026360000Y0009560000D03*
D10*
X0026000000Y0009740000D03*
D10*
X0026360000Y0009740000D03*
D10*
X0026180000Y0009920000D03*
D10*
X0026720000Y0009200000D03*
D10*
X0026900000Y0009200000D03*
D10*
X0027080000Y0009200000D03*
D10*
X0027080000Y0009380000D03*
D10*
X0026900000Y0009560000D03*
D10*
X0026900000Y0009740000D03*
D10*
X0026900000Y0009920000D03*
D10*
X0001660000Y0048200000D03*
D10*
X0001660000Y0048380000D03*
D10*
X0001660000Y0048560000D03*
D10*
X0001300000Y0048740000D03*
D10*
X0001660000Y0048740000D03*
D10*
X0001480000Y0048920000D03*
D10*
X0002020000Y0048200000D03*
D10*
X0002200000Y0048200000D03*
D10*
X0002380000Y0048380000D03*
D10*
X0002020000Y0048560000D03*
D10*
X0002200000Y0048560000D03*
D10*
X0002380000Y0048560000D03*
D10*
X0002380000Y0048740000D03*
D10*
X0002020000Y0048920000D03*
D10*
X0002200000Y0048920000D03*
D10*
X0013660000Y0048200000D03*
D10*
X0013660000Y0048380000D03*
D10*
X0013660000Y0048560000D03*
D10*
X0013300000Y0048740000D03*
D10*
X0013660000Y0048740000D03*
D10*
X0013480000Y0048920000D03*
D10*
X0014020000Y0048200000D03*
D10*
X0014380000Y0048200000D03*
D10*
X0014020000Y0048380000D03*
D10*
X0014380000Y0048380000D03*
D10*
X0014020000Y0048560000D03*
D10*
X0014200000Y0048560000D03*
D10*
X0014380000Y0048560000D03*
D10*
X0014380000Y0048740000D03*
D10*
X0014380000Y0048920000D03*
D10*
X0001000000Y0022000000D03*
D10*
X0001000000Y0022360000D03*
D10*
X0000820000Y0022000000D03*
D10*
X0000820000Y0022360000D03*
D10*
X0000640000Y0022000000D03*
D10*
X0000640000Y0022360000D03*
D10*
X0000460000Y0022000000D03*
D10*
X0000460000Y0022360000D03*
D10*
X0000280000Y0022000000D03*
D10*
X0000280000Y0022180000D03*
D10*
X0000280000Y0022360000D03*
D10*
X0001000000Y0022900000D03*
D10*
X0001000000Y0023080000D03*
D10*
X0000820000Y0022720000D03*
D10*
X0000640000Y0022900000D03*
D10*
X0000460000Y0023080000D03*
D10*
X0000280000Y0022720000D03*
D10*
X0000280000Y0022900000D03*
D10*
X0001000000Y0023440000D03*
D10*
X0001000000Y0023620000D03*
D10*
X0000820000Y0023440000D03*
D10*
X0000820000Y0023800000D03*
D10*
X0000640000Y0023440000D03*
D10*
X0000640000Y0023620000D03*
D10*
X0000460000Y0023440000D03*
D10*
X0000460000Y0023800000D03*
D10*
X0000280000Y0023440000D03*
D10*
X0000280000Y0023620000D03*
D10*
X0006600000Y0025200000D03*
D10*
X0006600000Y0025560000D03*
D10*
X0006420000Y0025200000D03*
D10*
X0006420000Y0025560000D03*
D10*
X0006240000Y0025200000D03*
D10*
X0006240000Y0025380000D03*
D10*
X0006240000Y0025560000D03*
D10*
X0006060000Y0025200000D03*
D10*
X0006060000Y0025560000D03*
D10*
X0005880000Y0025200000D03*
D10*
X0005880000Y0025560000D03*
D10*
X0006600000Y0025920000D03*
D10*
X0006600000Y0026100000D03*
D10*
X0006420000Y0025920000D03*
D10*
X0006420000Y0026280000D03*
D10*
X0006240000Y0025920000D03*
D10*
X0006240000Y0026100000D03*
D10*
X0006060000Y0025920000D03*
D10*
X0006060000Y0026280000D03*
D10*
X0005880000Y0025920000D03*
D10*
X0005880000Y0026100000D03*
D10*
X0006600000Y0027360000D03*
D10*
X0006600000Y0027720000D03*
D10*
X0006420000Y0027360000D03*
D10*
X0006420000Y0027720000D03*
D10*
X0006240000Y0027360000D03*
D10*
X0006240000Y0027720000D03*
D10*
X0006060000Y0027360000D03*
D10*
X0006060000Y0027720000D03*
D10*
X0005880000Y0027540000D03*
D10*
X0006600000Y0028260000D03*
D10*
X0006420000Y0028080000D03*
D10*
X0006420000Y0028260000D03*
D10*
X0006240000Y0028260000D03*
D10*
X0006060000Y0028260000D03*
D10*
X0005880000Y0028080000D03*
D10*
X0005880000Y0028260000D03*
D10*
X0005880000Y0028440000D03*
D10*
X0027200000Y0038180000D03*
D10*
X0027200000Y0038360000D03*
D10*
X0027020000Y0038000000D03*
D10*
X0026840000Y0038180000D03*
D10*
X0026660000Y0038360000D03*
D10*
X0026480000Y0038000000D03*
D10*
X0026480000Y0038180000D03*
D10*
X0027200000Y0038720000D03*
D10*
X0027200000Y0039080000D03*
D10*
X0027020000Y0038720000D03*
D10*
X0027020000Y0039080000D03*
D10*
X0026840000Y0038720000D03*
D10*
X0026840000Y0039080000D03*
D10*
X0026660000Y0038720000D03*
D10*
X0026660000Y0039080000D03*
D10*
X0026480000Y0038900000D03*
D10*
X0027200000Y0039620000D03*
D10*
X0027200000Y0039800000D03*
D10*
X0027020000Y0039440000D03*
D10*
X0026840000Y0039440000D03*
D10*
X0026660000Y0039440000D03*
D10*
X0026480000Y0039620000D03*
D10*
X0026480000Y0039800000D03*
D10*
X0009800000Y0014400000D03*
D10*
X0009980000Y0014400000D03*
D10*
X0009800000Y0014580000D03*
D10*
X0010160000Y0014580000D03*
D10*
X0009800000Y0014760000D03*
D10*
X0009980000Y0014760000D03*
D10*
X0009800000Y0014940000D03*
D10*
X0010160000Y0014940000D03*
D10*
X0009800000Y0015120000D03*
D10*
X0010160000Y0015120000D03*
D10*
X0010700000Y0014400000D03*
D10*
X0010520000Y0014580000D03*
D10*
X0010700000Y0014580000D03*
D10*
X0010700000Y0014760000D03*
D10*
X0010700000Y0014940000D03*
D10*
X0010520000Y0015120000D03*
D10*
X0010700000Y0015120000D03*
D10*
X0010880000Y0015120000D03*
D10*
X0003800000Y0040000000D03*
D10*
X0003980000Y0040000000D03*
D10*
X0003800000Y0040180000D03*
D10*
X0004160000Y0040180000D03*
D10*
X0003800000Y0040360000D03*
D10*
X0003980000Y0040360000D03*
D10*
X0003800000Y0040540000D03*
D10*
X0004160000Y0040540000D03*
D10*
X0003800000Y0040720000D03*
D10*
X0004160000Y0040720000D03*
D10*
X0004520000Y0040000000D03*
D10*
X0004700000Y0040000000D03*
D10*
X0004880000Y0040180000D03*
D10*
X0004520000Y0040360000D03*
D10*
X0004700000Y0040360000D03*
D10*
X0004880000Y0040360000D03*
D10*
X0004520000Y0040540000D03*
D10*
X0004520000Y0040720000D03*
D10*
X0004700000Y0040720000D03*
D10*
X0004880000Y0040720000D03*
D11*
X0000500000Y0019100000D02*
X0021500000Y0019100000D01*
D11*
X0021500000Y0019100000D02*
X0021500000Y0036900000D01*
D11*
X0021500000Y0036900000D02*
X0000500000Y0036900000D01*
D11*
X0000500000Y0036900000D02*
X0000500000Y0019100000D01*
D11*
X0004250000Y0002900000D03*
D11*
X0020250000Y0002900000D03*
D11*
X0005500000Y0010400000D03*
D11*
X0018750000Y0010400000D03*
D11*
X0027250000Y0010400000D03*
D11*
X0004250000Y0049900000D03*
D11*
X0020250000Y0049900000D03*
M02*
