G04 HomeBrain carrier F.Cu*
%TF.GenerationSoftware,OpenAI,HomeBrain Carrier Generator,1.0*%
%FSLAX46Y46*%
%MOMM*%
%LPD*%
%ADD10C,0.4000*%
%ADD11C,0.8000*%
%ADD12C,0.9000*%
%ADD13C,1.0000*%
%ADD14C,1.3000*%
%ADD15C,1.5000*%
%ADD16C,1.8000*%
%ADD17C,2.0000*%
%ADD18C,2.3000*%
%ADD19C,2.5000*%
%ADD20R,0.2600X0.2600*%
G36*
X0000600000Y0000600000D02*
X0031400000Y0000600000D01*
X0031400000Y0055400000D01*
X0000600000Y0055400000D01*
X0000600000Y0000600000D01*
G37*
%LPC*%
D18*
X0006750000Y0004500000D03*
D18*
X0009250000Y0004500000D03*
D18*
X0011750000Y0004500000D03*
D18*
X0022750000Y0004500000D03*
D18*
X0025250000Y0004500000D03*
D18*
X0027750000Y0004500000D03*
D18*
X0006750000Y0051500000D03*
D18*
X0009250000Y0051500000D03*
D18*
X0011750000Y0051500000D03*
D18*
X0022750000Y0051500000D03*
D18*
X0025250000Y0051500000D03*
D18*
X0027750000Y0051500000D03*
D18*
X0008000000Y0012000000D03*
D18*
X0010500000Y0012000000D03*
D18*
X0021250000Y0012000000D03*
D18*
X0029750000Y0012000000D03*
D18*
X0008000000Y0016000000D03*
D18*
X0018000000Y0016000000D03*
D18*
X0005000000Y0042000000D03*
D19*
X0030200000Y0040000000D03*
D18*
X0008460000Y0035620000D03*
D18*
X0003380000Y0020380000D03*
D18*
X0005920000Y0020380000D03*
D18*
X0011000000Y0035620000D03*
D18*
X0008460000Y0020380000D03*
D18*
X0011000000Y0020380000D03*
D18*
X0013540000Y0020380000D03*
D18*
X0016080000Y0020380000D03*
D18*
X0018620000Y0020380000D03*
D18*
X0018620000Y0035620000D03*
D18*
X0016080000Y0035620000D03*
D18*
X0013540000Y0035620000D03*
D18*
X0003380000Y0035620000D03*
D14*
X0007500000Y0004000000D02*
X0007500000Y0004500000D01*
D14*
X0007500000Y0004500000D02*
X0006750000Y0004500000D01*
D14*
X0007750000Y0003500000D02*
X0007750000Y0004000000D01*
D14*
X0007750000Y0004000000D02*
X0007500000Y0004000000D01*
D14*
X0008000000Y0003250000D02*
X0008000000Y0003500000D01*
D14*
X0008000000Y0003500000D02*
X0007750000Y0003500000D01*
D14*
X0008000000Y0037500000D02*
X0008500000Y0037500000D01*
D14*
X0008000000Y0044500000D02*
X0008000000Y0037500000D01*
D14*
X0008250000Y0003000000D02*
X0008250000Y0003250000D01*
D14*
X0008250000Y0003250000D02*
X0008000000Y0003250000D01*
D14*
X0008500000Y0002750000D02*
X0008500000Y0003000000D01*
D14*
X0008500000Y0003000000D02*
X0008250000Y0003000000D01*
D14*
X0008500000Y0035500000D02*
X0008500000Y0037500000D01*
D14*
X0020750000Y0002750000D02*
X0008500000Y0002750000D01*
D14*
X0020750000Y0003000000D02*
X0020750000Y0002750000D01*
D14*
X0021250000Y0003000000D02*
X0020750000Y0003000000D01*
D14*
X0021250000Y0003250000D02*
X0021250000Y0003000000D01*
D14*
X0021500000Y0003250000D02*
X0021250000Y0003250000D01*
D14*
X0021500000Y0003500000D02*
X0021500000Y0003250000D01*
D14*
X0021750000Y0003500000D02*
X0021500000Y0003500000D01*
D14*
X0021750000Y0004000000D02*
X0021750000Y0003500000D01*
D14*
X0022000000Y0004000000D02*
X0021750000Y0004000000D01*
D14*
X0022000000Y0004500000D02*
X0022000000Y0004000000D01*
D14*
X0022750000Y0004500000D02*
X0022000000Y0004500000D01*
D12*
X0001250000Y0020500000D02*
X0003500000Y0020500000D01*
D12*
X0001250000Y0037000000D02*
X0001250000Y0020500000D01*
D12*
X0001500000Y0037000000D02*
X0001250000Y0037000000D01*
D12*
X0001500000Y0037250000D02*
X0001500000Y0037000000D01*
D12*
X0001750000Y0037250000D02*
X0001500000Y0037250000D01*
D12*
X0001750000Y0041250000D02*
X0001750000Y0037250000D01*
D12*
X0002000000Y0041250000D02*
X0001750000Y0041250000D01*
D12*
X0002000000Y0041750000D02*
X0002000000Y0041250000D01*
D12*
X0003500000Y0016000000D02*
X0003500000Y0018500000D01*
D12*
X0003500000Y0020500000D02*
X0003500000Y0018500000D01*
D12*
X0008000000Y0016000000D02*
X0003500000Y0016000000D01*
D14*
X0018000000Y0013750000D02*
X0019250000Y0013750000D01*
D14*
X0018000000Y0016000000D02*
X0018000000Y0013750000D01*
D14*
X0019250000Y0013500000D02*
X0019750000Y0013500000D01*
D14*
X0019250000Y0013750000D02*
X0019250000Y0013500000D01*
D14*
X0019750000Y0013250000D02*
X0020000000Y0013250000D01*
D14*
X0019750000Y0013500000D02*
X0019750000Y0013250000D01*
D14*
X0019750000Y0013750000D02*
X0019750000Y0013500000D01*
D14*
X0020000000Y0013000000D02*
X0020250000Y0013000000D01*
D14*
X0020000000Y0013250000D02*
X0020000000Y0013000000D01*
D14*
X0020250000Y0012500000D02*
X0020500000Y0012500000D01*
D14*
X0020250000Y0013000000D02*
X0020250000Y0012500000D01*
D14*
X0020500000Y0012000000D02*
X0021250000Y0012000000D01*
D14*
X0020500000Y0012500000D02*
X0020500000Y0012000000D01*
D14*
X0027750000Y0013500000D02*
X0027750000Y0013750000D01*
D14*
X0027750000Y0013750000D02*
X0019750000Y0013750000D01*
D14*
X0028250000Y0013250000D02*
X0028250000Y0013500000D01*
D14*
X0028250000Y0013500000D02*
X0027750000Y0013500000D01*
D14*
X0028500000Y0013000000D02*
X0028500000Y0013250000D01*
D14*
X0028500000Y0013250000D02*
X0028250000Y0013250000D01*
D14*
X0028750000Y0012500000D02*
X0028750000Y0013000000D01*
D14*
X0028750000Y0013000000D02*
X0028500000Y0013000000D01*
D14*
X0029000000Y0012000000D02*
X0029000000Y0012500000D01*
D14*
X0029000000Y0012500000D02*
X0028750000Y0012500000D01*
D14*
X0029750000Y0012000000D02*
X0029000000Y0012000000D01*
D12*
X0008000000Y0012000000D02*
X0008000000Y0014500000D01*
D12*
X0008000000Y0014500000D02*
X0008750000Y0014500000D01*
D12*
X0008500000Y0017500000D02*
X0008500000Y0018500000D01*
D12*
X0008500000Y0020500000D02*
X0008500000Y0018500000D01*
D12*
X0008750000Y0014500000D02*
X0008750000Y0014750000D01*
D12*
X0008750000Y0014750000D02*
X0009000000Y0014750000D01*
D12*
X0008750000Y0017250000D02*
X0008750000Y0017500000D01*
D12*
X0008750000Y0017500000D02*
X0008500000Y0017500000D01*
D12*
X0009000000Y0014750000D02*
X0009000000Y0015000000D01*
D12*
X0009000000Y0015000000D02*
X0009250000Y0015000000D01*
D12*
X0009000000Y0017000000D02*
X0009000000Y0017250000D01*
D12*
X0009000000Y0017250000D02*
X0008750000Y0017250000D01*
D12*
X0009250000Y0015000000D02*
X0009250000Y0015250000D01*
D12*
X0009250000Y0015250000D02*
X0009500000Y0015250000D01*
D12*
X0009250000Y0016750000D02*
X0009250000Y0017000000D01*
D12*
X0009250000Y0017000000D02*
X0009000000Y0017000000D01*
D12*
X0009500000Y0015250000D02*
X0009500000Y0016750000D01*
D12*
X0009500000Y0016750000D02*
X0009250000Y0016750000D01*
D12*
X0010500000Y0012000000D02*
X0010500000Y0018500000D01*
D12*
X0010500000Y0018500000D02*
X0011000000Y0018500000D01*
D12*
X0011000000Y0018500000D02*
X0011000000Y0020500000D01*
D12*
X0002000000Y0021750000D02*
X0012000000Y0021750000D01*
D12*
X0002000000Y0036500000D02*
X0002000000Y0021750000D01*
D12*
X0002250000Y0036500000D02*
X0002000000Y0036500000D01*
D12*
X0002250000Y0036750000D02*
X0002250000Y0036500000D01*
D12*
X0002500000Y0036750000D02*
X0002250000Y0036750000D01*
D12*
X0002500000Y0040750000D02*
X0002500000Y0036750000D01*
D12*
X0002750000Y0040750000D02*
X0002500000Y0040750000D01*
D12*
X0002750000Y0041000000D02*
X0002750000Y0040750000D01*
D12*
X0003000000Y0041000000D02*
X0002750000Y0041000000D01*
D12*
X0003000000Y0041250000D02*
X0003000000Y0041000000D01*
D12*
X0003500000Y0041250000D02*
X0003000000Y0041250000D01*
D12*
X0003500000Y0042750000D02*
X0003500000Y0041250000D01*
D12*
X0009250000Y0004500000D02*
X0009250000Y0010500000D01*
D12*
X0009250000Y0010500000D02*
X0011250000Y0010500000D01*
D12*
X0011250000Y0010500000D02*
X0011250000Y0010750000D01*
D12*
X0011250000Y0010750000D02*
X0011500000Y0010750000D01*
D12*
X0011500000Y0010750000D02*
X0011500000Y0011000000D01*
D12*
X0011500000Y0011000000D02*
X0011750000Y0011000000D01*
D12*
X0011750000Y0011000000D02*
X0011750000Y0011250000D01*
D12*
X0011750000Y0011250000D02*
X0012000000Y0011250000D01*
D12*
X0012000000Y0011250000D02*
X0012000000Y0018500000D01*
D12*
X0012000000Y0018500000D02*
X0013500000Y0018500000D01*
D12*
X0012000000Y0021500000D02*
X0012250000Y0021500000D01*
D12*
X0012000000Y0021750000D02*
X0012000000Y0021500000D01*
D12*
X0012250000Y0021000000D02*
X0012500000Y0021000000D01*
D12*
X0012250000Y0021500000D02*
X0012250000Y0021000000D01*
D12*
X0012500000Y0020500000D02*
X0013500000Y0020500000D01*
D12*
X0012500000Y0021000000D02*
X0012500000Y0020500000D01*
D12*
X0013500000Y0020500000D02*
X0013500000Y0018500000D01*
D12*
X0023500000Y0005750000D02*
X0023500000Y0006000000D01*
D12*
X0023500000Y0006000000D02*
X0009250000Y0006000000D01*
D12*
X0023750000Y0005500000D02*
X0023750000Y0005750000D01*
D12*
X0023750000Y0005750000D02*
X0023500000Y0005750000D01*
D12*
X0024000000Y0005250000D02*
X0024000000Y0005500000D01*
D12*
X0024000000Y0005500000D02*
X0023750000Y0005500000D01*
D12*
X0024250000Y0004500000D02*
X0024250000Y0005250000D01*
D12*
X0024250000Y0005250000D02*
X0024000000Y0005250000D01*
D12*
X0025250000Y0004500000D02*
X0024250000Y0004500000D01*
D12*
X0017250000Y0021250000D02*
X0017500000Y0021250000D01*
D12*
X0017250000Y0034250000D02*
X0017250000Y0021250000D01*
D12*
X0017500000Y0020500000D02*
X0018500000Y0020500000D01*
D12*
X0017500000Y0021250000D02*
X0017500000Y0020500000D01*
D12*
X0018500000Y0020500000D02*
X0018500000Y0018500000D01*
D12*
X0019500000Y0034250000D02*
X0017250000Y0034250000D01*
D12*
X0019500000Y0034500000D02*
X0019500000Y0034250000D01*
D12*
X0019750000Y0034500000D02*
X0019500000Y0034500000D01*
D12*
X0019750000Y0034750000D02*
X0019750000Y0034500000D01*
D12*
X0020000000Y0034750000D02*
X0019750000Y0034750000D01*
D12*
X0020000000Y0050000000D02*
X0020000000Y0034750000D01*
D12*
X0023500000Y0050000000D02*
X0020000000Y0050000000D01*
D12*
X0023500000Y0050250000D02*
X0023500000Y0050000000D01*
D12*
X0023750000Y0050250000D02*
X0023500000Y0050250000D01*
D12*
X0023750000Y0050500000D02*
X0023750000Y0050250000D01*
D12*
X0024000000Y0050500000D02*
X0023750000Y0050500000D01*
D12*
X0024000000Y0050750000D02*
X0024000000Y0050500000D01*
D12*
X0024250000Y0050750000D02*
X0024000000Y0050750000D01*
D12*
X0024250000Y0051500000D02*
X0024250000Y0050750000D01*
D12*
X0025250000Y0051500000D02*
X0024250000Y0051500000D01*
D14*
X0003500000Y0035500000D02*
X0003500000Y0037500000D01*
D14*
X0003500000Y0040250000D02*
X0003500000Y0037500000D01*
D14*
X0005500000Y0040250000D02*
X0003500000Y0040250000D01*
D14*
X0005500000Y0040500000D02*
X0005500000Y0040250000D01*
D14*
X0006000000Y0040500000D02*
X0005500000Y0040500000D01*
D14*
X0006000000Y0040750000D02*
X0006000000Y0040500000D01*
D14*
X0006250000Y0040750000D02*
X0006000000Y0040750000D01*
D14*
X0006250000Y0041000000D02*
X0006250000Y0040750000D01*
D14*
X0006500000Y0041000000D02*
X0006250000Y0041000000D01*
D14*
X0006500000Y0041500000D02*
X0006500000Y0041000000D01*
D14*
X0006750000Y0041500000D02*
X0006500000Y0041500000D01*
D14*
X0006750000Y0049750000D02*
X0006750000Y0041500000D01*
D14*
X0012250000Y0049750000D02*
X0006750000Y0049750000D01*
D14*
X0012250000Y0050000000D02*
X0012250000Y0049750000D01*
D14*
X0012750000Y0050000000D02*
X0012250000Y0050000000D01*
D14*
X0012750000Y0050250000D02*
X0012750000Y0050000000D01*
D14*
X0013000000Y0050250000D02*
X0012750000Y0050250000D01*
D14*
X0013000000Y0050500000D02*
X0013000000Y0050250000D01*
D14*
X0013250000Y0050500000D02*
X0013000000Y0050500000D01*
D14*
X0013250000Y0051000000D02*
X0013250000Y0050500000D01*
D14*
X0013500000Y0051000000D02*
X0013250000Y0051000000D01*
D14*
X0013500000Y0053250000D02*
X0013500000Y0051000000D01*
D14*
X0020750000Y0053000000D02*
X0020750000Y0053250000D01*
D14*
X0020750000Y0053250000D02*
X0013500000Y0053250000D01*
D14*
X0021250000Y0052750000D02*
X0021250000Y0053000000D01*
D14*
X0021250000Y0053000000D02*
X0020750000Y0053000000D01*
D14*
X0021500000Y0052500000D02*
X0021500000Y0052750000D01*
D14*
X0021500000Y0052750000D02*
X0021250000Y0052750000D01*
D14*
X0021750000Y0052000000D02*
X0021750000Y0052500000D01*
D14*
X0021750000Y0052500000D02*
X0021500000Y0052500000D01*
D14*
X0022000000Y0051500000D02*
X0022000000Y0052000000D01*
D14*
X0022000000Y0052000000D02*
X0021750000Y0052000000D01*
D14*
X0022750000Y0051500000D02*
X0022000000Y0051500000D01*
D15*
X0008000000Y0038000000D03*
D15*
X0008000000Y0044500000D03*
D15*
X0002000000Y0041750000D03*
D15*
X0003500000Y0042750000D03*
G36*
X0017500000Y0022000000D02*
X0032000000Y0022000000D01*
X0032000000Y0034000000D01*
X0017500000Y0034000000D01*
X0017500000Y0022000000D01*
G37*
D20*
X0001750000Y0021000000D03*
D20*
X0001750000Y0021250000D03*
D20*
X0002000000Y0021000000D03*
D20*
X0002000000Y0021250000D03*
D20*
X0002250000Y0021000000D03*
D20*
X0002250000Y0021250000D03*
D20*
X0002500000Y0021250000D03*
D20*
X0004000000Y0016500000D03*
D20*
X0004000000Y0016750000D03*
D20*
X0004000000Y0017000000D03*
D20*
X0004000000Y0017250000D03*
D20*
X0004000000Y0017500000D03*
D20*
X0004000000Y0017750000D03*
D20*
X0004000000Y0018000000D03*
D20*
X0004000000Y0018250000D03*
D20*
X0004000000Y0018500000D03*
D20*
X0004000000Y0018750000D03*
D20*
X0004000000Y0019000000D03*
D20*
X0004000000Y0019250000D03*
D20*
X0004000000Y0041000000D03*
D20*
X0004000000Y0041250000D03*
D20*
X0004250000Y0016500000D03*
D20*
X0004250000Y0016750000D03*
D20*
X0004250000Y0017000000D03*
D20*
X0004250000Y0017250000D03*
D20*
X0004250000Y0017500000D03*
D20*
X0004250000Y0017750000D03*
D20*
X0004250000Y0018000000D03*
D20*
X0004250000Y0018250000D03*
D20*
X0004250000Y0018500000D03*
D20*
X0004250000Y0018750000D03*
D20*
X0004250000Y0019000000D03*
D20*
X0004250000Y0019250000D03*
D20*
X0004250000Y0019500000D03*
D20*
X0004250000Y0021250000D03*
D20*
X0004250000Y0041000000D03*
D20*
X0004500000Y0016500000D03*
D20*
X0004500000Y0016750000D03*
D20*
X0004500000Y0017000000D03*
D20*
X0004500000Y0017250000D03*
D20*
X0004500000Y0017500000D03*
D20*
X0004500000Y0017750000D03*
D20*
X0004500000Y0018000000D03*
D20*
X0004500000Y0018250000D03*
D20*
X0004500000Y0018500000D03*
D20*
X0004500000Y0018750000D03*
D20*
X0004500000Y0019000000D03*
D20*
X0004500000Y0019250000D03*
D20*
X0004500000Y0019500000D03*
D20*
X0004500000Y0019750000D03*
D20*
X0004500000Y0020000000D03*
D20*
X0004500000Y0020750000D03*
D20*
X0004500000Y0021000000D03*
D20*
X0004500000Y0021250000D03*
D20*
X0004750000Y0016500000D03*
D20*
X0004750000Y0016750000D03*
D20*
X0004750000Y0017000000D03*
D20*
X0004750000Y0017250000D03*
D20*
X0004750000Y0017500000D03*
D20*
X0004750000Y0017750000D03*
D20*
X0004750000Y0018000000D03*
D20*
X0004750000Y0018250000D03*
D20*
X0004750000Y0018500000D03*
D20*
X0004750000Y0018750000D03*
D20*
X0004750000Y0019000000D03*
D20*
X0004750000Y0019250000D03*
D20*
X0004750000Y0019500000D03*
D20*
X0004750000Y0019750000D03*
D20*
X0004750000Y0020000000D03*
D20*
X0004750000Y0020250000D03*
D20*
X0004750000Y0020500000D03*
D20*
X0004750000Y0020750000D03*
D20*
X0004750000Y0021000000D03*
D20*
X0004750000Y0021250000D03*
D20*
X0005000000Y0016500000D03*
D20*
X0005000000Y0016750000D03*
D20*
X0005000000Y0017000000D03*
D20*
X0005000000Y0017250000D03*
D20*
X0005000000Y0017500000D03*
D20*
X0005000000Y0017750000D03*
D20*
X0005000000Y0018000000D03*
D20*
X0005000000Y0018250000D03*
D20*
X0005000000Y0018500000D03*
D20*
X0005000000Y0018750000D03*
D20*
X0005000000Y0019000000D03*
D20*
X0005000000Y0019250000D03*
D20*
X0005000000Y0019500000D03*
D20*
X0005000000Y0021250000D03*
D20*
X0005250000Y0016500000D03*
D20*
X0005250000Y0016750000D03*
D20*
X0005250000Y0017000000D03*
D20*
X0005250000Y0017250000D03*
D20*
X0005250000Y0017500000D03*
D20*
X0005250000Y0017750000D03*
D20*
X0005250000Y0018000000D03*
D20*
X0005250000Y0018250000D03*
D20*
X0005250000Y0018500000D03*
D20*
X0005250000Y0018750000D03*
D20*
X0005250000Y0019000000D03*
D20*
X0005250000Y0019250000D03*
D20*
X0005500000Y0016500000D03*
D20*
X0005500000Y0016750000D03*
D20*
X0005500000Y0017000000D03*
D20*
X0005500000Y0017250000D03*
D20*
X0005500000Y0017500000D03*
D20*
X0005500000Y0017750000D03*
D20*
X0005500000Y0018000000D03*
D20*
X0005500000Y0018250000D03*
D20*
X0005500000Y0018500000D03*
D20*
X0005500000Y0018750000D03*
D20*
X0005500000Y0019000000D03*
D20*
X0005500000Y0019250000D03*
D20*
X0005750000Y0016500000D03*
D20*
X0005750000Y0016750000D03*
D20*
X0005750000Y0017000000D03*
D20*
X0005750000Y0017250000D03*
D20*
X0005750000Y0017500000D03*
D20*
X0005750000Y0017750000D03*
D20*
X0005750000Y0018000000D03*
D20*
X0005750000Y0018250000D03*
D20*
X0005750000Y0018500000D03*
D20*
X0005750000Y0018750000D03*
D20*
X0005750000Y0019000000D03*
D20*
X0006000000Y0016500000D03*
D20*
X0006000000Y0016750000D03*
D20*
X0006000000Y0017000000D03*
D20*
X0006000000Y0017250000D03*
D20*
X0006000000Y0017500000D03*
D20*
X0006000000Y0017750000D03*
D20*
X0006000000Y0018000000D03*
D20*
X0006000000Y0018250000D03*
D20*
X0006000000Y0018500000D03*
D20*
X0006000000Y0018750000D03*
D20*
X0006000000Y0019000000D03*
D20*
X0006250000Y0016500000D03*
D20*
X0006250000Y0016750000D03*
D20*
X0006250000Y0017000000D03*
D20*
X0006250000Y0017250000D03*
D20*
X0006250000Y0017500000D03*
D20*
X0006250000Y0017750000D03*
D20*
X0006250000Y0018000000D03*
D20*
X0006250000Y0018250000D03*
D20*
X0006250000Y0018500000D03*
D20*
X0006250000Y0018750000D03*
D20*
X0006250000Y0019000000D03*
D20*
X0006250000Y0019250000D03*
D20*
X0006500000Y0016500000D03*
D20*
X0006500000Y0016750000D03*
D20*
X0006500000Y0017000000D03*
D20*
X0006500000Y0017250000D03*
D20*
X0006500000Y0017500000D03*
D20*
X0006500000Y0017750000D03*
D20*
X0006500000Y0018000000D03*
D20*
X0006500000Y0018250000D03*
D20*
X0006500000Y0018500000D03*
D20*
X0006500000Y0018750000D03*
D20*
X0006500000Y0019000000D03*
D20*
X0006500000Y0019250000D03*
D20*
X0006750000Y0016500000D03*
D20*
X0006750000Y0016750000D03*
D20*
X0006750000Y0017000000D03*
D20*
X0006750000Y0017250000D03*
D20*
X0006750000Y0017500000D03*
D20*
X0006750000Y0017750000D03*
D20*
X0006750000Y0018000000D03*
D20*
X0006750000Y0018250000D03*
D20*
X0006750000Y0018500000D03*
D20*
X0006750000Y0018750000D03*
D20*
X0006750000Y0019000000D03*
D20*
X0006750000Y0019250000D03*
D20*
X0006750000Y0019500000D03*
D20*
X0006750000Y0021250000D03*
D20*
X0007000000Y0016750000D03*
D20*
X0007000000Y0017000000D03*
D20*
X0007000000Y0017250000D03*
D20*
X0007000000Y0017500000D03*
D20*
X0007000000Y0017750000D03*
D20*
X0007000000Y0018000000D03*
D20*
X0007000000Y0018250000D03*
D20*
X0007000000Y0018500000D03*
D20*
X0007000000Y0018750000D03*
D20*
X0007000000Y0019000000D03*
D20*
X0007000000Y0019250000D03*
D20*
X0007000000Y0019500000D03*
D20*
X0007000000Y0019750000D03*
D20*
X0007000000Y0021000000D03*
D20*
X0007000000Y0021250000D03*
D20*
X0007250000Y0017000000D03*
D20*
X0007250000Y0017250000D03*
D20*
X0007250000Y0017500000D03*
D20*
X0007250000Y0017750000D03*
D20*
X0007250000Y0018000000D03*
D20*
X0007250000Y0018250000D03*
D20*
X0007250000Y0018500000D03*
D20*
X0007250000Y0018750000D03*
D20*
X0007250000Y0019000000D03*
D20*
X0007250000Y0019250000D03*
D20*
X0007250000Y0019500000D03*
D20*
X0007250000Y0019750000D03*
D20*
X0007250000Y0020000000D03*
D20*
X0007250000Y0020250000D03*
D20*
X0007250000Y0020500000D03*
D20*
X0007250000Y0020750000D03*
D20*
X0007250000Y0021000000D03*
D20*
X0007250000Y0021250000D03*
D20*
X0007500000Y0017250000D03*
D20*
X0007500000Y0017500000D03*
D20*
X0007500000Y0017750000D03*
D20*
X0007500000Y0018000000D03*
D20*
X0007500000Y0018250000D03*
D20*
X0007500000Y0018500000D03*
D20*
X0007500000Y0018750000D03*
D20*
X0007500000Y0019000000D03*
D20*
X0007500000Y0019250000D03*
D20*
X0007500000Y0019500000D03*
D20*
X0007500000Y0021250000D03*
D20*
X0007750000Y0017250000D03*
D20*
X0007750000Y0017500000D03*
D20*
X0007750000Y0017750000D03*
D20*
X0007750000Y0018000000D03*
D20*
X0007750000Y0018250000D03*
D20*
X0007750000Y0018500000D03*
D20*
X0007750000Y0018750000D03*
D20*
X0007750000Y0019000000D03*
D20*
X0007750000Y0019250000D03*
D20*
X0008000000Y0017250000D03*
D20*
X0008000000Y0017500000D03*
D20*
X0008000000Y0017750000D03*
D20*
X0008000000Y0018000000D03*
D20*
X0008000000Y0018250000D03*
D20*
X0008000000Y0018500000D03*
D20*
X0008000000Y0018750000D03*
D20*
X0008000000Y0019000000D03*
D20*
X0008000000Y0019250000D03*
D20*
X0010000000Y0003500000D03*
D20*
X0010000000Y0005500000D03*
D20*
X0010250000Y0003500000D03*
D20*
X0010250000Y0003750000D03*
D20*
X0010250000Y0005250000D03*
D20*
X0010250000Y0005500000D03*
D20*
X0010500000Y0003500000D03*
D20*
X0010500000Y0003750000D03*
D20*
X0010500000Y0004000000D03*
D20*
X0010500000Y0004250000D03*
D20*
X0010500000Y0004500000D03*
D20*
X0010500000Y0004750000D03*
D20*
X0010500000Y0005000000D03*
D20*
X0010500000Y0005250000D03*
D20*
X0010500000Y0005500000D03*
D20*
X0010750000Y0003500000D03*
D20*
X0010750000Y0003750000D03*
D20*
X0010750000Y0005250000D03*
D20*
X0010750000Y0005500000D03*
D20*
X0011000000Y0003500000D03*
D20*
X0011000000Y0005500000D03*
D20*
X0011000000Y0013250000D03*
D20*
X0011000000Y0013500000D03*
D20*
X0011000000Y0013750000D03*
D20*
X0011000000Y0014000000D03*
D20*
X0011000000Y0014250000D03*
D20*
X0011000000Y0014500000D03*
D20*
X0011000000Y0014750000D03*
D20*
X0011000000Y0015000000D03*
D20*
X0011000000Y0015250000D03*
D20*
X0011000000Y0015500000D03*
D20*
X0011000000Y0015750000D03*
D20*
X0011000000Y0016000000D03*
D20*
X0011000000Y0016250000D03*
D20*
X0011000000Y0016500000D03*
D20*
X0011000000Y0016750000D03*
D20*
X0011000000Y0017000000D03*
D20*
X0011000000Y0017250000D03*
D20*
X0011000000Y0017500000D03*
D20*
X0011000000Y0017750000D03*
D20*
X0011000000Y0018000000D03*
D20*
X0011250000Y0013000000D03*
D20*
X0011250000Y0013250000D03*
D20*
X0011250000Y0013500000D03*
D20*
X0011250000Y0013750000D03*
D20*
X0011250000Y0014000000D03*
D20*
X0011250000Y0014250000D03*
D20*
X0011250000Y0014500000D03*
D20*
X0011250000Y0014750000D03*
D20*
X0011250000Y0015000000D03*
D20*
X0011250000Y0015250000D03*
D20*
X0011250000Y0015500000D03*
D20*
X0011250000Y0015750000D03*
D20*
X0011250000Y0016000000D03*
D20*
X0011250000Y0016250000D03*
D20*
X0011250000Y0016500000D03*
D20*
X0011250000Y0016750000D03*
D20*
X0011250000Y0017000000D03*
D20*
X0011250000Y0017250000D03*
D20*
X0011250000Y0017500000D03*
D20*
X0011250000Y0017750000D03*
D20*
X0011250000Y0018000000D03*
D20*
X0011500000Y0012750000D03*
D20*
X0011500000Y0013000000D03*
D20*
X0011500000Y0013250000D03*
D20*
X0011500000Y0013500000D03*
D20*
X0011500000Y0013750000D03*
D20*
X0011500000Y0014000000D03*
D20*
X0011500000Y0014250000D03*
D20*
X0011500000Y0014500000D03*
D20*
X0011500000Y0014750000D03*
D20*
X0011500000Y0015000000D03*
D20*
X0011500000Y0015250000D03*
D20*
X0011500000Y0015500000D03*
D20*
X0011500000Y0015750000D03*
D20*
X0011500000Y0016000000D03*
D20*
X0011500000Y0016250000D03*
D20*
X0011500000Y0016500000D03*
D20*
X0011500000Y0016750000D03*
D20*
X0011500000Y0017000000D03*
D20*
X0011500000Y0017250000D03*
D20*
X0011500000Y0017500000D03*
D20*
X0011500000Y0017750000D03*
D20*
X0011500000Y0018000000D03*
D20*
X0011500000Y0018250000D03*
D20*
X0011500000Y0018500000D03*
D20*
X0011500000Y0018750000D03*
D20*
X0011500000Y0019000000D03*
D20*
X0011500000Y0019250000D03*
D20*
X0011750000Y0019000000D03*
D20*
X0011750000Y0019250000D03*
D20*
X0011750000Y0019500000D03*
D20*
X0012000000Y0019000000D03*
D20*
X0012000000Y0019250000D03*
D20*
X0012000000Y0019500000D03*
D20*
X0012000000Y0019750000D03*
D20*
X0012250000Y0019000000D03*
D20*
X0012250000Y0019250000D03*
D20*
X0012250000Y0019500000D03*
D20*
X0012250000Y0019750000D03*
D20*
X0012250000Y0020000000D03*
D20*
X0012500000Y0019000000D03*
D20*
X0012500000Y0019250000D03*
D20*
X0012500000Y0019500000D03*
D20*
X0012500000Y0019750000D03*
D20*
X0012750000Y0019000000D03*
D20*
X0012750000Y0019250000D03*
D20*
X0012750000Y0019500000D03*
D20*
X0013000000Y0019000000D03*
D20*
X0013000000Y0019250000D03*
%LPD*%
D16*
X0004250000Y0004500000D03*
D16*
X0006750000Y0004500000D03*
D16*
X0009250000Y0004500000D03*
D16*
X0011750000Y0004500000D03*
D16*
X0020250000Y0004500000D03*
D16*
X0022750000Y0004500000D03*
D16*
X0025250000Y0004500000D03*
D16*
X0027750000Y0004500000D03*
D16*
X0004250000Y0051500000D03*
D16*
X0006750000Y0051500000D03*
D16*
X0009250000Y0051500000D03*
D16*
X0011750000Y0051500000D03*
D16*
X0020250000Y0051500000D03*
D16*
X0022750000Y0051500000D03*
D16*
X0025250000Y0051500000D03*
D16*
X0027750000Y0051500000D03*
D16*
X0005500000Y0012000000D03*
D16*
X0008000000Y0012000000D03*
D16*
X0010500000Y0012000000D03*
D16*
X0018750000Y0012000000D03*
D16*
X0021250000Y0012000000D03*
D16*
X0027250000Y0012000000D03*
D16*
X0029750000Y0012000000D03*
D16*
X0008000000Y0016000000D03*
D16*
X0018000000Y0016000000D03*
D16*
X0005000000Y0042000000D03*
D16*
X0015000000Y0042000000D03*
D17*
X0030200000Y0040000000D03*
D17*
X0030200000Y0042600000D03*
D16*
X0008460000Y0035620000D03*
D16*
X0003380000Y0020380000D03*
D16*
X0005920000Y0020380000D03*
D16*
X0011000000Y0035620000D03*
D16*
X0008460000Y0020380000D03*
D16*
X0011000000Y0020380000D03*
D16*
X0013540000Y0020380000D03*
D16*
X0016080000Y0020380000D03*
D16*
X0018620000Y0020380000D03*
D16*
X0018620000Y0035620000D03*
D16*
X0016080000Y0035620000D03*
D16*
X0013540000Y0035620000D03*
D16*
X0005920000Y0035620000D03*
D16*
X0003380000Y0035620000D03*
D13*
X0008000000Y0038000000D03*
D13*
X0008000000Y0044500000D03*
D13*
X0002000000Y0041750000D03*
D13*
X0003500000Y0042750000D03*
D11*
X0007500000Y0004000000D02*
X0007500000Y0004500000D01*
D11*
X0007500000Y0004500000D02*
X0006750000Y0004500000D01*
D11*
X0007750000Y0003500000D02*
X0007750000Y0004000000D01*
D11*
X0007750000Y0004000000D02*
X0007500000Y0004000000D01*
D11*
X0008000000Y0003250000D02*
X0008000000Y0003500000D01*
D11*
X0008000000Y0003500000D02*
X0007750000Y0003500000D01*
D11*
X0008000000Y0037500000D02*
X0008500000Y0037500000D01*
D11*
X0008000000Y0044500000D02*
X0008000000Y0037500000D01*
D11*
X0008250000Y0003000000D02*
X0008250000Y0003250000D01*
D11*
X0008250000Y0003250000D02*
X0008000000Y0003250000D01*
D11*
X0008500000Y0002750000D02*
X0008500000Y0003000000D01*
D11*
X0008500000Y0003000000D02*
X0008250000Y0003000000D01*
D11*
X0008500000Y0035500000D02*
X0008500000Y0037500000D01*
D11*
X0020750000Y0002750000D02*
X0008500000Y0002750000D01*
D11*
X0020750000Y0003000000D02*
X0020750000Y0002750000D01*
D11*
X0021250000Y0003000000D02*
X0020750000Y0003000000D01*
D11*
X0021250000Y0003250000D02*
X0021250000Y0003000000D01*
D11*
X0021500000Y0003250000D02*
X0021250000Y0003250000D01*
D11*
X0021500000Y0003500000D02*
X0021500000Y0003250000D01*
D11*
X0021750000Y0003500000D02*
X0021500000Y0003500000D01*
D11*
X0021750000Y0004000000D02*
X0021750000Y0003500000D01*
D11*
X0022000000Y0004000000D02*
X0021750000Y0004000000D01*
D11*
X0022000000Y0004500000D02*
X0022000000Y0004000000D01*
D11*
X0022750000Y0004500000D02*
X0022000000Y0004500000D01*
D10*
X0001250000Y0020500000D02*
X0003500000Y0020500000D01*
D10*
X0001250000Y0037000000D02*
X0001250000Y0020500000D01*
D10*
X0001500000Y0037000000D02*
X0001250000Y0037000000D01*
D10*
X0001500000Y0037250000D02*
X0001500000Y0037000000D01*
D10*
X0001750000Y0037250000D02*
X0001500000Y0037250000D01*
D10*
X0001750000Y0041250000D02*
X0001750000Y0037250000D01*
D10*
X0002000000Y0041250000D02*
X0001750000Y0041250000D01*
D10*
X0002000000Y0041750000D02*
X0002000000Y0041250000D01*
D10*
X0003500000Y0016000000D02*
X0003500000Y0018500000D01*
D10*
X0003500000Y0020500000D02*
X0003500000Y0018500000D01*
D10*
X0008000000Y0016000000D02*
X0003500000Y0016000000D01*
D11*
X0018000000Y0013750000D02*
X0019250000Y0013750000D01*
D11*
X0018000000Y0016000000D02*
X0018000000Y0013750000D01*
D11*
X0019250000Y0013500000D02*
X0019750000Y0013500000D01*
D11*
X0019250000Y0013750000D02*
X0019250000Y0013500000D01*
D11*
X0019750000Y0013250000D02*
X0020000000Y0013250000D01*
D11*
X0019750000Y0013500000D02*
X0019750000Y0013250000D01*
D11*
X0019750000Y0013750000D02*
X0019750000Y0013500000D01*
D11*
X0020000000Y0013000000D02*
X0020250000Y0013000000D01*
D11*
X0020000000Y0013250000D02*
X0020000000Y0013000000D01*
D11*
X0020250000Y0012500000D02*
X0020500000Y0012500000D01*
D11*
X0020250000Y0013000000D02*
X0020250000Y0012500000D01*
D11*
X0020500000Y0012000000D02*
X0021250000Y0012000000D01*
D11*
X0020500000Y0012500000D02*
X0020500000Y0012000000D01*
D11*
X0027750000Y0013500000D02*
X0027750000Y0013750000D01*
D11*
X0027750000Y0013750000D02*
X0019750000Y0013750000D01*
D11*
X0028250000Y0013250000D02*
X0028250000Y0013500000D01*
D11*
X0028250000Y0013500000D02*
X0027750000Y0013500000D01*
D11*
X0028500000Y0013000000D02*
X0028500000Y0013250000D01*
D11*
X0028500000Y0013250000D02*
X0028250000Y0013250000D01*
D11*
X0028750000Y0012500000D02*
X0028750000Y0013000000D01*
D11*
X0028750000Y0013000000D02*
X0028500000Y0013000000D01*
D11*
X0029000000Y0012000000D02*
X0029000000Y0012500000D01*
D11*
X0029000000Y0012500000D02*
X0028750000Y0012500000D01*
D11*
X0029750000Y0012000000D02*
X0029000000Y0012000000D01*
D10*
X0008000000Y0012000000D02*
X0008000000Y0014500000D01*
D10*
X0008000000Y0014500000D02*
X0008750000Y0014500000D01*
D10*
X0008500000Y0017500000D02*
X0008500000Y0018500000D01*
D10*
X0008500000Y0020500000D02*
X0008500000Y0018500000D01*
D10*
X0008750000Y0014500000D02*
X0008750000Y0014750000D01*
D10*
X0008750000Y0014750000D02*
X0009000000Y0014750000D01*
D10*
X0008750000Y0017250000D02*
X0008750000Y0017500000D01*
D10*
X0008750000Y0017500000D02*
X0008500000Y0017500000D01*
D10*
X0009000000Y0014750000D02*
X0009000000Y0015000000D01*
D10*
X0009000000Y0015000000D02*
X0009250000Y0015000000D01*
D10*
X0009000000Y0017000000D02*
X0009000000Y0017250000D01*
D10*
X0009000000Y0017250000D02*
X0008750000Y0017250000D01*
D10*
X0009250000Y0015000000D02*
X0009250000Y0015250000D01*
D10*
X0009250000Y0015250000D02*
X0009500000Y0015250000D01*
D10*
X0009250000Y0016750000D02*
X0009250000Y0017000000D01*
D10*
X0009250000Y0017000000D02*
X0009000000Y0017000000D01*
D10*
X0009500000Y0015250000D02*
X0009500000Y0016750000D01*
D10*
X0009500000Y0016750000D02*
X0009250000Y0016750000D01*
D10*
X0010500000Y0012000000D02*
X0010500000Y0018500000D01*
D10*
X0010500000Y0018500000D02*
X0011000000Y0018500000D01*
D10*
X0011000000Y0018500000D02*
X0011000000Y0020500000D01*
D10*
X0002000000Y0021750000D02*
X0012000000Y0021750000D01*
D10*
X0002000000Y0036500000D02*
X0002000000Y0021750000D01*
D10*
X0002250000Y0036500000D02*
X0002000000Y0036500000D01*
D10*
X0002250000Y0036750000D02*
X0002250000Y0036500000D01*
D10*
X0002500000Y0036750000D02*
X0002250000Y0036750000D01*
D10*
X0002500000Y0040750000D02*
X0002500000Y0036750000D01*
D10*
X0002750000Y0040750000D02*
X0002500000Y0040750000D01*
D10*
X0002750000Y0041000000D02*
X0002750000Y0040750000D01*
D10*
X0003000000Y0041000000D02*
X0002750000Y0041000000D01*
D10*
X0003000000Y0041250000D02*
X0003000000Y0041000000D01*
D10*
X0003500000Y0041250000D02*
X0003000000Y0041250000D01*
D10*
X0003500000Y0042750000D02*
X0003500000Y0041250000D01*
D10*
X0009250000Y0004500000D02*
X0009250000Y0010500000D01*
D10*
X0009250000Y0010500000D02*
X0011250000Y0010500000D01*
D10*
X0011250000Y0010500000D02*
X0011250000Y0010750000D01*
D10*
X0011250000Y0010750000D02*
X0011500000Y0010750000D01*
D10*
X0011500000Y0010750000D02*
X0011500000Y0011000000D01*
D10*
X0011500000Y0011000000D02*
X0011750000Y0011000000D01*
D10*
X0011750000Y0011000000D02*
X0011750000Y0011250000D01*
D10*
X0011750000Y0011250000D02*
X0012000000Y0011250000D01*
D10*
X0012000000Y0011250000D02*
X0012000000Y0018500000D01*
D10*
X0012000000Y0018500000D02*
X0013500000Y0018500000D01*
D10*
X0012000000Y0021500000D02*
X0012250000Y0021500000D01*
D10*
X0012000000Y0021750000D02*
X0012000000Y0021500000D01*
D10*
X0012250000Y0021000000D02*
X0012500000Y0021000000D01*
D10*
X0012250000Y0021500000D02*
X0012250000Y0021000000D01*
D10*
X0012500000Y0020500000D02*
X0013500000Y0020500000D01*
D10*
X0012500000Y0021000000D02*
X0012500000Y0020500000D01*
D10*
X0013500000Y0020500000D02*
X0013500000Y0018500000D01*
D10*
X0023500000Y0005750000D02*
X0023500000Y0006000000D01*
D10*
X0023500000Y0006000000D02*
X0009250000Y0006000000D01*
D10*
X0023750000Y0005500000D02*
X0023750000Y0005750000D01*
D10*
X0023750000Y0005750000D02*
X0023500000Y0005750000D01*
D10*
X0024000000Y0005250000D02*
X0024000000Y0005500000D01*
D10*
X0024000000Y0005500000D02*
X0023750000Y0005500000D01*
D10*
X0024250000Y0004500000D02*
X0024250000Y0005250000D01*
D10*
X0024250000Y0005250000D02*
X0024000000Y0005250000D01*
D10*
X0025250000Y0004500000D02*
X0024250000Y0004500000D01*
D10*
X0017250000Y0021250000D02*
X0017500000Y0021250000D01*
D10*
X0017250000Y0034250000D02*
X0017250000Y0021250000D01*
D10*
X0017500000Y0020500000D02*
X0018500000Y0020500000D01*
D10*
X0017500000Y0021250000D02*
X0017500000Y0020500000D01*
D10*
X0018500000Y0020500000D02*
X0018500000Y0018500000D01*
D10*
X0019500000Y0034250000D02*
X0017250000Y0034250000D01*
D10*
X0019500000Y0034500000D02*
X0019500000Y0034250000D01*
D10*
X0019750000Y0034500000D02*
X0019500000Y0034500000D01*
D10*
X0019750000Y0034750000D02*
X0019750000Y0034500000D01*
D10*
X0020000000Y0034750000D02*
X0019750000Y0034750000D01*
D10*
X0020000000Y0050000000D02*
X0020000000Y0034750000D01*
D10*
X0023500000Y0050000000D02*
X0020000000Y0050000000D01*
D10*
X0023500000Y0050250000D02*
X0023500000Y0050000000D01*
D10*
X0023750000Y0050250000D02*
X0023500000Y0050250000D01*
D10*
X0023750000Y0050500000D02*
X0023750000Y0050250000D01*
D10*
X0024000000Y0050500000D02*
X0023750000Y0050500000D01*
D10*
X0024000000Y0050750000D02*
X0024000000Y0050500000D01*
D10*
X0024250000Y0050750000D02*
X0024000000Y0050750000D01*
D10*
X0024250000Y0051500000D02*
X0024250000Y0050750000D01*
D10*
X0025250000Y0051500000D02*
X0024250000Y0051500000D01*
D11*
X0003500000Y0035500000D02*
X0003500000Y0037500000D01*
D11*
X0003500000Y0040250000D02*
X0003500000Y0037500000D01*
D11*
X0005500000Y0040250000D02*
X0003500000Y0040250000D01*
D11*
X0005500000Y0040500000D02*
X0005500000Y0040250000D01*
D11*
X0006000000Y0040500000D02*
X0005500000Y0040500000D01*
D11*
X0006000000Y0040750000D02*
X0006000000Y0040500000D01*
D11*
X0006250000Y0040750000D02*
X0006000000Y0040750000D01*
D11*
X0006250000Y0041000000D02*
X0006250000Y0040750000D01*
D11*
X0006500000Y0041000000D02*
X0006250000Y0041000000D01*
D11*
X0006500000Y0041500000D02*
X0006500000Y0041000000D01*
D11*
X0006750000Y0041500000D02*
X0006500000Y0041500000D01*
D11*
X0006750000Y0049750000D02*
X0006750000Y0041500000D01*
D11*
X0012250000Y0049750000D02*
X0006750000Y0049750000D01*
D11*
X0012250000Y0050000000D02*
X0012250000Y0049750000D01*
D11*
X0012750000Y0050000000D02*
X0012250000Y0050000000D01*
D11*
X0012750000Y0050250000D02*
X0012750000Y0050000000D01*
D11*
X0013000000Y0050250000D02*
X0012750000Y0050250000D01*
D11*
X0013000000Y0050500000D02*
X0013000000Y0050250000D01*
D11*
X0013250000Y0050500000D02*
X0013000000Y0050500000D01*
D11*
X0013250000Y0051000000D02*
X0013250000Y0050500000D01*
D11*
X0013500000Y0051000000D02*
X0013250000Y0051000000D01*
D11*
X0013500000Y0053250000D02*
X0013500000Y0051000000D01*
D11*
X0020750000Y0053000000D02*
X0020750000Y0053250000D01*
D11*
X0020750000Y0053250000D02*
X0013500000Y0053250000D01*
D11*
X0021250000Y0052750000D02*
X0021250000Y0053000000D01*
D11*
X0021250000Y0053000000D02*
X0020750000Y0053000000D01*
D11*
X0021500000Y0052500000D02*
X0021500000Y0052750000D01*
D11*
X0021500000Y0052750000D02*
X0021250000Y0052750000D01*
D11*
X0021750000Y0052000000D02*
X0021750000Y0052500000D01*
D11*
X0021750000Y0052500000D02*
X0021500000Y0052500000D01*
D11*
X0022000000Y0051500000D02*
X0022000000Y0052000000D01*
D11*
X0022000000Y0052000000D02*
X0021750000Y0052000000D01*
D11*
X0022750000Y0051500000D02*
X0022000000Y0051500000D01*
M02*
