G04 HomeBrain carrier front solder mask openings*
%TF.GenerationSoftware,OpenAI,HomeBrain Carrier Generator,1.0*%
%FSLAX46Y46*%
%MOMM*%
%LPD*%
%ADD10C,1.9600*%
%ADD11C,2.1600*%
D10*
X0004250000Y0004500000D03*
D10*
X0006750000Y0004500000D03*
D10*
X0009250000Y0004500000D03*
D10*
X0011750000Y0004500000D03*
D10*
X0020250000Y0004500000D03*
D10*
X0022750000Y0004500000D03*
D10*
X0025250000Y0004500000D03*
D10*
X0027750000Y0004500000D03*
D10*
X0004250000Y0051500000D03*
D10*
X0006750000Y0051500000D03*
D10*
X0009250000Y0051500000D03*
D10*
X0011750000Y0051500000D03*
D10*
X0020250000Y0051500000D03*
D10*
X0022750000Y0051500000D03*
D10*
X0025250000Y0051500000D03*
D10*
X0027750000Y0051500000D03*
D10*
X0005500000Y0012000000D03*
D10*
X0008000000Y0012000000D03*
D10*
X0010500000Y0012000000D03*
D10*
X0018750000Y0012000000D03*
D10*
X0021250000Y0012000000D03*
D10*
X0027250000Y0012000000D03*
D10*
X0029750000Y0012000000D03*
D10*
X0008000000Y0016000000D03*
D10*
X0018000000Y0016000000D03*
D10*
X0005000000Y0042000000D03*
D10*
X0015000000Y0042000000D03*
D11*
X0030200000Y0040000000D03*
D11*
X0030200000Y0042600000D03*
D10*
X0008460000Y0035620000D03*
D10*
X0003380000Y0020380000D03*
D10*
X0005920000Y0020380000D03*
D10*
X0011000000Y0035620000D03*
D10*
X0008460000Y0020380000D03*
D10*
X0011000000Y0020380000D03*
D10*
X0013540000Y0020380000D03*
D10*
X0016080000Y0020380000D03*
D10*
X0018620000Y0020380000D03*
D10*
X0018620000Y0035620000D03*
D10*
X0016080000Y0035620000D03*
D10*
X0013540000Y0035620000D03*
D10*
X0005920000Y0035620000D03*
D10*
X0003380000Y0035620000D03*
M02*
