G04 HomeBrain Climate Motherboard F.Cu*
%TF.GenerationSoftware,OpenAI,HomeBrain Dedicated Motherboard Generator,1.0*%
%FSLAX46Y46*%
%MOMM*%
%LPD*%
%ADD10C,0.4000*%
%ADD11C,0.8000*%
%ADD12C,0.9000*%
%ADD13C,1.3000*%
%ADD14C,1.8000*%
%ADD15C,2.3000*%
%ADD16C,5.2000*%
%ADD17R,0.2600X0.2600*%
G36*
X0000600000Y0000600000D02*
X0057400000Y0000600000D01*
X0057400000Y0047400000D01*
X0000600000Y0047400000D01*
X0000600000Y0000600000D01*
G37*
%LPC*%
D15*
X0047540000Y0009000000D03*
D15*
X0045000000Y0009000000D03*
D15*
X0011000000Y0008500000D03*
D15*
X0031000000Y0017000000D03*
D15*
X0041000000Y0017000000D03*
D15*
X0041000000Y0023000000D03*
D15*
X0027620000Y0039540000D03*
D15*
X0012380000Y0044620000D03*
D15*
X0012380000Y0042080000D03*
D15*
X0027620000Y0037000000D03*
D15*
X0012380000Y0039540000D03*
D15*
X0012380000Y0037000000D03*
D15*
X0012380000Y0034460000D03*
D15*
X0012380000Y0031920000D03*
D15*
X0012380000Y0029380000D03*
D15*
X0027620000Y0029380000D03*
D15*
X0027620000Y0031920000D03*
D15*
X0027620000Y0034460000D03*
D15*
X0027620000Y0044620000D03*
D15*
X0018218600Y0031472300D03*
D12*
X0012500000Y0043500000D02*
X0012500000Y0044500000D01*
D12*
X0012500000Y0044500000D02*
X0010500000Y0044500000D01*
D12*
X0013250000Y0043250000D02*
X0013250000Y0043500000D01*
D12*
X0013250000Y0043500000D02*
X0012500000Y0043500000D01*
D12*
X0013500000Y0043000000D02*
X0013500000Y0043250000D01*
D12*
X0013500000Y0043250000D02*
X0013250000Y0043250000D01*
D12*
X0013750000Y0039000000D02*
X0013750000Y0043000000D01*
D12*
X0013750000Y0043000000D02*
X0013500000Y0043000000D01*
D12*
X0014000000Y0038750000D02*
X0014000000Y0039000000D01*
D12*
X0014000000Y0039000000D02*
X0013750000Y0039000000D01*
D12*
X0014250000Y0038500000D02*
X0014250000Y0038750000D01*
D12*
X0014250000Y0038750000D02*
X0014000000Y0038750000D01*
D12*
X0014500000Y0029250000D02*
X0014500000Y0038500000D01*
D12*
X0014500000Y0038500000D02*
X0014250000Y0038500000D01*
D12*
X0026250000Y0024500000D02*
X0026250000Y0029250000D01*
D12*
X0026250000Y0029250000D02*
X0014500000Y0029250000D01*
D12*
X0031750000Y0024250000D02*
X0031750000Y0024500000D01*
D12*
X0031750000Y0024500000D02*
X0026250000Y0024500000D01*
D12*
X0032000000Y0024000000D02*
X0032000000Y0024250000D01*
D12*
X0032000000Y0024250000D02*
X0031750000Y0024250000D01*
D12*
X0032250000Y0023750000D02*
X0032250000Y0024000000D01*
D12*
X0032250000Y0024000000D02*
X0032000000Y0024000000D01*
D12*
X0032500000Y0023000000D02*
X0032500000Y0023750000D01*
D12*
X0032500000Y0023750000D02*
X0032250000Y0023750000D01*
D12*
X0041000000Y0017000000D02*
X0041000000Y0023000000D01*
D12*
X0041000000Y0023000000D02*
X0032500000Y0023000000D01*
D13*
X0011000000Y0006750000D02*
X0011000000Y0008500000D01*
D13*
X0014000000Y0006750000D02*
X0011000000Y0006750000D01*
D13*
X0014000000Y0007000000D02*
X0014000000Y0006750000D01*
D13*
X0014500000Y0007000000D02*
X0014000000Y0007000000D01*
D13*
X0014500000Y0007250000D02*
X0014500000Y0007000000D01*
D13*
X0031000000Y0011500000D02*
X0043500000Y0011500000D01*
D13*
X0031000000Y0017000000D02*
X0031000000Y0011500000D01*
D13*
X0043500000Y0011250000D02*
X0044000000Y0011250000D01*
D13*
X0043500000Y0011500000D02*
X0043500000Y0011250000D01*
D13*
X0044000000Y0011000000D02*
X0044250000Y0011000000D01*
D13*
X0044000000Y0011250000D02*
X0044000000Y0011000000D01*
D13*
X0044250000Y0010750000D02*
X0048000000Y0010750000D01*
D13*
X0044250000Y0011000000D02*
X0044250000Y0010750000D01*
D13*
X0048000000Y0007250000D02*
X0014500000Y0007250000D01*
D13*
X0048000000Y0007500000D02*
X0048000000Y0007250000D01*
D13*
X0048000000Y0010500000D02*
X0048500000Y0010500000D01*
D13*
X0048000000Y0010750000D02*
X0048000000Y0010500000D01*
D13*
X0048500000Y0007500000D02*
X0048000000Y0007500000D01*
D13*
X0048500000Y0007750000D02*
X0048500000Y0007500000D01*
D13*
X0048500000Y0010250000D02*
X0048750000Y0010250000D01*
D13*
X0048500000Y0010500000D02*
X0048500000Y0010250000D01*
D13*
X0048750000Y0007750000D02*
X0048500000Y0007750000D01*
D13*
X0048750000Y0008000000D02*
X0048750000Y0007750000D01*
D13*
X0048750000Y0010000000D02*
X0049000000Y0010000000D01*
D13*
X0048750000Y0010250000D02*
X0048750000Y0010000000D01*
D13*
X0049000000Y0008000000D02*
X0048750000Y0008000000D01*
D13*
X0049000000Y0008250000D02*
X0049000000Y0008000000D01*
D13*
X0049000000Y0009750000D02*
X0049250000Y0009750000D01*
D13*
X0049000000Y0010000000D02*
X0049000000Y0009750000D01*
D13*
X0049250000Y0008250000D02*
X0049000000Y0008250000D01*
D13*
X0049250000Y0009750000D02*
X0049250000Y0008250000D01*
D12*
X0012500000Y0038500000D02*
X0012500000Y0039500000D01*
D12*
X0012500000Y0039500000D02*
X0010500000Y0039500000D01*
D12*
X0013000000Y0038250000D02*
X0013000000Y0038500000D01*
D12*
X0013000000Y0038500000D02*
X0012500000Y0038500000D01*
D12*
X0013500000Y0038000000D02*
X0013500000Y0038250000D01*
D12*
X0013500000Y0038250000D02*
X0013000000Y0038250000D01*
D12*
X0013750000Y0010500000D02*
X0013750000Y0038000000D01*
D12*
X0013750000Y0038000000D02*
X0013500000Y0038000000D01*
D12*
X0043000000Y0010250000D02*
X0043000000Y0010500000D01*
D12*
X0043000000Y0010500000D02*
X0013750000Y0010500000D01*
D12*
X0043500000Y0010000000D02*
X0043500000Y0010250000D01*
D12*
X0043500000Y0010250000D02*
X0043000000Y0010250000D01*
D12*
X0043750000Y0009500000D02*
X0043750000Y0010000000D01*
D12*
X0043750000Y0010000000D02*
X0043500000Y0010000000D01*
D12*
X0044000000Y0009000000D02*
X0044000000Y0009500000D01*
D12*
X0044000000Y0009500000D02*
X0043750000Y0009500000D01*
D12*
X0045000000Y0009000000D02*
X0044000000Y0009000000D01*
G36*
X0014000000Y0014000000D02*
X0026000000Y0014000000D01*
X0026000000Y0029000000D01*
X0014000000Y0029000000D01*
X0014000000Y0014000000D01*
G37*
D17*
X0044250000Y0010000000D03*
D17*
X0045750000Y0008000000D03*
D17*
X0045750000Y0010000000D03*
D17*
X0046000000Y0008000000D03*
D17*
X0046000000Y0008250000D03*
D17*
X0046000000Y0009750000D03*
D17*
X0046000000Y0010000000D03*
D17*
X0046250000Y0008000000D03*
D17*
X0046250000Y0008250000D03*
D17*
X0046250000Y0008500000D03*
D17*
X0046250000Y0008750000D03*
D17*
X0046250000Y0009000000D03*
D17*
X0046250000Y0009250000D03*
D17*
X0046250000Y0009500000D03*
D17*
X0046250000Y0009750000D03*
D17*
X0046250000Y0010000000D03*
D17*
X0046500000Y0008000000D03*
D17*
X0046500000Y0008250000D03*
D17*
X0046500000Y0008500000D03*
D17*
X0046500000Y0009500000D03*
D17*
X0046500000Y0009750000D03*
D17*
X0046500000Y0010000000D03*
D17*
X0046750000Y0008000000D03*
D17*
X0046750000Y0010000000D03*
%LPD*%
D14*
X0047540000Y0009000000D03*
D14*
X0045000000Y0009000000D03*
D14*
X0042460000Y0009000000D03*
D14*
X0011000000Y0008500000D03*
D14*
X0013540000Y0008500000D03*
D16*
X0004500000Y0004500000D03*
D16*
X0053500000Y0004500000D03*
D16*
X0004500000Y0043500000D03*
D16*
X0053500000Y0043500000D03*
D14*
X0031000000Y0017000000D03*
D14*
X0041000000Y0017000000D03*
D14*
X0031000000Y0023000000D03*
D14*
X0041000000Y0023000000D03*
D14*
X0027620000Y0039540000D03*
D14*
X0012380000Y0044620000D03*
D14*
X0012380000Y0042080000D03*
D14*
X0027620000Y0037000000D03*
D14*
X0012380000Y0039540000D03*
D14*
X0012380000Y0037000000D03*
D14*
X0012380000Y0034460000D03*
D14*
X0012380000Y0031920000D03*
D14*
X0012380000Y0029380000D03*
D14*
X0027620000Y0029380000D03*
D14*
X0027620000Y0031920000D03*
D14*
X0027620000Y0034460000D03*
D14*
X0027620000Y0042080000D03*
D14*
X0027620000Y0044620000D03*
D14*
X0020758600Y0031472300D03*
D14*
X0018218600Y0031472300D03*
D10*
X0012500000Y0043500000D02*
X0012500000Y0044500000D01*
D10*
X0012500000Y0044500000D02*
X0010500000Y0044500000D01*
D10*
X0013250000Y0043250000D02*
X0013250000Y0043500000D01*
D10*
X0013250000Y0043500000D02*
X0012500000Y0043500000D01*
D10*
X0013500000Y0043000000D02*
X0013500000Y0043250000D01*
D10*
X0013500000Y0043250000D02*
X0013250000Y0043250000D01*
D10*
X0013750000Y0039000000D02*
X0013750000Y0043000000D01*
D10*
X0013750000Y0043000000D02*
X0013500000Y0043000000D01*
D10*
X0014000000Y0038750000D02*
X0014000000Y0039000000D01*
D10*
X0014000000Y0039000000D02*
X0013750000Y0039000000D01*
D10*
X0014250000Y0038500000D02*
X0014250000Y0038750000D01*
D10*
X0014250000Y0038750000D02*
X0014000000Y0038750000D01*
D10*
X0014500000Y0029250000D02*
X0014500000Y0038500000D01*
D10*
X0014500000Y0038500000D02*
X0014250000Y0038500000D01*
D10*
X0026250000Y0024500000D02*
X0026250000Y0029250000D01*
D10*
X0026250000Y0029250000D02*
X0014500000Y0029250000D01*
D10*
X0031750000Y0024250000D02*
X0031750000Y0024500000D01*
D10*
X0031750000Y0024500000D02*
X0026250000Y0024500000D01*
D10*
X0032000000Y0024000000D02*
X0032000000Y0024250000D01*
D10*
X0032000000Y0024250000D02*
X0031750000Y0024250000D01*
D10*
X0032250000Y0023750000D02*
X0032250000Y0024000000D01*
D10*
X0032250000Y0024000000D02*
X0032000000Y0024000000D01*
D10*
X0032500000Y0023000000D02*
X0032500000Y0023750000D01*
D10*
X0032500000Y0023750000D02*
X0032250000Y0023750000D01*
D10*
X0041000000Y0017000000D02*
X0041000000Y0023000000D01*
D10*
X0041000000Y0023000000D02*
X0032500000Y0023000000D01*
D11*
X0011000000Y0006750000D02*
X0011000000Y0008500000D01*
D11*
X0014000000Y0006750000D02*
X0011000000Y0006750000D01*
D11*
X0014000000Y0007000000D02*
X0014000000Y0006750000D01*
D11*
X0014500000Y0007000000D02*
X0014000000Y0007000000D01*
D11*
X0014500000Y0007250000D02*
X0014500000Y0007000000D01*
D11*
X0031000000Y0011500000D02*
X0043500000Y0011500000D01*
D11*
X0031000000Y0017000000D02*
X0031000000Y0011500000D01*
D11*
X0043500000Y0011250000D02*
X0044000000Y0011250000D01*
D11*
X0043500000Y0011500000D02*
X0043500000Y0011250000D01*
D11*
X0044000000Y0011000000D02*
X0044250000Y0011000000D01*
D11*
X0044000000Y0011250000D02*
X0044000000Y0011000000D01*
D11*
X0044250000Y0010750000D02*
X0048000000Y0010750000D01*
D11*
X0044250000Y0011000000D02*
X0044250000Y0010750000D01*
D11*
X0048000000Y0007250000D02*
X0014500000Y0007250000D01*
D11*
X0048000000Y0007500000D02*
X0048000000Y0007250000D01*
D11*
X0048000000Y0010500000D02*
X0048500000Y0010500000D01*
D11*
X0048000000Y0010750000D02*
X0048000000Y0010500000D01*
D11*
X0048500000Y0007500000D02*
X0048000000Y0007500000D01*
D11*
X0048500000Y0007750000D02*
X0048500000Y0007500000D01*
D11*
X0048500000Y0010250000D02*
X0048750000Y0010250000D01*
D11*
X0048500000Y0010500000D02*
X0048500000Y0010250000D01*
D11*
X0048750000Y0007750000D02*
X0048500000Y0007750000D01*
D11*
X0048750000Y0008000000D02*
X0048750000Y0007750000D01*
D11*
X0048750000Y0010000000D02*
X0049000000Y0010000000D01*
D11*
X0048750000Y0010250000D02*
X0048750000Y0010000000D01*
D11*
X0049000000Y0008000000D02*
X0048750000Y0008000000D01*
D11*
X0049000000Y0008250000D02*
X0049000000Y0008000000D01*
D11*
X0049000000Y0009750000D02*
X0049250000Y0009750000D01*
D11*
X0049000000Y0010000000D02*
X0049000000Y0009750000D01*
D11*
X0049250000Y0008250000D02*
X0049000000Y0008250000D01*
D11*
X0049250000Y0009750000D02*
X0049250000Y0008250000D01*
D10*
X0012500000Y0038500000D02*
X0012500000Y0039500000D01*
D10*
X0012500000Y0039500000D02*
X0010500000Y0039500000D01*
D10*
X0013000000Y0038250000D02*
X0013000000Y0038500000D01*
D10*
X0013000000Y0038500000D02*
X0012500000Y0038500000D01*
D10*
X0013500000Y0038000000D02*
X0013500000Y0038250000D01*
D10*
X0013500000Y0038250000D02*
X0013000000Y0038250000D01*
D10*
X0013750000Y0010500000D02*
X0013750000Y0038000000D01*
D10*
X0013750000Y0038000000D02*
X0013500000Y0038000000D01*
D10*
X0043000000Y0010250000D02*
X0043000000Y0010500000D01*
D10*
X0043000000Y0010500000D02*
X0013750000Y0010500000D01*
D10*
X0043500000Y0010000000D02*
X0043500000Y0010250000D01*
D10*
X0043500000Y0010250000D02*
X0043000000Y0010250000D01*
D10*
X0043750000Y0009500000D02*
X0043750000Y0010000000D01*
D10*
X0043750000Y0010000000D02*
X0043500000Y0010000000D01*
D10*
X0044000000Y0009000000D02*
X0044000000Y0009500000D01*
D10*
X0044000000Y0009500000D02*
X0043750000Y0009500000D01*
D10*
X0045000000Y0009000000D02*
X0044000000Y0009000000D01*
M02*
