G04 HomeBrain Climate Motherboard B.Cu*
%TF.GenerationSoftware,OpenAI,HomeBrain Dedicated Motherboard Generator,1.0*%
%FSLAX46Y46*%
%MOMM*%
%LPD*%
%ADD10C,0.4000*%
%ADD11C,0.8000*%
%ADD12C,0.9000*%
%ADD13C,1.3000*%
%ADD14C,1.8000*%
%ADD15C,2.3000*%
%ADD16C,5.2000*%
%ADD17R,0.2600X0.2600*%
G36*
X0000600000Y0000600000D02*
X0057400000Y0000600000D01*
X0057400000Y0047400000D01*
X0000600000Y0047400000D01*
X0000600000Y0000600000D01*
G37*
%LPC*%
D15*
X0047540000Y0009000000D03*
D15*
X0045000000Y0009000000D03*
D15*
X0011000000Y0008500000D03*
D15*
X0031000000Y0017000000D03*
D15*
X0041000000Y0017000000D03*
D15*
X0041000000Y0023000000D03*
D15*
X0027620000Y0039540000D03*
D15*
X0012380000Y0044620000D03*
D15*
X0012380000Y0042080000D03*
D15*
X0027620000Y0037000000D03*
D15*
X0012380000Y0039540000D03*
D15*
X0012380000Y0037000000D03*
D15*
X0012380000Y0034460000D03*
D15*
X0012380000Y0031920000D03*
D15*
X0012380000Y0029380000D03*
D15*
X0027620000Y0029380000D03*
D15*
X0027620000Y0031920000D03*
D15*
X0027620000Y0034460000D03*
D15*
X0027620000Y0044620000D03*
D15*
X0018218600Y0031472300D03*
D13*
X0018250000Y0031500000D02*
X0019000000Y0031500000D01*
D13*
X0019000000Y0031500000D02*
X0019000000Y0032000000D01*
D13*
X0019000000Y0032000000D02*
X0019250000Y0032000000D01*
D13*
X0019250000Y0032000000D02*
X0019250000Y0032500000D01*
D13*
X0019250000Y0032500000D02*
X0019500000Y0032500000D01*
D13*
X0019500000Y0032500000D02*
X0019500000Y0032750000D01*
D13*
X0019500000Y0032750000D02*
X0019750000Y0032750000D01*
D13*
X0019750000Y0032750000D02*
X0019750000Y0033000000D01*
D13*
X0019750000Y0033000000D02*
X0020250000Y0033000000D01*
D13*
X0020250000Y0033000000D02*
X0020250000Y0033250000D01*
D13*
X0020250000Y0033250000D02*
X0026000000Y0033250000D01*
D13*
X0026000000Y0033250000D02*
X0026000000Y0045500000D01*
D13*
X0026000000Y0045500000D02*
X0026250000Y0045500000D01*
D13*
X0026250000Y0045500000D02*
X0026250000Y0045750000D01*
D13*
X0026250000Y0045750000D02*
X0026500000Y0045750000D01*
D13*
X0026500000Y0045750000D02*
X0026500000Y0046000000D01*
D13*
X0026500000Y0046000000D02*
X0026750000Y0046000000D01*
D13*
X0026750000Y0046000000D02*
X0026750000Y0046250000D01*
D13*
X0026750000Y0046250000D02*
X0028500000Y0046250000D01*
D13*
X0028500000Y0046000000D02*
X0028750000Y0046000000D01*
D13*
X0028500000Y0046250000D02*
X0028500000Y0046000000D01*
D13*
X0028750000Y0045750000D02*
X0029000000Y0045750000D01*
D13*
X0028750000Y0046000000D02*
X0028750000Y0045750000D01*
D13*
X0029000000Y0045500000D02*
X0029250000Y0045500000D01*
D13*
X0029000000Y0045750000D02*
X0029000000Y0045500000D01*
D13*
X0029250000Y0017000000D02*
X0031000000Y0017000000D01*
D13*
X0029250000Y0045500000D02*
X0029250000Y0017000000D01*
D12*
X0012500000Y0036000000D02*
X0012500000Y0037000000D01*
D12*
X0012500000Y0037000000D02*
X0010500000Y0037000000D01*
D12*
X0013000000Y0035750000D02*
X0013000000Y0036000000D01*
D12*
X0013000000Y0036000000D02*
X0012500000Y0036000000D01*
D12*
X0013250000Y0035500000D02*
X0013250000Y0035750000D01*
D12*
X0013250000Y0035750000D02*
X0013000000Y0035750000D01*
D12*
X0013500000Y0035250000D02*
X0013500000Y0035500000D01*
D12*
X0013500000Y0035500000D02*
X0013250000Y0035500000D01*
D12*
X0013750000Y0010500000D02*
X0013750000Y0035250000D01*
D12*
X0013750000Y0035250000D02*
X0013500000Y0035250000D01*
D12*
X0045750000Y0010250000D02*
X0045750000Y0010500000D01*
D12*
X0045750000Y0010500000D02*
X0013750000Y0010500000D01*
D12*
X0046000000Y0010000000D02*
X0046000000Y0010250000D01*
D12*
X0046000000Y0010250000D02*
X0045750000Y0010250000D01*
D12*
X0046250000Y0009750000D02*
X0046250000Y0010000000D01*
D12*
X0046250000Y0010000000D02*
X0046000000Y0010000000D01*
D12*
X0046500000Y0009000000D02*
X0046500000Y0009750000D01*
D12*
X0046500000Y0009750000D02*
X0046250000Y0009750000D01*
D12*
X0047500000Y0009000000D02*
X0046500000Y0009000000D01*
G36*
X0014000000Y0014000000D02*
X0026000000Y0014000000D01*
X0026000000Y0029000000D01*
X0014000000Y0029000000D01*
X0014000000Y0014000000D01*
G37*
D17*
X0026750000Y0035250000D03*
D17*
X0026750000Y0035500000D03*
D17*
X0026750000Y0035750000D03*
D17*
X0026750000Y0036000000D03*
D17*
X0026750000Y0038000000D03*
D17*
X0026750000Y0038250000D03*
D17*
X0026750000Y0038500000D03*
D17*
X0026750000Y0038750000D03*
D17*
X0027000000Y0035500000D03*
D17*
X0027000000Y0035750000D03*
D17*
X0027000000Y0036000000D03*
D17*
X0027000000Y0038000000D03*
D17*
X0027000000Y0038250000D03*
D17*
X0027000000Y0038500000D03*
D17*
X0027250000Y0035750000D03*
D17*
X0027250000Y0038250000D03*
D17*
X0027500000Y0035750000D03*
D17*
X0027500000Y0038250000D03*
D17*
X0027750000Y0035750000D03*
D17*
X0027750000Y0038250000D03*
D17*
X0028000000Y0035750000D03*
D17*
X0028000000Y0038250000D03*
D17*
X0028250000Y0035500000D03*
D17*
X0028250000Y0035750000D03*
D17*
X0028250000Y0036000000D03*
D17*
X0028250000Y0038000000D03*
D17*
X0028250000Y0038250000D03*
D17*
X0028250000Y0038500000D03*
D17*
X0028500000Y0035250000D03*
D17*
X0028500000Y0035500000D03*
D17*
X0028500000Y0035750000D03*
D17*
X0028500000Y0036000000D03*
D17*
X0028500000Y0036250000D03*
D17*
X0028500000Y0037750000D03*
D17*
X0028500000Y0038000000D03*
D17*
X0028500000Y0038250000D03*
D17*
X0028500000Y0038500000D03*
D17*
X0028500000Y0038750000D03*
%LPD*%
D14*
X0047540000Y0009000000D03*
D14*
X0045000000Y0009000000D03*
D14*
X0042460000Y0009000000D03*
D14*
X0011000000Y0008500000D03*
D14*
X0013540000Y0008500000D03*
D16*
X0004500000Y0004500000D03*
D16*
X0053500000Y0004500000D03*
D16*
X0004500000Y0043500000D03*
D16*
X0053500000Y0043500000D03*
D14*
X0031000000Y0017000000D03*
D14*
X0041000000Y0017000000D03*
D14*
X0031000000Y0023000000D03*
D14*
X0041000000Y0023000000D03*
D14*
X0027620000Y0039540000D03*
D14*
X0012380000Y0044620000D03*
D14*
X0012380000Y0042080000D03*
D14*
X0027620000Y0037000000D03*
D14*
X0012380000Y0039540000D03*
D14*
X0012380000Y0037000000D03*
D14*
X0012380000Y0034460000D03*
D14*
X0012380000Y0031920000D03*
D14*
X0012380000Y0029380000D03*
D14*
X0027620000Y0029380000D03*
D14*
X0027620000Y0031920000D03*
D14*
X0027620000Y0034460000D03*
D14*
X0027620000Y0042080000D03*
D14*
X0027620000Y0044620000D03*
D14*
X0020758600Y0031472300D03*
D14*
X0018218600Y0031472300D03*
D11*
X0018250000Y0031500000D02*
X0019000000Y0031500000D01*
D11*
X0019000000Y0031500000D02*
X0019000000Y0032000000D01*
D11*
X0019000000Y0032000000D02*
X0019250000Y0032000000D01*
D11*
X0019250000Y0032000000D02*
X0019250000Y0032500000D01*
D11*
X0019250000Y0032500000D02*
X0019500000Y0032500000D01*
D11*
X0019500000Y0032500000D02*
X0019500000Y0032750000D01*
D11*
X0019500000Y0032750000D02*
X0019750000Y0032750000D01*
D11*
X0019750000Y0032750000D02*
X0019750000Y0033000000D01*
D11*
X0019750000Y0033000000D02*
X0020250000Y0033000000D01*
D11*
X0020250000Y0033000000D02*
X0020250000Y0033250000D01*
D11*
X0020250000Y0033250000D02*
X0026000000Y0033250000D01*
D11*
X0026000000Y0033250000D02*
X0026000000Y0045500000D01*
D11*
X0026000000Y0045500000D02*
X0026250000Y0045500000D01*
D11*
X0026250000Y0045500000D02*
X0026250000Y0045750000D01*
D11*
X0026250000Y0045750000D02*
X0026500000Y0045750000D01*
D11*
X0026500000Y0045750000D02*
X0026500000Y0046000000D01*
D11*
X0026500000Y0046000000D02*
X0026750000Y0046000000D01*
D11*
X0026750000Y0046000000D02*
X0026750000Y0046250000D01*
D11*
X0026750000Y0046250000D02*
X0028500000Y0046250000D01*
D11*
X0028500000Y0046000000D02*
X0028750000Y0046000000D01*
D11*
X0028500000Y0046250000D02*
X0028500000Y0046000000D01*
D11*
X0028750000Y0045750000D02*
X0029000000Y0045750000D01*
D11*
X0028750000Y0046000000D02*
X0028750000Y0045750000D01*
D11*
X0029000000Y0045500000D02*
X0029250000Y0045500000D01*
D11*
X0029000000Y0045750000D02*
X0029000000Y0045500000D01*
D11*
X0029250000Y0017000000D02*
X0031000000Y0017000000D01*
D11*
X0029250000Y0045500000D02*
X0029250000Y0017000000D01*
D10*
X0012500000Y0036000000D02*
X0012500000Y0037000000D01*
D10*
X0012500000Y0037000000D02*
X0010500000Y0037000000D01*
D10*
X0013000000Y0035750000D02*
X0013000000Y0036000000D01*
D10*
X0013000000Y0036000000D02*
X0012500000Y0036000000D01*
D10*
X0013250000Y0035500000D02*
X0013250000Y0035750000D01*
D10*
X0013250000Y0035750000D02*
X0013000000Y0035750000D01*
D10*
X0013500000Y0035250000D02*
X0013500000Y0035500000D01*
D10*
X0013500000Y0035500000D02*
X0013250000Y0035500000D01*
D10*
X0013750000Y0010500000D02*
X0013750000Y0035250000D01*
D10*
X0013750000Y0035250000D02*
X0013500000Y0035250000D01*
D10*
X0045750000Y0010250000D02*
X0045750000Y0010500000D01*
D10*
X0045750000Y0010500000D02*
X0013750000Y0010500000D01*
D10*
X0046000000Y0010000000D02*
X0046000000Y0010250000D01*
D10*
X0046000000Y0010250000D02*
X0045750000Y0010250000D01*
D10*
X0046250000Y0009750000D02*
X0046250000Y0010000000D01*
D10*
X0046250000Y0010000000D02*
X0046000000Y0010000000D01*
D10*
X0046500000Y0009000000D02*
X0046500000Y0009750000D01*
D10*
X0046500000Y0009750000D02*
X0046250000Y0009750000D01*
D10*
X0047500000Y0009000000D02*
X0046500000Y0009000000D01*
M02*
