G04 HomeBrain Climate Motherboard front silkscreen*
%TF.GenerationSoftware,OpenAI,HomeBrain Dedicated Motherboard Generator,1.0*%
%FSLAX46Y46*%
%MOMM*%
%LPD*%
%ADD10C,0.1800*%
%ADD11C,0.2500*%
%ADD12C,0.5500*%
%ADD20C,2.2600*%
%ADD21C,5.6600*%
D10*
X0001500000Y0045600000D03*
D10*
X0001820000Y0045600000D03*
D10*
X0001500000Y0045760000D03*
D10*
X0001820000Y0045760000D03*
D10*
X0001500000Y0045920000D03*
D10*
X0001660000Y0045920000D03*
D10*
X0001820000Y0045920000D03*
D10*
X0001500000Y0046080000D03*
D10*
X0001820000Y0046080000D03*
D10*
X0001500000Y0046240000D03*
D10*
X0001820000Y0046240000D03*
D10*
X0002140000Y0045600000D03*
D10*
X0002300000Y0045600000D03*
D10*
X0002140000Y0045760000D03*
D10*
X0002460000Y0045760000D03*
D10*
X0002140000Y0045920000D03*
D10*
X0002300000Y0045920000D03*
D10*
X0002140000Y0046080000D03*
D10*
X0002460000Y0046080000D03*
D10*
X0002140000Y0046240000D03*
D10*
X0002300000Y0046240000D03*
D10*
X0003580000Y0045600000D03*
D10*
X0003740000Y0045600000D03*
D10*
X0003420000Y0045760000D03*
D10*
X0003420000Y0045920000D03*
D10*
X0003420000Y0046080000D03*
D10*
X0003580000Y0046240000D03*
D10*
X0003740000Y0046240000D03*
D10*
X0004060000Y0045600000D03*
D10*
X0004060000Y0045760000D03*
D10*
X0004060000Y0045920000D03*
D10*
X0004060000Y0046080000D03*
D10*
X0004060000Y0046240000D03*
D10*
X0004220000Y0046240000D03*
D10*
X0004380000Y0046240000D03*
D10*
X0004700000Y0045600000D03*
D10*
X0004860000Y0045600000D03*
D10*
X0005020000Y0045600000D03*
D10*
X0004860000Y0045760000D03*
D10*
X0004860000Y0045920000D03*
D10*
X0004860000Y0046080000D03*
D10*
X0004700000Y0046240000D03*
D10*
X0004860000Y0046240000D03*
D10*
X0005020000Y0046240000D03*
D10*
X0005340000Y0045600000D03*
D10*
X0005980000Y0045600000D03*
D10*
X0005340000Y0045760000D03*
D10*
X0005500000Y0045760000D03*
D10*
X0005820000Y0045760000D03*
D10*
X0005980000Y0045760000D03*
D10*
X0005340000Y0045920000D03*
D10*
X0005660000Y0045920000D03*
D10*
X0005980000Y0045920000D03*
D10*
X0005340000Y0046080000D03*
D10*
X0005660000Y0046080000D03*
D10*
X0005980000Y0046080000D03*
D10*
X0005340000Y0046240000D03*
D10*
X0005660000Y0046240000D03*
D10*
X0005980000Y0046240000D03*
D10*
X0006460000Y0045600000D03*
D10*
X0006300000Y0045760000D03*
D10*
X0006620000Y0045760000D03*
D10*
X0006300000Y0045920000D03*
D10*
X0006460000Y0045920000D03*
D10*
X0006620000Y0045920000D03*
D10*
X0006300000Y0046080000D03*
D10*
X0006620000Y0046080000D03*
D10*
X0006300000Y0046240000D03*
D10*
X0006620000Y0046240000D03*
D10*
X0006940000Y0045600000D03*
D10*
X0007100000Y0045600000D03*
D10*
X0007260000Y0045600000D03*
D10*
X0007100000Y0045760000D03*
D10*
X0007100000Y0045920000D03*
D10*
X0007100000Y0046080000D03*
D10*
X0007100000Y0046240000D03*
D10*
X0007580000Y0045600000D03*
D10*
X0007740000Y0045600000D03*
D10*
X0007900000Y0045600000D03*
D10*
X0007580000Y0045760000D03*
D10*
X0007580000Y0045920000D03*
D10*
X0007740000Y0045920000D03*
D10*
X0007580000Y0046080000D03*
D10*
X0007580000Y0046240000D03*
D10*
X0007740000Y0046240000D03*
D10*
X0007900000Y0046240000D03*
D10*
X0008860000Y0045600000D03*
D10*
X0009180000Y0045600000D03*
D10*
X0008860000Y0045760000D03*
D10*
X0009180000Y0045760000D03*
D10*
X0008860000Y0045920000D03*
D10*
X0009180000Y0045920000D03*
D10*
X0008860000Y0046080000D03*
D10*
X0009180000Y0046080000D03*
D10*
X0009020000Y0046240000D03*
D10*
X0009660000Y0045600000D03*
D10*
X0009500000Y0045760000D03*
D10*
X0009660000Y0045760000D03*
D10*
X0009660000Y0045920000D03*
D10*
X0009660000Y0046080000D03*
D10*
X0009500000Y0046240000D03*
D10*
X0009660000Y0046240000D03*
D10*
X0009820000Y0046240000D03*
D10*
X0010780000Y0045600000D03*
D10*
X0010940000Y0045600000D03*
D10*
X0011100000Y0045760000D03*
D10*
X0010780000Y0045920000D03*
D10*
X0010940000Y0045920000D03*
D10*
X0011100000Y0045920000D03*
D10*
X0010780000Y0046080000D03*
D10*
X0010780000Y0046240000D03*
D10*
X0010940000Y0046240000D03*
D10*
X0011100000Y0046240000D03*
D10*
X0011420000Y0045920000D03*
D10*
X0011580000Y0045920000D03*
D10*
X0011740000Y0045920000D03*
D10*
X0012060000Y0045600000D03*
D10*
X0012220000Y0045600000D03*
D10*
X0012060000Y0045760000D03*
D10*
X0012380000Y0045760000D03*
D10*
X0012060000Y0045920000D03*
D10*
X0012380000Y0045920000D03*
D10*
X0012060000Y0046080000D03*
D10*
X0012380000Y0046080000D03*
D10*
X0012060000Y0046240000D03*
D10*
X0012220000Y0046240000D03*
D10*
X0012700000Y0045600000D03*
D10*
X0012860000Y0045600000D03*
D10*
X0012700000Y0045760000D03*
D10*
X0013020000Y0045760000D03*
D10*
X0012700000Y0045920000D03*
D10*
X0012860000Y0045920000D03*
D10*
X0012700000Y0046080000D03*
D10*
X0013020000Y0046080000D03*
D10*
X0012700000Y0046240000D03*
D10*
X0013020000Y0046240000D03*
D10*
X0013500000Y0045600000D03*
D10*
X0013340000Y0045760000D03*
D10*
X0013660000Y0045760000D03*
D10*
X0013340000Y0045920000D03*
D10*
X0013500000Y0045920000D03*
D10*
X0013660000Y0045920000D03*
D10*
X0013340000Y0046080000D03*
D10*
X0013660000Y0046080000D03*
D10*
X0013340000Y0046240000D03*
D10*
X0013660000Y0046240000D03*
D10*
X0013980000Y0045600000D03*
D10*
X0014140000Y0045600000D03*
D10*
X0014300000Y0045600000D03*
D10*
X0013980000Y0045760000D03*
D10*
X0013980000Y0045920000D03*
D10*
X0014140000Y0045920000D03*
D10*
X0013980000Y0046080000D03*
D10*
X0013980000Y0046240000D03*
D10*
X0014620000Y0045600000D03*
D10*
X0014780000Y0045600000D03*
D10*
X0014940000Y0045600000D03*
D10*
X0014780000Y0045760000D03*
D10*
X0014780000Y0045920000D03*
D10*
X0014780000Y0046080000D03*
D10*
X0014780000Y0046240000D03*
D11*
X0011100000Y0026500000D02*
X0028900000Y0026500000D01*
D11*
X0028900000Y0026500000D02*
X0028900000Y0047500000D01*
D11*
X0028900000Y0047500000D02*
X0011100000Y0047500000D01*
D11*
X0011100000Y0047500000D02*
X0011100000Y0026500000D01*
D10*
X0017300000Y0046800000D03*
D10*
X0017580000Y0046800000D03*
D10*
X0017300000Y0046940000D03*
D10*
X0017580000Y0046940000D03*
D10*
X0017300000Y0047080000D03*
D10*
X0017580000Y0047080000D03*
D10*
X0017300000Y0047220000D03*
D10*
X0017580000Y0047220000D03*
D10*
X0017300000Y0047360000D03*
D10*
X0017440000Y0047360000D03*
D10*
X0017580000Y0047360000D03*
D10*
X0018000000Y0046800000D03*
D10*
X0018140000Y0046800000D03*
D10*
X0017860000Y0046940000D03*
D10*
X0018000000Y0047080000D03*
D10*
X0018140000Y0047220000D03*
D10*
X0017860000Y0047360000D03*
D10*
X0018000000Y0047360000D03*
D10*
X0018420000Y0046800000D03*
D10*
X0018560000Y0046800000D03*
D10*
X0018420000Y0046940000D03*
D10*
X0018700000Y0046940000D03*
D10*
X0018420000Y0047080000D03*
D10*
X0018560000Y0047080000D03*
D10*
X0018420000Y0047220000D03*
D10*
X0018700000Y0047220000D03*
D10*
X0018420000Y0047360000D03*
D10*
X0018560000Y0047360000D03*
D11*
X0020000000Y0045300000D02*
X0020000000Y0047700000D01*
D11*
X0020000000Y0047700000D02*
X0019300000Y0046900000D01*
D11*
X0020000000Y0047700000D02*
X0020700000Y0046900000D01*
D11*
X0035000000Y0007000000D02*
X0050000000Y0007000000D01*
D11*
X0050000000Y0007000000D02*
X0050000000Y0033000000D01*
D11*
X0050000000Y0033000000D02*
X0035000000Y0033000000D01*
D11*
X0035000000Y0033000000D02*
X0035000000Y0007000000D01*
D10*
X0049360000Y0010500000D03*
D10*
X0049360000Y0010660000D03*
D10*
X0049360000Y0010820000D03*
D10*
X0049040000Y0010980000D03*
D10*
X0049360000Y0010980000D03*
D10*
X0049200000Y0011140000D03*
D10*
X0049840000Y0010500000D03*
D10*
X0049680000Y0010660000D03*
D10*
X0049840000Y0010660000D03*
D10*
X0049840000Y0010820000D03*
D10*
X0049840000Y0010980000D03*
D10*
X0049680000Y0011140000D03*
D10*
X0049840000Y0011140000D03*
D10*
X0050000000Y0011140000D03*
D10*
X0046650000Y0007410000D03*
D10*
X0046540000Y0007520000D03*
D10*
X0046650000Y0007520000D03*
D10*
X0046760000Y0007520000D03*
D10*
X0046650000Y0007630000D03*
D10*
X0044110000Y0007300000D03*
D10*
X0044000000Y0007410000D03*
D10*
X0044220000Y0007410000D03*
D10*
X0044000000Y0007520000D03*
D10*
X0044220000Y0007520000D03*
D10*
X0044000000Y0007630000D03*
D10*
X0044220000Y0007630000D03*
D10*
X0044110000Y0007740000D03*
D10*
X0044440000Y0007300000D03*
D10*
X0044660000Y0007300000D03*
D10*
X0044440000Y0007410000D03*
D10*
X0044660000Y0007410000D03*
D10*
X0044440000Y0007520000D03*
D10*
X0044660000Y0007520000D03*
D10*
X0044440000Y0007630000D03*
D10*
X0044660000Y0007630000D03*
D10*
X0044440000Y0007740000D03*
D10*
X0044550000Y0007740000D03*
D10*
X0044660000Y0007740000D03*
D10*
X0044880000Y0007300000D03*
D10*
X0044990000Y0007300000D03*
D10*
X0045100000Y0007300000D03*
D10*
X0044990000Y0007410000D03*
D10*
X0044990000Y0007520000D03*
D10*
X0044990000Y0007630000D03*
D10*
X0044990000Y0007740000D03*
D10*
X0041460000Y0007520000D03*
D10*
X0041570000Y0007520000D03*
D10*
X0041680000Y0007520000D03*
D12*
X0049240000Y0009000000D03*
D11*
X0008000000Y0005000000D02*
X0022000000Y0005000000D01*
D11*
X0022000000Y0005000000D02*
X0022000000Y0012000000D01*
D11*
X0022000000Y0012000000D02*
X0008000000Y0012000000D01*
D11*
X0008000000Y0012000000D02*
X0008000000Y0005000000D01*
D10*
X0012820000Y0010000000D03*
D10*
X0012820000Y0010160000D03*
D10*
X0012820000Y0010320000D03*
D10*
X0012500000Y0010480000D03*
D10*
X0012820000Y0010480000D03*
D10*
X0012660000Y0010640000D03*
D10*
X0013140000Y0010000000D03*
D10*
X0013300000Y0010000000D03*
D10*
X0013460000Y0010160000D03*
D10*
X0013140000Y0010320000D03*
D10*
X0013300000Y0010320000D03*
D10*
X0013460000Y0010320000D03*
D10*
X0013140000Y0010480000D03*
D10*
X0013140000Y0010640000D03*
D10*
X0013300000Y0010640000D03*
D10*
X0013460000Y0010640000D03*
D10*
X0010000000Y0006800000D03*
D10*
X0010110000Y0006800000D03*
D10*
X0010000000Y0006910000D03*
D10*
X0010220000Y0006910000D03*
D10*
X0010000000Y0007020000D03*
D10*
X0010110000Y0007020000D03*
D10*
X0010000000Y0007130000D03*
D10*
X0010220000Y0007130000D03*
D10*
X0010000000Y0007240000D03*
D10*
X0010110000Y0007240000D03*
D10*
X0010550000Y0006800000D03*
D10*
X0010440000Y0006910000D03*
D10*
X0010660000Y0006910000D03*
D10*
X0010440000Y0007020000D03*
D10*
X0010550000Y0007020000D03*
D10*
X0010660000Y0007020000D03*
D10*
X0010440000Y0007130000D03*
D10*
X0010660000Y0007130000D03*
D10*
X0010440000Y0007240000D03*
D10*
X0010660000Y0007240000D03*
D10*
X0010880000Y0006800000D03*
D10*
X0010990000Y0006800000D03*
D10*
X0011100000Y0006800000D03*
D10*
X0010990000Y0006910000D03*
D10*
X0010990000Y0007020000D03*
D10*
X0010990000Y0007130000D03*
D10*
X0010990000Y0007240000D03*
D10*
X0011430000Y0006910000D03*
D10*
X0011320000Y0007020000D03*
D10*
X0011430000Y0007020000D03*
D10*
X0011540000Y0007020000D03*
D10*
X0011430000Y0007130000D03*
D10*
X0012540000Y0006800000D03*
D10*
X0012650000Y0006800000D03*
D10*
X0012540000Y0006910000D03*
D10*
X0012760000Y0006910000D03*
D10*
X0012540000Y0007020000D03*
D10*
X0012650000Y0007020000D03*
D10*
X0012540000Y0007130000D03*
D10*
X0012760000Y0007130000D03*
D10*
X0012540000Y0007240000D03*
D10*
X0012650000Y0007240000D03*
D10*
X0013090000Y0006800000D03*
D10*
X0012980000Y0006910000D03*
D10*
X0013200000Y0006910000D03*
D10*
X0012980000Y0007020000D03*
D10*
X0013090000Y0007020000D03*
D10*
X0013200000Y0007020000D03*
D10*
X0012980000Y0007130000D03*
D10*
X0013200000Y0007130000D03*
D10*
X0012980000Y0007240000D03*
D10*
X0013200000Y0007240000D03*
D10*
X0013420000Y0006800000D03*
D10*
X0013530000Y0006800000D03*
D10*
X0013640000Y0006800000D03*
D10*
X0013530000Y0006910000D03*
D10*
X0013530000Y0007020000D03*
D10*
X0013530000Y0007130000D03*
D10*
X0013530000Y0007240000D03*
D10*
X0013860000Y0007020000D03*
D10*
X0013970000Y0007020000D03*
D10*
X0014080000Y0007020000D03*
D12*
X0009300000Y0008500000D03*
D11*
X0030000000Y0015000000D02*
X0042000000Y0015000000D01*
D11*
X0042000000Y0015000000D02*
X0042000000Y0019000000D01*
D11*
X0042000000Y0019000000D02*
X0030000000Y0019000000D01*
D11*
X0030000000Y0019000000D02*
X0030000000Y0015000000D01*
D10*
X0032500000Y0018500000D03*
D10*
X0032660000Y0018500000D03*
D10*
X0032500000Y0018660000D03*
D10*
X0032820000Y0018660000D03*
D10*
X0032500000Y0018820000D03*
D10*
X0032660000Y0018820000D03*
D10*
X0032500000Y0018980000D03*
D10*
X0032820000Y0018980000D03*
D10*
X0032500000Y0019140000D03*
D10*
X0032820000Y0019140000D03*
D10*
X0033300000Y0018500000D03*
D10*
X0033140000Y0018660000D03*
D10*
X0033300000Y0018660000D03*
D10*
X0033300000Y0018820000D03*
D10*
X0033300000Y0018980000D03*
D10*
X0033140000Y0019140000D03*
D10*
X0033300000Y0019140000D03*
D10*
X0033460000Y0019140000D03*
D10*
X0030000000Y0015300000D03*
D10*
X0030110000Y0015300000D03*
D10*
X0030000000Y0015410000D03*
D10*
X0030220000Y0015410000D03*
D10*
X0030000000Y0015520000D03*
D10*
X0030110000Y0015520000D03*
D10*
X0030000000Y0015630000D03*
D10*
X0030220000Y0015630000D03*
D10*
X0030000000Y0015740000D03*
D10*
X0030110000Y0015740000D03*
D10*
X0030550000Y0015300000D03*
D10*
X0030440000Y0015410000D03*
D10*
X0030660000Y0015410000D03*
D10*
X0030440000Y0015520000D03*
D10*
X0030550000Y0015520000D03*
D10*
X0030660000Y0015520000D03*
D10*
X0030440000Y0015630000D03*
D10*
X0030660000Y0015630000D03*
D10*
X0030440000Y0015740000D03*
D10*
X0030660000Y0015740000D03*
D10*
X0030880000Y0015300000D03*
D10*
X0030990000Y0015300000D03*
D10*
X0031100000Y0015300000D03*
D10*
X0030990000Y0015410000D03*
D10*
X0030990000Y0015520000D03*
D10*
X0030990000Y0015630000D03*
D10*
X0030990000Y0015740000D03*
D10*
X0031430000Y0015410000D03*
D10*
X0031320000Y0015520000D03*
D10*
X0031430000Y0015520000D03*
D10*
X0031540000Y0015520000D03*
D10*
X0031430000Y0015630000D03*
D10*
X0040110000Y0015300000D03*
D10*
X0040000000Y0015410000D03*
D10*
X0040220000Y0015410000D03*
D10*
X0040000000Y0015520000D03*
D10*
X0040110000Y0015520000D03*
D10*
X0040220000Y0015520000D03*
D10*
X0040000000Y0015630000D03*
D10*
X0040220000Y0015630000D03*
D10*
X0040000000Y0015740000D03*
D10*
X0040220000Y0015740000D03*
D10*
X0040440000Y0015300000D03*
D10*
X0040550000Y0015300000D03*
D10*
X0040660000Y0015300000D03*
D10*
X0040440000Y0015410000D03*
D10*
X0040660000Y0015410000D03*
D10*
X0040440000Y0015520000D03*
D10*
X0040660000Y0015520000D03*
D10*
X0040440000Y0015630000D03*
D10*
X0040660000Y0015630000D03*
D10*
X0040440000Y0015740000D03*
D10*
X0040550000Y0015740000D03*
D10*
X0040660000Y0015740000D03*
D12*
X0029300000Y0017000000D03*
D11*
X0030000000Y0021000000D02*
X0042000000Y0021000000D01*
D11*
X0042000000Y0021000000D02*
X0042000000Y0025000000D01*
D11*
X0042000000Y0025000000D02*
X0030000000Y0025000000D01*
D11*
X0030000000Y0025000000D02*
X0030000000Y0021000000D01*
D10*
X0032500000Y0024500000D03*
D10*
X0032660000Y0024500000D03*
D10*
X0032500000Y0024660000D03*
D10*
X0032820000Y0024660000D03*
D10*
X0032500000Y0024820000D03*
D10*
X0032660000Y0024820000D03*
D10*
X0032500000Y0024980000D03*
D10*
X0032820000Y0024980000D03*
D10*
X0032500000Y0025140000D03*
D10*
X0032820000Y0025140000D03*
D10*
X0033140000Y0024500000D03*
D10*
X0033300000Y0024500000D03*
D10*
X0033460000Y0024660000D03*
D10*
X0033140000Y0024820000D03*
D10*
X0033300000Y0024820000D03*
D10*
X0033460000Y0024820000D03*
D10*
X0033140000Y0024980000D03*
D10*
X0033140000Y0025140000D03*
D10*
X0033300000Y0025140000D03*
D10*
X0033460000Y0025140000D03*
D10*
X0030110000Y0021300000D03*
D10*
X0030220000Y0021300000D03*
D10*
X0030000000Y0021410000D03*
D10*
X0030000000Y0021520000D03*
D10*
X0030220000Y0021520000D03*
D10*
X0030000000Y0021630000D03*
D10*
X0030220000Y0021630000D03*
D10*
X0030110000Y0021740000D03*
D10*
X0030220000Y0021740000D03*
D10*
X0030440000Y0021300000D03*
D10*
X0030770000Y0021300000D03*
D10*
X0030440000Y0021410000D03*
D10*
X0030550000Y0021410000D03*
D10*
X0030770000Y0021410000D03*
D10*
X0030440000Y0021520000D03*
D10*
X0030660000Y0021520000D03*
D10*
X0030770000Y0021520000D03*
D10*
X0030440000Y0021630000D03*
D10*
X0030770000Y0021630000D03*
D10*
X0030440000Y0021740000D03*
D10*
X0030770000Y0021740000D03*
D10*
X0030990000Y0021300000D03*
D10*
X0031100000Y0021300000D03*
D10*
X0030990000Y0021410000D03*
D10*
X0031210000Y0021410000D03*
D10*
X0030990000Y0021520000D03*
D10*
X0031210000Y0021520000D03*
D10*
X0030990000Y0021630000D03*
D10*
X0031210000Y0021630000D03*
D10*
X0030990000Y0021740000D03*
D10*
X0031100000Y0021740000D03*
D10*
X0040110000Y0021300000D03*
D10*
X0040000000Y0021410000D03*
D10*
X0040220000Y0021410000D03*
D10*
X0040000000Y0021520000D03*
D10*
X0040110000Y0021520000D03*
D10*
X0040220000Y0021520000D03*
D10*
X0040000000Y0021630000D03*
D10*
X0040220000Y0021630000D03*
D10*
X0040000000Y0021740000D03*
D10*
X0040220000Y0021740000D03*
D10*
X0040440000Y0021300000D03*
D10*
X0040550000Y0021300000D03*
D10*
X0040660000Y0021300000D03*
D10*
X0040440000Y0021410000D03*
D10*
X0040660000Y0021410000D03*
D10*
X0040440000Y0021520000D03*
D10*
X0040660000Y0021520000D03*
D10*
X0040440000Y0021630000D03*
D10*
X0040660000Y0021630000D03*
D10*
X0040440000Y0021740000D03*
D10*
X0040550000Y0021740000D03*
D10*
X0040660000Y0021740000D03*
D12*
X0029300000Y0023000000D03*
D10*
X0019758600Y0029772300D03*
D10*
X0019878600Y0029772300D03*
D10*
X0019758600Y0029892300D03*
D10*
X0019998600Y0029892300D03*
D10*
X0019758600Y0030012300D03*
D10*
X0019878600Y0030012300D03*
D10*
X0019758600Y0030132300D03*
D10*
X0019998600Y0030132300D03*
D10*
X0019758600Y0030252300D03*
D10*
X0019878600Y0030252300D03*
D10*
X0020358600Y0029772300D03*
D10*
X0020238600Y0029892300D03*
D10*
X0020478600Y0029892300D03*
D10*
X0020238600Y0030012300D03*
D10*
X0020358600Y0030012300D03*
D10*
X0020478600Y0030012300D03*
D10*
X0020238600Y0030132300D03*
D10*
X0020478600Y0030132300D03*
D10*
X0020238600Y0030252300D03*
D10*
X0020478600Y0030252300D03*
D10*
X0020718600Y0029772300D03*
D10*
X0020838600Y0029772300D03*
D10*
X0020958600Y0029772300D03*
D10*
X0020838600Y0029892300D03*
D10*
X0020838600Y0030012300D03*
D10*
X0020838600Y0030132300D03*
D10*
X0020838600Y0030252300D03*
D10*
X0021198600Y0030012300D03*
D10*
X0021318600Y0030012300D03*
D10*
X0021438600Y0030012300D03*
D10*
X0017218600Y0029772300D03*
D10*
X0017338600Y0029772300D03*
D10*
X0017218600Y0029892300D03*
D10*
X0017458600Y0029892300D03*
D10*
X0017218600Y0030012300D03*
D10*
X0017338600Y0030012300D03*
D10*
X0017218600Y0030132300D03*
D10*
X0017458600Y0030132300D03*
D10*
X0017218600Y0030252300D03*
D10*
X0017338600Y0030252300D03*
D10*
X0017818600Y0029772300D03*
D10*
X0017698600Y0029892300D03*
D10*
X0017938600Y0029892300D03*
D10*
X0017698600Y0030012300D03*
D10*
X0017818600Y0030012300D03*
D10*
X0017938600Y0030012300D03*
D10*
X0017698600Y0030132300D03*
D10*
X0017938600Y0030132300D03*
D10*
X0017698600Y0030252300D03*
D10*
X0017938600Y0030252300D03*
D10*
X0018178600Y0029772300D03*
D10*
X0018298600Y0029772300D03*
D10*
X0018418600Y0029772300D03*
D10*
X0018298600Y0029892300D03*
D10*
X0018298600Y0030012300D03*
D10*
X0018298600Y0030132300D03*
D10*
X0018298600Y0030252300D03*
D10*
X0018778600Y0029892300D03*
D10*
X0018658600Y0030012300D03*
D10*
X0018778600Y0030012300D03*
D10*
X0018898600Y0030012300D03*
D10*
X0018778600Y0030132300D03*
D10*
X0024800000Y0001200000D03*
D10*
X0025080000Y0001200000D03*
D10*
X0024800000Y0001340000D03*
D10*
X0025080000Y0001340000D03*
D10*
X0024800000Y0001480000D03*
D10*
X0025080000Y0001480000D03*
D10*
X0024800000Y0001620000D03*
D10*
X0025080000Y0001620000D03*
D10*
X0024800000Y0001760000D03*
D10*
X0024940000Y0001760000D03*
D10*
X0025080000Y0001760000D03*
D10*
X0025500000Y0001200000D03*
D10*
X0025640000Y0001200000D03*
D10*
X0025360000Y0001340000D03*
D10*
X0025500000Y0001480000D03*
D10*
X0025640000Y0001620000D03*
D10*
X0025360000Y0001760000D03*
D10*
X0025500000Y0001760000D03*
D10*
X0025920000Y0001200000D03*
D10*
X0026060000Y0001200000D03*
D10*
X0025920000Y0001340000D03*
D10*
X0026200000Y0001340000D03*
D10*
X0025920000Y0001480000D03*
D10*
X0026060000Y0001480000D03*
D10*
X0025920000Y0001620000D03*
D10*
X0026200000Y0001620000D03*
D10*
X0025920000Y0001760000D03*
D10*
X0026060000Y0001760000D03*
D10*
X0027040000Y0001200000D03*
D10*
X0027320000Y0001200000D03*
D10*
X0027040000Y0001340000D03*
D10*
X0027320000Y0001340000D03*
D10*
X0027040000Y0001480000D03*
D10*
X0027320000Y0001480000D03*
D10*
X0027040000Y0001620000D03*
D10*
X0027320000Y0001620000D03*
D10*
X0027040000Y0001760000D03*
D10*
X0027180000Y0001760000D03*
D10*
X0027320000Y0001760000D03*
D10*
X0027600000Y0001200000D03*
D10*
X0027740000Y0001200000D03*
D10*
X0027600000Y0001340000D03*
D10*
X0027880000Y0001340000D03*
D10*
X0027600000Y0001480000D03*
D10*
X0027740000Y0001480000D03*
D10*
X0027600000Y0001620000D03*
D10*
X0027600000Y0001760000D03*
%LPC*%
D20*
X0012380000Y0044620000D03*
D20*
X0012380000Y0042080000D03*
D20*
X0012380000Y0039540000D03*
D20*
X0012380000Y0037000000D03*
D20*
X0012380000Y0034460000D03*
D20*
X0012380000Y0031920000D03*
D20*
X0012380000Y0029380000D03*
D20*
X0027620000Y0044620000D03*
D20*
X0027620000Y0042080000D03*
D20*
X0027620000Y0039540000D03*
D20*
X0027620000Y0037000000D03*
D20*
X0027620000Y0034460000D03*
D20*
X0027620000Y0031920000D03*
D20*
X0027620000Y0029380000D03*
D20*
X0047540000Y0009000000D03*
D20*
X0045000000Y0009000000D03*
D20*
X0042460000Y0009000000D03*
D20*
X0011000000Y0008500000D03*
D20*
X0013540000Y0008500000D03*
D20*
X0031000000Y0017000000D03*
D20*
X0041000000Y0017000000D03*
D20*
X0031000000Y0023000000D03*
D20*
X0041000000Y0023000000D03*
D21*
X0004500000Y0004500000D03*
D21*
X0053500000Y0004500000D03*
D21*
X0004500000Y0043500000D03*
D21*
X0053500000Y0043500000D03*
D20*
X0020758600Y0031472300D03*
D20*
X0018218600Y0031472300D03*
%LPD*%
M02*
