M48
; HomeBrain Dedicated Motherboard Generator
METRIC
T01C0.800
T02C1.000
T03C1.200
T04C3.400
%
G90
M71
T01
X18.219Y31.472
X20.759Y31.472
X31.000Y17.000
X31.000Y23.000
X41.000Y17.000
X41.000Y23.000
T02
X12.380Y29.380
X12.380Y31.920
X12.380Y34.460
X12.380Y37.000
X12.380Y39.540
X12.380Y42.080
X12.380Y44.620
X27.620Y29.380
X27.620Y31.920
X27.620Y34.460
X27.620Y37.000
X27.620Y39.540
X27.620Y42.080
X27.620Y44.620
X42.460Y9.000
X45.000Y9.000
X47.540Y9.000
T03
X11.000Y8.500
X13.540Y8.500
T04
X4.500Y4.500
X4.500Y43.500
X53.500Y4.500
X53.500Y43.500
M30
